<svg id="Capa_1" data-name="Capa 1" xmlns="http://www.w3.org/2000/svg" viewBox="0 0 347.5 866.75"><defs><style>.cls-1{fill:#f9d6bc;}.cls-1,.cls-10,.cls-11,.cls-12,.cls-13,.cls-14,.cls-15,.cls-16,.cls-17,.cls-18,.cls-19,.cls-2,.cls-20,.cls-21,.cls-22,.cls-23,.cls-24,.cls-25,.cls-26,.cls-27,.cls-28,.cls-29,.cls-3,.cls-30,.cls-31,.cls-32,.cls-33,.cls-34,.cls-35,.cls-36,.cls-37,.cls-38,.cls-39,.cls-4,.cls-40,.cls-41,.cls-42,.cls-43,.cls-44,.cls-45,.cls-46,.cls-47,.cls-48,.cls-49,.cls-5,.cls-50,.cls-6,.cls-7,.cls-8,.cls-9{fill-rule:evenodd;}.cls-2{fill:#f0c2a8;}.cls-3{fill:#edbfa5;}.cls-4{fill:#f7e8dd;}.cls-5{fill:#f4e4d9;}.cls-6{fill:#f0b499;}.cls-7{fill:#f0b398;}.cls-8{fill:#efb196;}.cls-9{fill:#efaf94;}.cls-10{fill:#efae93;}.cls-11{fill:#f2bca2;}.cls-12{fill:#f1c2a7;}.cls-13{fill:#f2c2a7;}.cls-14{fill:#d3b19b;}.cls-15{fill:#ecddd3;}.cls-16{fill:#f2b99e;}.cls-17{fill:#f2bba0;}.cls-18{fill:#f1b59a;}.cls-19{fill:#bf9885;}.cls-20{fill:#f1b79d;}.cls-21{fill:#e5d5ca;}.cls-22{fill:#c8ad9a;}.cls-23{fill:#ededed;}.cls-24{fill:#a4948b;}.cls-25{fill:#c7ae9b;}.cls-26{fill:#b09989;}.cls-27{fill:#86766b;}.cls-28{fill:#e9c9b1;}.cls-29{fill:#eecdb5;}.cls-30{fill:#927f73;}.cls-31{fill:#dddede;}.cls-32{fill:#a58f80;}.cls-33{fill:#dedfdf;}.cls-34{fill:#acaaaa;}.cls-35{fill:#918078;}.cls-36{fill:#eabca3;}.cls-37{fill:#99908c;}.cls-38{fill:#877972;}.cls-39{fill:#cba490;}.cls-40{fill:#f8d5bb;}.cls-41{fill:#eec0a6;}.cls-42{fill:#c5a996;}.cls-43{fill:#f1b69b;}.cls-44{fill:#f3bfa5;}.cls-45{fill:#f1b79c;}.cls-46{fill:#f5c5aa;}.cls-47{fill:#f5c4aa;}.cls-48{fill:#f2bca1;}.cls-49{fill:#f1b89d;}.cls-50{fill:#f2baa0;}</style></defs><title>hombre completo espalda</title><path class="cls-1" d="M212.5,26.5q26.67,4.18,32.5,31a104.44,104.44,0,0,1-.5,20q9.08-.68,6.5,8a64.93,64.93,0,0,0-5,17q-8.46,3.48-8.5,13a20.36,20.36,0,0,0-4.5,11,36.8,36.8,0,0,0,1,16,47.28,47.28,0,0,0,18.5,11,36.06,36.06,0,0,1,7,4,40.8,40.8,0,0,0,28,16.5,341.06,341.06,0,0,1,30,18,47.27,47.27,0,0,1,7.5,12.5q4.92,12.31,10.5,24a253.94,253.94,0,0,0-.5,35,511.29,511.29,0,0,1,9.5,51,19.91,19.91,0,0,0,.45,5.7c.76,3.33,2.19,5.47,3.72,8,2,3.26,3.65,6.7,5.49,10s1.5,3.36,7.15,17.95c3.82,9.87,5.1,12.77,5.79,18.13.31,2.39.06,1.82.4,7.19.68,10.64,1.7,13.39,3,26,.13,1.25.41,4.12,1,8,.36,2.41.72,4.46,1,6a332.51,332.51,0,0,0,2.28,35.95q1.71,14.6,4.72,29.05c-.9,1.1-1.73,1.1-2.5,0a24.93,24.93,0,0,0-.5,7,140.61,140.61,0,0,1-4.5,22A157.48,157.48,0,0,0,359.5,532q-2.07,1.86-4,.5a12,12,0,0,1-1-6h-3a12.1,12.1,0,0,1,1-6q8.43-4,3,5l1,1a57.76,57.76,0,0,0,5-13,27.45,27.45,0,0,1-2-11,2.38,2.38,0,0,0,1-2,68.25,68.25,0,0,0-2-9,25.69,25.69,0,0,0-13-7,119.13,119.13,0,0,0-4.5,20l-3,6q-4.56,3.87-9,0a237.7,237.7,0,0,1,6-41,52,52,0,0,1,11-18,25.6,25.6,0,0,0-1-18,186.64,186.64,0,0,0-21-34,119,119,0,0,1-16.5-40,66.37,66.37,0,0,1-2-21,169.11,169.11,0,0,1-11-22,153.9,153.9,0,0,0-7-34,16.46,16.46,0,0,0-2,4,65.73,65.73,0,0,0-11.5,12A606,606,0,0,0,260.5,366q1.69,19.22,2,38.5-10.51-.25-21,.5a247.74,247.74,0,0,1-34.5,3.5,582.28,582.28,0,0,1-59.5-5,595.09,595.09,0,0,1,0-61.5q5-33.42-20-55.5a8.8,8.8,0,0,1-1.5-4,427.08,427.08,0,0,1-13.5,48l-2.1,7.77q-1.94,7.14-3.9,14.23l-1,5a27.71,27.71,0,0,1-.92,5.64,27.3,27.3,0,0,1-2.08,5.36q-17.82,36.13-36.5,72a30.35,30.35,0,0,0,0,11,36.12,36.12,0,0,1,10.5,19q3,20,6,40-4.08,4-8.5,0l-3-6a133.05,133.05,0,0,0-4.5-20,15.05,15.05,0,0,0-11,5.5,5,5,0,0,1-3,.5,32.63,32.63,0,0,0,1,19,46.92,46.92,0,0,0,2.5,13q1,1.8,1.5,0c-1.21-1.49-1.21-2.83,0-4a8.12,8.12,0,0,1,3,8h-3a51.52,51.52,0,0,1-1,7,11.44,11.44,0,0,1-7.5-5,175.64,175.64,0,0,1-12-19,190.82,190.82,0,0,0-5-23q3.6-25.14,7.5-50c.06-1.74.2-4.3.61-7.39.47-3.58.91-4.9,1.39-7.61.89-5.05.28-6.61.89-13.83q.47-5.6,1.11-11.17,4-20.67,6.5-42,7.09-14.69,15-29a15.31,15.31,0,0,0,1.5-12q3.3-12,6.07-24.18c4.84-21.31,5.74-25,5.93-29.82.15-3.8-.09-4.18-.08-18.85,0-6,0-10.87.08-14.15q3.63-8,7.25-15.95T93,194.5A129,129,0,0,1,143.5,167a45.52,45.52,0,0,0,10-9.5,87.08,87.08,0,0,1,11-6q27.83-9.94,13-36a1.83,1.83,0,0,0-2-1,53.23,53.23,0,0,0-1.5-7,31.22,31.22,0,0,1-8-4,148.78,148.78,0,0,1-5.5-21c.17-1.67.33-3.33.5-5a2.83,2.83,0,0,1,2.5-1,13.66,13.66,0,0,0,3.77-.41c-.25-1.86-.51-3.73-.77-5.59a58,58,0,0,1,6.5-31,34.23,34.23,0,0,1,20.5-12,44,44,0,0,1,19-1Z" transform="translate(-32 -25.9)"/><path class="cls-2" d="M175.5,114.5a1.83,1.83,0,0,1,2,1q14.82,26.06-13,36a119.29,119.29,0,0,0,10.5-12,20.34,20.34,0,0,0,1.5-6,31.24,31.24,0,0,0,1-7A31.79,31.79,0,0,0,175.5,114.5Z" transform="translate(-32 -25.9)"/><path class="cls-3" d="M237.5,115.5a39.13,39.13,0,0,0-.5,22,118,118,0,0,0,15.5,16,47.28,47.28,0,0,1-18.5-11,36.8,36.8,0,0,1-1-16A20.36,20.36,0,0,1,237.5,115.5Z" transform="translate(-32 -25.9)"/><path class="cls-4" d="M259.5,157.5a342.73,342.73,0,0,0,41,16.5q33.18,17.1,35,54.5-5.58-11.69-10.5-24a47.27,47.27,0,0,0-7.5-12.5,341.06,341.06,0,0,0-30-18A40.8,40.8,0,0,1,259.5,157.5Z" transform="translate(-32 -25.9)"/><path class="cls-5" d="M153.5,157.5a45.52,45.52,0,0,1-10,9.5A129,129,0,0,0,93,194.5q-7.26,16.09-14.5,32v-4a54,54,0,0,1,18-38.5Q125.35,171.58,153.5,157.5Z" transform="translate(-32 -25.9)"/><path class="cls-6" d="M155.5,190.5a120.26,120.26,0,0,1,9.5,18q6.8,16.09-3,31a5.89,5.89,0,0,1-5.5.5,15.1,15.1,0,0,0,4.5-1.5,59.43,59.43,0,0,0,5.5-18.5A223.8,223.8,0,0,0,155.5,190.5Z" transform="translate(-32 -25.9)"/><path class="cls-7" d="M258.5,188.5a1.1,1.1,0,0,1,1,1,245.06,245.06,0,0,0-13,30.5q2.4,8.87,5.5,17.5a7,7,0,0,0,3.5,2.5q-5.34.18-6.5-5.5a30.08,30.08,0,0,1-2-22A218.66,218.66,0,0,1,258.5,188.5Z" transform="translate(-32 -25.9)"/><path class="cls-8" d="M217.5,192.5a1.1,1.1,0,0,1,1,1l-5.5,9q-.13,31-2,62,.81-31,0-62A104.52,104.52,0,0,1,217.5,192.5Z" transform="translate(-32 -25.9)"/><path class="cls-9" d="M263.5,241.5a65.82,65.82,0,0,1,29,4.5q7,3.1,4.5,10.5.18-6.83-6.5-8.5A158.93,158.93,0,0,0,263.5,241.5Z" transform="translate(-32 -25.9)"/><path class="cls-10" d="M139.5,240.5a97.67,97.67,0,0,1,14,.5A85.78,85.78,0,0,0,117,251.5q-.18-5.34,5.5-6.5A107.37,107.37,0,0,1,139.5,240.5Z" transform="translate(-32 -25.9)"/><path class="cls-11" d="M193.5,192.5a36.26,36.26,0,0,1,7.5,9q1.09,40.5,1,81-1-9-2-18-.5-31-1-62A73.46,73.46,0,0,1,193.5,192.5Z" transform="translate(-32 -25.9)"/><path class="cls-12" d="M127.5,286.5q24.94,22.08,20,55.5a595.09,595.09,0,0,0,0,61.5h-17a491.05,491.05,0,0,0,3.5-57q2.07-12.45,3.5-25a84.78,84.78,0,0,0-8.5-27A34.23,34.23,0,0,1,127.5,286.5Z" transform="translate(-32 -25.9)"/><path class="cls-13" d="M285.5,286.5v3c-1,2.65-2,5.09-2.92,7.32-2.42,5.94-3.31,7.77-4.31,11.07a56.52,56.52,0,0,0-1.77,7.61,3.31,3.31,0,0,0-1.5,2,206.88,206.88,0,0,0,1.5,42,192.57,192.57,0,0,0,6,34,23.77,23.77,0,0,0,1,9,102.8,102.8,0,0,1-21,2q-.3-19.29-2-38.5A606,606,0,0,1,274,298.5,65.73,65.73,0,0,1,285.5,286.5Z" transform="translate(-32 -25.9)"/><path class="cls-14" d="M294.5,316.5a127.81,127.81,0,0,1-7.5-30,5.5,5.5,0,0,1-1.5,3v-3a16.46,16.46,0,0,1,2-4A153.9,153.9,0,0,1,294.5,316.5Z" transform="translate(-32 -25.9)"/><path class="cls-15" d="M66.5,313.5a15.31,15.31,0,0,1-1.5,12q-7.91,14.31-15,29-2.51,21.33-6.5,42a170.79,170.79,0,0,1,4.5-43Q56.88,333.24,66.5,313.5Z" transform="translate(-32 -25.9)"/><path class="cls-16" d="M324.5,326.5a1.1,1.1,0,0,1,1-1,33.18,33.18,0,0,0,11,3,5.77,5.77,0,0,0,5.5-3q-.45,4.68-5.5,5A22.67,22.67,0,0,1,324.5,326.5Z" transform="translate(-32 -25.9)"/><path class="cls-17" d="M100.5,321.5a2.44,2.44,0,0,1,2,.5,27.77,27.77,0,0,1-21,8,4.56,4.56,0,0,1-2.5-4.5,7.15,7.15,0,0,0,8.5,2.5A30,30,0,0,0,100.5,321.5Z" transform="translate(-32 -25.9)"/><path class="cls-18" d="M211.5,295.5c1.29-1.15,2.46-.81,3.5,1A167.22,167.22,0,0,1,232.5,333a12.13,12.13,0,0,0,8-1q6.17-3.3,12-6a27.94,27.94,0,0,1-20,9,11.51,11.51,0,0,1-3.5-4.5A86.74,86.74,0,0,0,211.5,295.5Z" transform="translate(-32 -25.9)"/><path class="cls-19" d="M276.5,315.5a336.47,336.47,0,0,0,0,44,206.88,206.88,0,0,1-1.5-42A3.31,3.31,0,0,1,276.5,315.5Z" transform="translate(-32 -25.9)"/><path class="cls-20" d="M196.5,293.5a1.83,1.83,0,0,1,2,1,143.66,143.66,0,0,0-18.5,38,5.77,5.77,0,0,1-5.5,3,32.78,32.78,0,0,1-12-5.5q-1.8-1,0-1.5a16.81,16.81,0,0,0,16,3,55.44,55.44,0,0,0,4.5-14Q189.41,305.17,196.5,293.5Z" transform="translate(-32 -25.9)"/><path class="cls-21" d="M344.5,314.5q8.56,15.63,16.5,32a37.34,37.34,0,0,1,3.2,10.95A99.84,99.84,0,0,1,366,368.29c.35,2,.71,4,1.06,6a96.44,96.44,0,0,0-5.79-18.13c-.2-.46-1.18-2.49-3.13-6.54-3.84-8-6.95-16.35-11.18-24.14C346.59,324.74,345.56,322.88,344.5,314.5Z" transform="translate(-32 -25.9)"/><path class="cls-22" d="M305.5,338.5a122.54,122.54,0,0,1,2,21A69.45,69.45,0,0,1,305.5,338.5Z" transform="translate(-32 -25.9)"/><path class="cls-23" d="M129.5,405.5q11.5-.25,23,.5,25.44,2.91,51,4.5,19.58-.88,39-3.5l42-1.5,1,2,4,13q3.28,14.08,7.5,28,1.88,21.09,5,42a309.51,309.51,0,0,1-.5,43q-11.5.91-23,2h-65l-1-3q-2.31-15.12-6-30a2.21,2.21,0,0,0-2-2l-2,7-2,8a104.1,104.1,0,0,0-3,14l-2,7q-30.5,1-61,1a151.3,151.3,0,0,1-23-2,297,297,0,0,1,1-56c.06-2.37.18-4.83.39-7.36a129.17,129.17,0,0,1,3.61-21.64C118.07,443.29,120,435.67,129.5,405.5Z" transform="translate(-32 -25.9)"/><path class="cls-24" d="M282.5,393.5a37.66,37.66,0,0,1,2,12l-42,1.5q-19.42,2.61-39,3.5-25.56-1.59-51-4.5-11.49-.75-23-.5l1-2h17a582.28,582.28,0,0,0,59.5,5,247.74,247.74,0,0,0,34.5-3.5q10.49-.75,21-.5a102.8,102.8,0,0,0,21-2A23.77,23.77,0,0,1,282.5,393.5Z" transform="translate(-32 -25.9)"/><path class="cls-25" d="M76.5,470.5a138.55,138.55,0,0,1,6,40Q79.5,490.49,76.5,470.5Z" transform="translate(-32 -25.9)"/><path class="cls-26" d="M379.5,486.5a64.07,64.07,0,0,0-3,7,24.93,24.93,0,0,1,.5-7C377.77,487.6,378.6,487.6,379.5,486.5Z" transform="translate(-32 -25.9)"/><path class="cls-27" d="M358.5,491.5a68.25,68.25,0,0,1,2,9,2.38,2.38,0,0,1-1,2A49.46,49.46,0,0,1,358.5,491.5Z" transform="translate(-32 -25.9)"/><path class="cls-28" d="M357.5,509.5q3.53,2.17,1,6-5.61,4.44-5-2A11.44,11.44,0,0,1,357.5,509.5Z" transform="translate(-32 -25.9)"/><path class="cls-29" d="M56.5,511.5a6,6,0,0,1,2,5q-3.53.06-4-3.5A1.91,1.91,0,0,1,56.5,511.5Z" transform="translate(-32 -25.9)"/><path class="cls-30" d="M53.5,509.5a7.06,7.06,0,0,1,3,2,1.91,1.91,0,0,0-2,1.5q.48,3.56,4,3.5l-1,2q-1.81,1.75,0,4-.53,1.8-1.5,0A47,47,0,0,1,53.5,509.5Z" transform="translate(-32 -25.9)"/><path class="cls-31" d="M181.5,515.5a8.39,8.39,0,0,1,4,.5l-5.5,5.5a7.67,7.67,0,0,0,2.5,6.5q13.89,3.93-1,5.5a31.89,31.89,0,0,1-9-7.5,68.28,68.28,0,0,0-21,4.5l-2-1a26.3,26.3,0,0,1,5-3q-14-1.25-28-1.5a106.08,106.08,0,0,1,19-3l25-1A42.6,42.6,0,0,0,181.5,515.5Z" transform="translate(-32 -25.9)"/><path class="cls-32" d="M359.5,502.5a27.45,27.45,0,0,0,2,11,57.76,57.76,0,0,1-5,13l-1-1q5.43-9-3-5a12.86,12.86,0,0,1,1-7q-.62,6.43,5,2,2.52-3.82-1-6A68.44,68.44,0,0,1,359.5,502.5Z" transform="translate(-32 -25.9)"/><path class="cls-33" d="M224.5,517.5a2.38,2.38,0,0,1,2-1,173.38,173.38,0,0,0,47,6.5,325.72,325.72,0,0,0-51,7.5,10.46,10.46,0,0,1-5-1.5,15.37,15.37,0,0,0,14-8.5A20,20,0,0,0,224.5,517.5Z" transform="translate(-32 -25.9)"/><path class="cls-34" d="M212.5,532.5a2.87,2.87,0,0,1,1,3h65q-32.74,1.5-66,1Z" transform="translate(-32 -25.9)"/><path class="cls-35" d="M301.5,533.5l-2.08,2.66-1.92-.66q-15.64,1.05-32.16,1.62-24.39.81-48.84.38a4.62,4.62,0,0,1-4-1q33.25.5,66-1Q290,534.42,301.5,533.5Z" transform="translate(-32 -25.9)"/><path class="cls-36" d="M298.71,539.73A43.62,43.62,0,0,0,282,541.5a22.6,22.6,0,0,0-9.5-2q-8.47,1.17-17,2-18.93-2.28-38-3v4a6.89,6.89,0,0,1-1-5c15.58.3,31.88.21,48.84-.38q18-.63,34.88-1.9Z" transform="translate(-32 -25.9)"/><path class="cls-37" d="M195.5,536.5a26,26,0,0,1-2,5v-3h-33a169.5,169.5,0,0,1-26-1Q165,537.47,195.5,536.5Z" transform="translate(-32 -25.9)"/><path class="cls-38" d="M120.72,536.73c4.9.5,9.51.73,13.78.77a169.5,169.5,0,0,0,26,1v1q-20.52.09-41-1a9.64,9.64,0,0,0-6-1l-2-2C114.41,536,117.49,536.4,120.72,536.73Z" transform="translate(-32 -25.9)"/><path class="cls-39" d="M160.5,539.5v-1h33v3h-1A129.15,129.15,0,0,0,160.5,539.5Z" transform="translate(-32 -25.9)"/><path class="cls-40" d="M297.5,539.5l1.23-.21c-.08,2.07-.15,4.14-.23,6.21q0,18-1,36c-.14,2.56-.66,6.14-1.5,13.32-1.22,10.37-1.26,9.75-1.5,12.68-.37,4.47-.11,3.81-.57,19.06-.43,14-.43,13.54-.43,13.94C293.35,658,298,663,301,688.5a219.94,219.94,0,0,1,1.5,31,145.41,145.41,0,0,1-3.38,27,114.91,114.91,0,0,0-3.62,25c-.05,2.1,0,3.84,0,5,0,6-.18,12.22-.54,18.73s-.85,12.46-1.46,18.27a166.29,166.29,0,0,0-2,17,2.23,2.23,0,0,1-1.5-1q-2.62,9.11-6,18a46.36,46.36,0,0,0,1,17q.5-8,1-16,2.36-6.57,4.5-13a26.55,26.55,0,0,0,2.5,14,127.62,127.62,0,0,1,17.5,6q.4,9.32-7.5,14-4.17,8.82-7.5,18a27.31,27.31,0,0,1-24,3.5,26.4,26.4,0,0,1-7.5-14.5,411.52,411.52,0,0,0-14-122,203,203,0,0,1-10-38q.56-40.51,2-81a228.75,228.75,0,0,0-9-28,227.19,227.19,0,0,1-5-31q-6-16.82-10.5-34v-4q19.06.72,38,3,8.52-.84,17-2a22.6,22.6,0,0,1,9.5,2A48.41,48.41,0,0,1,297.5,539.5Z" transform="translate(-32 -25.9)"/><path class="cls-40" d="M114.5,539.5a245.12,245.12,0,0,0,52,2,29.1,29.1,0,0,1,11.5,2,34,34,0,0,1,15.5-2c-.27,2.11-.71,5.36-1.3,9.36-.36,2.45-.48,3.09-.7,4.64-.73,5-1,8.26-1.35,11.83-.32,3.13-.83,7.62-1.65,13.17-.66,4-1.24,8.35-1.68,12.92q-.63,6.5-.82,13.08a167.19,167.19,0,0,1-4.5,21c-.48,2.61-1.07,5.36-1.79,8.23s-1.44,5.34-2.21,7.77q-2.4,9.43-4.5,19a114.22,114.22,0,0,0-.19,16.12c.33,5.47,1.13,10.32,1.69,13.88,1,6.38,1.19,5.62,1.5,8.68.54,5.34.15,9.54-.5,16.32-.35,3.61-.76,6.63-1.09,8.87Q173.12,735,171,743.5q-7.19,23.06-15,46a118.18,118.18,0,0,0-5,47q1.44,15.48,2.5,31,.25,35.37-32,21l-9.5-21q-7.12-3.76-6.5-12,8.69-3.15,17.5-6a32.51,32.51,0,0,0,2.5-16,133.32,133.32,0,0,1,6,22q-1.47,10.05-2.5,20a60.5,60.5,0,0,0-3-47,8.39,8.39,0,0,0-.5,4c0,.1-3.85-54.21-7-67-.16-.63-1-3.79-1.74-8.14-.69-3.85-1.06-7-1.26-8.86-.33-2.33-.67-4.67-1-7a132.11,132.11,0,0,1-1-45c.73-6.69,1.72-13.79,3-21.23,1.45-8.12,3.14-15.73,5-22.77a17,17,0,0,1,0-4.16,15.47,15.47,0,0,1,1-3.84c-1.46-13.45-2-21.09-2.25-25.65-.06-1.16-.5-4.21-.75-8.35-.23-3.73-.85-5.17-1.86-10a154,154,0,0,1-2.84-24.68c-.16-2.94-.3-5.12-.3-9.36Z" transform="translate(-32 -25.9)"/><path class="cls-41" d="M114.5,539.5a6.88,6.88,0,0,1,5-1q20.48,1.08,41,1a129.15,129.15,0,0,1,32,2,32.3,32.3,0,0,0-14.5,2,29.1,29.1,0,0,0-11.5-2A245.12,245.12,0,0,1,114.5,539.5Z" transform="translate(-32 -25.9)"/><path class="cls-42" d="M119.5,538.5a6.88,6.88,0,0,0-5,1v27c-.28-1.47-.66-3.67-1-6.35-.58-4.73-.63-7.87-.84-12-.15-3-.41-7.22-.92-12.39l1.75,1.76a9.61,9.61,0,0,1,6,1Z" transform="translate(-32 -25.9)"/><path class="cls-43" d="M144.5,606.5a59.79,59.79,0,0,1-4.5,31Q142.88,622.18,144.5,606.5Z" transform="translate(-32 -25.9)"/><path class="cls-44" d="M275.5,606.5q2.79,15.43,7,31l-1,2A67.28,67.28,0,0,1,275.5,606.5Z" transform="translate(-32 -25.9)"/><path class="cls-20" d="M161.5,652.5a15.83,15.83,0,0,1,4.5,8,98.7,98.7,0,0,1-9,47q3.13-15,7-30A51.31,51.31,0,0,0,161.5,652.5Z" transform="translate(-32 -25.9)"/><path class="cls-45" d="M254.5,652.5a2.44,2.44,0,0,1,2,.5,28.78,28.78,0,0,0-3.5,19.5q3.56,18.22,8,36a96.11,96.11,0,0,1-9-49C252.85,657.15,253.68,654.81,254.5,652.5Z" transform="translate(-32 -25.9)"/><path class="cls-46" d="M162.5,714.5h4q-3,19.75-22,12.5a11.28,11.28,0,0,1-3-6.5,127.56,127.56,0,0,0,16-.5A38.59,38.59,0,0,0,162.5,714.5Z" transform="translate(-32 -25.9)"/><path class="cls-47" d="M248.5,714.5a13.2,13.2,0,0,1,8,5.5,112.14,112.14,0,0,0,15,.5q.79,5-4,6.5Q249.46,733.71,248.5,714.5Z" transform="translate(-32 -25.9)"/><path class="cls-16" d="M144.5,752.5a6,6,0,0,1,6.5,3,16.53,16.53,0,0,1,3,9,45.07,45.07,0,0,0-5.5-9.5,6.47,6.47,0,0,0-5,0,26.69,26.69,0,0,1-9,4A82.48,82.48,0,0,1,144.5,752.5Z" transform="translate(-32 -25.9)"/><path class="cls-48" d="M268.5,752.5a37.34,37.34,0,0,1,16,8.5,137,137,0,0,0-14-6.5,7,7,0,0,0-4.5,3l-4,8a4.23,4.23,0,0,1,0-4A29.3,29.3,0,0,1,268.5,752.5Z" transform="translate(-32 -25.9)"/><path class="cls-6" d="M125.5,833.5v-1a8.39,8.39,0,0,1,.5-4,60.5,60.5,0,0,1,3,47q1-9.94,2.5-20A133.32,133.32,0,0,0,125.5,833.5Z" transform="translate(-32 -25.9)"/><path class="cls-49" d="M291.5,830.5a9.2,9.2,0,0,1-1,5q-2.14,6.43-4.5,13-.5,8-1,16a46.36,46.36,0,0,1-1-17q3.38-8.89,6-18A2.23,2.23,0,0,0,291.5,830.5Z" transform="translate(-32 -25.9)"/><path class="cls-6" d="M147.5,830.5a3.39,3.39,0,0,1,1,2.5q-2,11.68-3,23.5a56.48,56.48,0,0,1,2.5,18A78.85,78.85,0,0,1,147.5,830.5Z" transform="translate(-32 -25.9)"/><path class="cls-50" d="M270.5,844.5a31.83,31.83,0,0,1-.5,23Q270.31,856,270.5,844.5Z" transform="translate(-32 -25.9)"/></svg>