<svg id="Capa_1" data-name="Capa 1" xmlns="http://www.w3.org/2000/svg" viewBox="0 0 705.68 437.9"><defs><style>.cls-1{fill:#f8d5bb;}.cls-1,.cls-2,.cls-3,.cls-4,.cls-5,.cls-6{fill-rule:evenodd;}.cls-2{fill:#fceee3;}.cls-3{fill:#fceee4;}.cls-4{fill:#fcece1;}.cls-5{fill:#f5c4aa;}.cls-6{fill:#f5c4a9;}</style></defs><title>Mano D</title><path class="cls-1" d="M616.5,99.5q1.05-23.31,2-47,9.33-18.18,27-8.5a19.61,19.61,0,0,1,5.5,9.5,494.35,494.35,0,0,1-1.5,66q1.31,16.23,2,32.5-2.16,25.45-3,51a193.93,193.93,0,0,0,1.5,25.5q3.21,7.33,8.5,1a74.21,74.21,0,0,0,6.5-8,193.61,193.61,0,0,1,7-21q19.25-37.49,40-74,8-9.24,19.5-4.5a17.18,17.18,0,0,1,4,12,253.13,253.13,0,0,1-9.5,34.5q-11,25.86-22,52a442.22,442.22,0,0,0-11,58q-1.86,45.79-5.5,91.5a410.19,410.19,0,0,0,9,52.5l-1,3a145.84,145.84,0,0,1-26,8.5,426.71,426.71,0,0,0-52,10q-23.65,7.08-47,15a38.61,38.61,0,0,1-32-2q-18.29-16.78-35.5-34.5a160.28,160.28,0,0,1-22-39,182.13,182.13,0,0,1-19-25q-10.1-23.65-19-48-7.62-14.75-16-29a103.25,103.25,0,0,1-6-29,32.29,32.29,0,0,1-3.5-6,6.73,6.73,0,0,1,4,2,18.07,18.07,0,0,0,3.5-16,60.08,60.08,0,0,0-7.5-14.5q-8-5.24-15.5.5a2.49,2.49,0,0,0,0,3,116.29,116.29,0,0,1,7.5,12,99.9,99.9,0,0,1-10-13.5q6.54-15.21,23-11A72.39,72.39,0,0,1,460,240.5q13.75,23.52,26,48a15.38,15.38,0,0,0,7.5,7,716.24,716.24,0,0,0,1.5-75q-8.72-29.62-18-59-1.42-13-3-26-4.25-19-8.5-38a104.56,104.56,0,0,1-.5-25,21.06,21.06,0,0,1,5.5-7q10.33-13,21.5-1l7,12a461.28,461.28,0,0,1,11,54q4.62,10.73,10,21,7,23.87,13,48a46,46,0,0,0,4,10q13.75,6.24,19-8a56.22,56.22,0,0,0,0-15q-2.44-20.17-6.5-40a269.62,269.62,0,0,1-1-28q.25-19-.5-38a128.91,128.91,0,0,1-2.5-33,38.3,38.3,0,0,1,2-13q13.25-20.65,29.5-2a22.64,22.64,0,0,1,4,8,144,144,0,0,0,3,29q.5,15,1,30,4.74,17.43,9,35,2.67,33.52,6,67,.64,7.16,7.5,6.5a11.37,11.37,0,0,0,1.5-3.5q.45-25.53,2-51A214.86,214.86,0,0,0,616.5,99.5Z" transform="translate(-29.83 -23.65)"/><path class="cls-2" d="M559.5,26.5q10-1.61,15.5,7a179.77,179.77,0,0,1,.5,19,98.18,98.18,0,0,1-19.5-1,31.45,31.45,0,0,1-4-20Q555.72,28.79,559.5,26.5Z" transform="translate(-29.83 -23.65)"/><path class="cls-3" d="M629.5,44.5q24.21-1.5,16.5,22-5,9.61-15.5,6.5a10.94,10.94,0,0,1-5-4.5,51.92,51.92,0,0,1-1.5-20A59.78,59.78,0,0,1,629.5,44.5Z" transform="translate(-29.83 -23.65)"/><path class="cls-2" d="M470.5,65.5a29.91,29.91,0,0,0,9-3.5q11.44-2.11,14.5,9.5a42.29,42.29,0,0,1,0,13,33.14,33.14,0,0,1-20.5,2A30.67,30.67,0,0,1,470.5,65.5Z" transform="translate(-29.83 -23.65)"/><path class="cls-3" d="M719.5,122.5a21.63,21.63,0,0,1,12,2.5q5.5,12.33-5,21-4.8,3.1-9-.5Q710.83,133.13,719.5,122.5Z" transform="translate(-29.83 -23.65)"/><path class="cls-4" d="M417.5,246.5a130,130,0,0,1-8-13,116.29,116.29,0,0,0-7.5-12,2.49,2.49,0,0,1,0-3q7.46-5.75,15.5-.5a60.08,60.08,0,0,1,7.5,14.5,18.07,18.07,0,0,1-3.5,16A6.73,6.73,0,0,0,417.5,246.5Z" transform="translate(-29.83 -23.65)"/><path class="cls-5" d="M577.5,243.5q16.95-1.53,20,15a71.51,71.51,0,0,0-11-3,34.71,34.71,0,0,1-16,1.5,7.14,7.14,0,0,1-1.5-7.5A42,42,0,0,1,577.5,243.5Z" transform="translate(-29.83 -23.65)"/><path class="cls-5" d="M628.72,243.45q14.09-1,16.63,9.73a74.66,74.66,0,0,0-9.15-1.94,36.62,36.62,0,0,1-13.3,1,3.9,3.9,0,0,1-1.25-4.86A36,36,0,0,1,628.72,243.45Z" transform="translate(-29.83 -23.65)"/><path class="cls-6" d="M527.5,249.5q14.88-.37,13,14-11.21-5.1-20,3.5a2.49,2.49,0,0,1-3,0,14.78,14.78,0,0,1,.5-11.5Q522.72,252.27,527.5,249.5Z" transform="translate(-29.83 -23.65)"/><path class="cls-6" d="M675.54,248.17q9.51,1.8,7.1,7.48-6.72-3.57-13-1.17a2.36,2.36,0,0,1-1.91-.39,4.26,4.26,0,0,1,1.29-4.68C671.17,248.93,673.35,248.52,675.54,248.17Z" transform="translate(-29.83 -23.65)"/><path class="cls-6" d="M466.5,350.5a15.17,15.17,0,0,1,8.5,6A177.16,177.16,0,0,0,530.5,410,43,43,0,0,1,543,428.5a30.35,30.35,0,0,1,0,11q-.64,6.17-6.5,5.5A229.08,229.08,0,0,1,509,421.5q-19.32-33.3-41-65A10.09,10.09,0,0,1,466.5,350.5Z" transform="translate(-29.83 -23.65)"/><path class="cls-1" d="M154.34,153.5q1.54,25.47,2,51a11.37,11.37,0,0,0,1.5,3.5q6.87.66,7.5-6.5,3.34-33.47,6-67,4.28-17.56,9-35,.51-15,1-30a144,144,0,0,0,3-29,22.64,22.64,0,0,1,4-8q16.26-18.66,29.5,2a38.3,38.3,0,0,1,2,13,128.47,128.47,0,0,1-2.5,33q-.75,19-.5,38a269.62,269.62,0,0,1-1,28q-4.05,19.83-6.5,40a57.07,57.07,0,0,0,0,15q5.26,14.25,19,8a45.53,45.53,0,0,0,4-10q6-24.13,13-48,5.39-10.27,10-21a463.35,463.35,0,0,1,11-54q3.51-6,7-12,11.18-12,21.5,1a21.06,21.06,0,0,1,5.5,7,104,104,0,0,1-.5,25q-4.24,19-8.5,38-1.57,13-3,26-9.29,29.37-18,59a716.24,716.24,0,0,0,1.5,75,15.29,15.29,0,0,0,7.5-7q12.24-24.48,26-48a72.47,72.47,0,0,1,37.5-31.5q16.46-4.22,23,11a99.06,99.06,0,0,1-10,13.5,116.29,116.29,0,0,1,7.5-12,2.49,2.49,0,0,0,0-3q-7.45-5.75-15.5-.5a60.08,60.08,0,0,0-7.5,14.5,18.1,18.1,0,0,0,3.5,16,6.76,6.76,0,0,1,4-2,31.74,31.74,0,0,1-3.5,6,103.25,103.25,0,0,1-6,29q-8.37,14.26-16,29-8.89,24.35-19,48a180.55,180.55,0,0,1-19,25,160,160,0,0,1-22,39q-17.2,17.72-35.5,34.5a38.61,38.61,0,0,1-32,2q-23.34-7.92-47-15a426,426,0,0,0-52-10,146.37,146.37,0,0,1-26-8.5c-.33-1-.66-2-1-3a410.19,410.19,0,0,0,9-52.5q-3.63-45.71-5.5-91.5a440.58,440.58,0,0,0-11-58q-11-26.15-22-52a254.58,254.58,0,0,1-9.5-34.5,17.28,17.28,0,0,1,4-12q11.53-4.74,19.5,4.5,20.77,36.52,40,74a191.46,191.46,0,0,1,7,21,75.44,75.44,0,0,0,6.5,8q5.3,6.33,8.5-1a190.55,190.55,0,0,0,1.5-25.5q-.82-25.55-3-51,.69-16.27,2-32.5a497.73,497.73,0,0,1-1.5-66,19.61,19.61,0,0,1,5.5-9.5q17.68-9.69,27,8.5,1,23.69,2,47A215.32,215.32,0,0,0,154.34,153.5Z" transform="translate(-29.83 -23.65)"/><path class="cls-2" d="M213.34,31.5a31.38,31.38,0,0,1-4,20,98.18,98.18,0,0,1-19.5,1,182.49,182.49,0,0,1,.5-19q5.47-8.61,15.5-7Q209.64,28.78,213.34,31.5Z" transform="translate(-29.83 -23.65)"/><path class="cls-3" d="M141.34,48.5a51.92,51.92,0,0,1-1.5,20,10.9,10.9,0,0,1-5,4.5q-10.52,3.1-15.5-6.5-7.71-23.51,16.5-22A58.45,58.45,0,0,1,141.34,48.5Z" transform="translate(-29.83 -23.65)"/><path class="cls-2" d="M291.84,86.5a33.16,33.16,0,0,1-20.5-2,42.92,42.92,0,0,1,0-13q3.06-11.61,14.5-9.5a29.91,29.91,0,0,0,9,3.5A30.67,30.67,0,0,1,291.84,86.5Z" transform="translate(-29.83 -23.65)"/><path class="cls-3" d="M47.84,145.5q-4.2,3.6-9,.5-10.5-8.67-5-21a21.67,21.67,0,0,1,12-2.5Q54.53,133.12,47.84,145.5Z" transform="translate(-29.83 -23.65)"/><path class="cls-4" d="M343.84,248.5a18.1,18.1,0,0,1-3.5-16,60.08,60.08,0,0,1,7.5-14.5q8.06-5.24,15.5.5a2.49,2.49,0,0,1,0,3,116.29,116.29,0,0,0-7.5,12,130,130,0,0,1-8,13A6.76,6.76,0,0,0,343.84,248.5Z" transform="translate(-29.83 -23.65)"/><path class="cls-5" d="M196.34,249.5a7.1,7.1,0,0,1-1.5,7.5,34.71,34.71,0,0,1-16-1.5,71.82,71.82,0,0,0-11,3q3.06-16.53,20-15A41.73,41.73,0,0,1,196.34,249.5Z" transform="translate(-29.83 -23.65)"/><path class="cls-5" d="M143.69,247.35a3.9,3.9,0,0,1-1.24,4.86,36.67,36.67,0,0,1-13.31-1,74.1,74.1,0,0,0-9.14,1.94q2.53-10.71,16.63-9.73A35.9,35.9,0,0,1,143.69,247.35Z" transform="translate(-29.83 -23.65)"/><path class="cls-6" d="M247.34,255.5a14.78,14.78,0,0,1,.5,11.5,2.49,2.49,0,0,1-3,0q-8.79-8.6-20-3.5-1.87-14.38,13-14Q242.63,252.27,247.34,255.5Z" transform="translate(-29.83 -23.65)"/><path class="cls-6" d="M96.36,249.41a4.28,4.28,0,0,1,1.3,4.68,2.36,2.36,0,0,1-1.91.39q-6.33-2.4-13,1.17-2.43-5.68,7.09-7.48Q93.09,248.7,96.36,249.41Z" transform="translate(-29.83 -23.65)"/><path class="cls-6" d="M297.34,356.5q-21.68,31.69-41,65a228.31,228.31,0,0,1-27.5,23.5q-5.85.66-6.5-5.5a30.8,30.8,0,0,1,0-11,43.2,43.2,0,0,1,12.5-18.5,177.16,177.16,0,0,0,55.5-53.5,15.2,15.2,0,0,1,8.5-6A10.09,10.09,0,0,1,297.34,356.5Z" transform="translate(-29.83 -23.65)"/></svg>