<svg id="Capa_1" data-name="Capa 1" xmlns="http://www.w3.org/2000/svg" viewBox="0 0 370.52 879.75"><defs><style>.cls-1{fill:#443c33;}.cls-1,.cls-10,.cls-11,.cls-2,.cls-3,.cls-4,.cls-5,.cls-6,.cls-7,.cls-8,.cls-9{fill-rule:evenodd;}.cls-2{fill:#f8d5bc;}.cls-3{fill:#f8f8f8;}.cls-4{fill:#f7d4bb;}.cls-5{fill:#f7d4ba;}.cls-6{fill:#d6a98a;}.cls-7{fill:#f9d6bc;}.cls-8{fill:#f9f9f9;}.cls-9{fill:#edccb3;}.cls-10{fill:#efcdb4;}.cls-11{fill:#f8d5bb;}</style></defs><title>Mujer completa espalda</title><path class="cls-1" d="M214.5,115.5h-41q-15.83-.06-21.5-15a229.59,229.59,0,0,1,7-75q17.83-27,49.5-18.5A37.62,37.62,0,0,1,230,30.5q3.36,17.11,8,34a101.59,101.59,0,0,1,0,34q-5.61,16.4-22.5,17Z" transform="translate(-8.81 -4.98)"/><path class="cls-2" d="M231,158.2a39.77,39.77,0,0,0,13.53,7.68A74.92,74.92,0,0,1,242.62,179a76.6,76.6,0,0,1-4.36,13c-1.37,3.1-6.6,14.92-15.57,22.24-13.89,11.33-38.07,12.93-54.47,1.74-13.37-9.12-17.86-24.43-20.44-33.16a75.47,75.47,0,0,1-2.91-16.25c.54-.28,1.33-.69,2.26-1.2,5.42-3,13.85-7.72,20-16.18,8-10.92,8.55-23.19,8.83-28.92.11-2.35.07-4.31,0-5.65h39a72.78,72.78,0,0,0,2.5,23,29.81,29.81,0,0,0,3.45,7.42A45.7,45.7,0,0,0,231,158.2Z" transform="translate(-8.81 -4.98)"/><path class="cls-3" d="M165.71,211.22c3.43,2.83,17.5,14.45,36.85,11.18,21-3.56,30.82-21.73,31.94-23.9l4-8a62.67,62.67,0,0,0,6-25q6.72,2.24,13,5-.25,19,.5,38a152.07,152.07,0,0,0,4.5,26v1q-1,10.5-2,21c-.38,4-.36,3.1-.63,5.19-1,7.85-2,13.48-2.29,15.1-.26,1.41-.61,3.36-1.08,5.71q-62-.27-124,1-3-22-6-44.5a37,37,0,0,1,1-5.5c2.65-10.07,3.4-20.39,4-25,.84-6.42,1.91-18.44,1-36.92a58.14,58.14,0,0,0,14.42-6.08C146.71,168.63,145.61,194.63,165.71,211.22Z" transform="translate(-8.81 -4.98)"/><path class="cls-4" d="M127.5,172.5h3v36a147.89,147.89,0,0,1-3.5,23,2.23,2.23,0,0,0-1.5-1,469.7,469.7,0,0,0-17,50q-6.5,23.5-13,47-4.25,10.72-8,22a619.3,619.3,0,0,0-51,110,43.93,43.93,0,0,1-10,21,2.85,2.85,0,0,0-2.5,1,32.51,32.51,0,0,0-.5,8,140.81,140.81,0,0,0-1.5,17l-3-4q-.49-7-1-14-5.13,13.23,5.5,22,5.51,4.13,3.5,11-8.35-9.22-16-19a13,13,0,0,1-.5-5q-.6-9.5-1-19Q16.73,462,24,445.5c.76-2,1.51-4,2.25-6.1q2-5.53,3.75-10.9,11-41.16,23-82a108.25,108.25,0,0,1,16-30c1.63-7.14,6.14-26.95,7.77-34.08,2.82-12.34,7.9-34.58,10.73-46.92q2-8.5,4-17l3-13,4-13Q106.35,173.21,127.5,172.5Z" transform="translate(-8.81 -4.98)"/><path class="cls-3" d="M132.47,171.58c.15,5.6.17,11.46,0,17.55-.16,6.76-.51,13.23-1,19.37h-1v-36Z" transform="translate(-8.81 -4.98)"/><path class="cls-5" d="M260.5,172.5a71.63,71.63,0,0,1,21,6.5,43.47,43.47,0,0,1,9.5,13.5q15.31,61.91,30,124a136.7,136.7,0,0,1,16,31q10.8,36.3,19.5,73c.67,2,1.33,4,2,6,.88,2.52,1.72,5.19,2.5,8a99.19,99.19,0,0,1,3.93,10c1.21,3.61,1.77,6.36,2.07,7q6,12.93,12,26a96.47,96.47,0,0,1-1,24,148.91,148.91,0,0,1-15.5,20q-2.76-6.81,3-11,10.44-8.56,6-22a114.43,114.43,0,0,0-1.5,15l-3,3q-.25-12.76-1.5-25a1.62,1.62,0,0,1-2-1,33.65,33.65,0,0,1-10-26h-3a246.84,246.84,0,0,0-18.5-48q-14.73-29.47-31-58a554.1,554.1,0,0,1-15.5-55,95.58,95.58,0,0,0-6-18c-.33-1-.67-2-1-3a298.63,298.63,0,0,0-12-37,11.65,11.65,0,0,0-2-5,1.1,1.1,0,0,0-1,1,81.73,81.73,0,0,1-3.5-19A267.85,267.85,0,0,1,260.5,172.5Z" transform="translate(-8.81 -4.98)"/><path class="cls-3" d="M130.5,208.5h1a89.1,89.1,0,0,1-4,25c-1.55-.32-2.21-1.32-2-3a2.23,2.23,0,0,1,1.5,1A147.89,147.89,0,0,0,130.5,208.5Z" transform="translate(-8.81 -4.98)"/><path class="cls-3" d="M257.5,170.5a7.06,7.06,0,0,1,3,2,267.85,267.85,0,0,0-.5,40,81.73,81.73,0,0,0,3.5,19,5.75,5.75,0,0,1-1,3,152.07,152.07,0,0,1-4.5-26Q257.25,189.51,257.5,170.5Z" transform="translate(-8.81 -4.98)"/><path class="cls-6" d="M255.5,287.5a64.79,64.79,0,0,0-9.69-2A71.19,71.19,0,0,0,235.5,285q-51-1.11-102,.5l-1-2q62-1.28,124-1C256.17,284.17,255.83,285.83,255.5,287.5Z" transform="translate(-8.81 -4.98)"/><path class="cls-7" d="M255.5,287.5v4c-1.42,8.22-2.38,15.08-3,20-2.28,18-3.38,27.16-1.52,36a142.19,142.19,0,0,0,5,17c1.32,3.7,2.58,6.75,3.52,8.94a9.63,9.63,0,0,1-7,2.5q-21.52,1.92-43,4a439.27,439.27,0,0,1-81-3.5q4.73-10.47,9.5-21a26.67,26.67,0,0,0,2.5-12.5q-2.82-28.85-7-57.5,51-1.61,102-.5A67.53,67.53,0,0,1,255.5,287.5Z" transform="translate(-8.81 -4.98)"/><path class="cls-8" d="M262.5,377.5a128.21,128.21,0,0,1,13,31l3,9c.67,2.33,1.33,4.67,2,7,.43,1.7,1.08,4.35,1.82,7.6,2.29,10,4.22,18.6,5.18,29.4.11,1.23.4,4.79.54,9.51a165.55,165.55,0,0,1-1.39,26.49h-.15q-41.42,0-83.08,1.93-5.22-13-10.42-25.93-.62,1.44-1.23,2.91a211.2,211.2,0,0,0-8.27,24.09s-13.09.47-18.8.59q-24.6.56-49.2-.09a69.16,69.16,0,0,1-15-2.5,217.64,217.64,0,0,1-.94-31.11,201.89,201.89,0,0,1,3.63-31.68c2.55-12.52,8.38-33.16,23.23-56.83,5.62.72,12.74,1.52,21,2.18A348.7,348.7,0,0,0,183,382.5Q222.89,381.92,262.5,377.5Z" transform="translate(-8.81 -4.98)"/><path class="cls-6" d="M259.5,373.5a22.59,22.59,0,0,0,3,4q-39.62,4.42-79.5,5c-14,.2-25.85-.83-35.56-1.44-8.74-.55-16.13-1.16-21.61-1.65l2.67-2.91a439.27,439.27,0,0,0,81,3.5q21.48-2.08,43-4A9.63,9.63,0,0,0,259.5,373.5Z" transform="translate(-8.81 -4.98)"/><path class="cls-9" d="M350.5,454.5h3a33.65,33.65,0,0,0,10,26,2.85,2.85,0,0,1-2.5-1,60.39,60.39,0,0,0-.5,11,81.88,81.88,0,0,1-1.5-13,50.87,50.87,0,0,1-8.5-17A5,5,0,0,0,350.5,454.5Z" transform="translate(-8.81 -4.98)"/><path class="cls-9" d="M350.5,460.5a50.87,50.87,0,0,0,8.5,17,81.88,81.88,0,0,0,1.5,13,16.35,16.35,0,0,1,2.5,12,101.07,101.07,0,0,1-13-27A40,40,0,0,1,350.5,460.5Z" transform="translate(-8.81 -4.98)"/><path class="cls-10" d="M29.5,479.5a54.63,54.63,0,0,0,8-18q-.14-4.65,1.5-1a51,51,0,0,1-2,23,89.7,89.7,0,0,1-11,19,14.51,14.51,0,0,1,3-12A60.39,60.39,0,0,0,29.5,479.5Z" transform="translate(-8.81 -4.98)"/><path class="cls-4" d="M37.15,457.63c.21.05.55.92.61,1.08a4.9,4.9,0,0,1,.17.49,40.79,40.79,0,0,1-4,13.42,40.25,40.25,0,0,1-4.39,6.88,5.75,5.75,0,0,0-3,1,45.24,45.24,0,0,0,6.08-10.41C34.84,464.65,36.52,457.5,37.15,457.63Z" transform="translate(-8.81 -4.98)"/><path class="cls-10" d="M9.5,478.5q.4,9.51,1,19A40.38,40.38,0,0,1,9.5,478.5Z" transform="translate(-8.81 -4.98)"/><path class="cls-6" d="M244,498.21q21.5-.51,42.51-.71c-.33.67-.67,1.33-1,2q-39.51.6-79,2l-2.1-1-1-1.06Q223.48,498.7,244,498.21Z" transform="translate(-8.81 -4.98)"/><path class="cls-11" d="M285.5,507.5q-2.17,25.54-5,51a72.11,72.11,0,0,0-3,20,109.38,109.38,0,0,0-2.5,35,432.62,432.62,0,0,1,14.5,80q-1,36-4,72a51.23,51.23,0,0,0-2,15,74.17,74.17,0,0,0-1,12,34.22,34.22,0,0,0-1,10,102.37,102.37,0,0,0-1,31,10.32,10.32,0,0,0,2.5,3,50.56,50.56,0,0,1,0,11q6.39.63,7.5,7,5.49-2.91,6,3h5a9.83,9.83,0,0,1-1,6q-14.26,9.88-28,20.5-9.79,2.87-15-5.5.25-20-.5-40a81.88,81.88,0,0,0-1.5-13,251.53,251.53,0,0,0-2.5-35q-8.94-51.6-16.5-103-1.19-24.54-3.5-49-5.22-17.91-9.5-36-9.63-50.31-17-101,39.5-1.39,79-2Z" transform="translate(-8.81 -4.98)"/><path class="cls-10" d="M23.5,489.5v21q-10.62-8.76-5.5-22,.49,7,1,14l3,4A140.81,140.81,0,0,1,23.5,489.5Z" transform="translate(-8.81 -4.98)"/><path class="cls-11" d="M182.5,504.5c-1,9.57-2.1,17.21-2.84,22-2.95,19.26-5.67,29-10.16,55-.91,5.28-1.61,9.54-2,12a248.69,248.69,0,0,1-10.5,44q-2.24,29-5,58-8,50-16,100-3.8,40.9-4,82-4.56,9.15-14.5,6.5l-27-19a7.13,7.13,0,0,1-3-7.5h6v-4a51.52,51.52,0,0,1,7,1q-1.43-6.82,5.5-7c.56-2.25,1.07-4.61,1.49-7.08a99.64,99.64,0,0,0,1-25.92c-.35-13.26-1.28-27.29-3-42q-.9-7.66-2-15c-1-8.23-1.9-18.36-2.42-30-.58-13.1-1.31-31.49,1.42-55,.64-5.52,2.06-16.41,5-30,1.7-7.86,3.47-14.62,5-20a35.7,35.7,0,0,0,2.5-7,40.75,40.75,0,0,0-.5-20c-1-3.86-2.08-14.5-4.33-35.77-2.13-20.11-1-24.39-3.9-39.66-1.49-7.79-3.21-14.1-4.45-18.28l3.18-.29a59.25,59.25,0,0,0,7.5,1.5q30.76,1.1,61.5-.5A17.79,17.79,0,0,1,182.5,504.5Z" transform="translate(-8.81 -4.98)"/><path class="cls-6" d="M100.5,498.5a69.16,69.16,0,0,0,15,2.5q34,.88,68-.5v1a2.87,2.87,0,0,1-1,3,17.79,17.79,0,0,0-8.5-2q-30.74,1.59-61.5.5a59.25,59.25,0,0,1-7.5-1.5l-3.18.29Z" transform="translate(-8.81 -4.98)"/><path class="cls-9" d="M365.5,481.5q1.25,12.24,1.5,25l3-3a114.43,114.43,0,0,1,1.5-15q4.44,13.42-6,22Z" transform="translate(-8.81 -4.98)"/><path class="cls-6" d="M124.5,601.5a46.93,46.93,0,0,1-4.5,26,10.34,10.34,0,0,1-3.5,5A96.31,96.31,0,0,0,124.5,601.5Z" transform="translate(-8.81 -4.98)"/><path class="cls-6" d="M263.5,601.5q3.4,11.06,6.5,23a14.88,14.88,0,0,0,4.5,7.5l-1,.5a16.81,16.81,0,0,1-6.5-11A70.67,70.67,0,0,1,263.5,601.5Z" transform="translate(-8.81 -4.98)"/><path class="cls-6" d="M152.5,623.5a1.83,1.83,0,0,1,2,1,25.1,25.1,0,0,0-5.5,16A21.71,21.71,0,0,1,152.5,623.5Z" transform="translate(-8.81 -4.98)"/><path class="cls-6" d="M235.5,623.5a6.87,6.87,0,0,1,4.5,5,24.72,24.72,0,0,1,1,12A36.68,36.68,0,0,0,235.5,623.5Z" transform="translate(-8.81 -4.98)"/><path class="cls-6" d="M122.5,839.5a97.64,97.64,0,0,1,3.5,16A33,33,0,0,1,122.5,839.5Z" transform="translate(-8.81 -4.98)"/><path class="cls-6" d="M265.5,839.5a3.92,3.92,0,0,1,2,3.5,96.17,96.17,0,0,1-2.5,11.5c-.89,1.21-1.73,1.21-2.5,0A48.22,48.22,0,0,0,265.5,839.5Z" transform="translate(-8.81 -4.98)"/><path class="cls-6" d="M111.5,858.5a1.1,1.1,0,0,1,1,1,133.66,133.66,0,0,0-1.5,15A19.69,19.69,0,0,1,111.5,858.5Z" transform="translate(-8.81 -4.98)"/><path class="cls-6" d="M276.5,858.5c2.28.26,3.44,1.59,3.5,4a25.13,25.13,0,0,1,0,10,4.5,4.5,0,0,1-1.5,2A37.8,37.8,0,0,0,276.5,858.5Z" transform="translate(-8.81 -4.98)"/></svg>