<svg id="Capa_1" data-name="Capa 1" xmlns="http://www.w3.org/2000/svg" viewBox="0 0 415.07 705.12"><defs><style>.cls-1{fill:#443c33;}.cls-1,.cls-10,.cls-11,.cls-2,.cls-3,.cls-4,.cls-5,.cls-6,.cls-7,.cls-8,.cls-9{fill-rule:evenodd;}.cls-2{fill:#f9d6bc;}.cls-3{fill:#d0b39f;}.cls-4{fill:#e8c8b0;}.cls-5{fill:#f9f9f9;}.cls-6{fill:#ddbfa7;}.cls-7{fill:#d1cecc;}.cls-8{fill:#e1e0de;}.cls-9{fill:#dabca7;}.cls-10{fill:#cccac7;}.cls-11{fill:#c2c2c1;}</style></defs><title>M espalda</title><path class="cls-1" d="M274.5,60.5q-41-2-82,0l-2-1q-29.31,2-43.5-24a17.64,17.64,0,0,1-1.5-7q87-.49,174,1-7,20.55-27,29.5a144,144,0,0,1-17,.5Z" transform="translate(-26.48 -28.38)"/><path class="cls-2" d="M192.5,60.5h40v222a38.17,38.17,0,0,1-28-7A113.36,113.36,0,0,1,151,235.71c-22-30.26-21.74-62-21.3-71.52a77.27,77.27,0,0,0,33.11-17.53A99.35,99.35,0,0,0,183,117.5a55.7,55.7,0,0,0,4.5-15A160.5,160.5,0,0,0,192.5,60.5Z" transform="translate(-26.48 -28.38)"/><path class="cls-3" d="M192.5,60.5q41-2,82,0h-41v222h-1V60.5Z" transform="translate(-26.48 -28.38)"/><path class="cls-4" d="M274.5,60.5v18a72.92,72.92,0,0,1-1-17h-39v221h-1V60.5Z" transform="translate(-26.48 -28.38)"/><path class="cls-2" d="M274.5,78.5q2.4,45,36,74.5a37.69,37.69,0,0,0,8,5.26,52.6,52.6,0,0,0,16,5.45,134.28,134.28,0,0,1-16.63,60.94c-5,8.89-27.93,50-69.33,56.88a73.5,73.5,0,0,1-14.05,1V61.5h39A72.92,72.92,0,0,0,274.5,78.5Z" transform="translate(-26.48 -28.38)"/><path class="cls-5" d="M363.5,175.5q-.25,40.5.5,81,2.19,20.61,6,41a54.12,54.12,0,0,0,3.5,10,29.88,29.88,0,0,1,2,7q-7.19,45.87-12,92a24.47,24.47,0,0,1-13,2q-17.52-.09-35-1a39.92,39.92,0,0,0-9-1.5q-19-.75-38-.5-39.25-.5-78,1-26,.12-52,1a266.46,266.46,0,0,0-29.5,1,10.78,10.78,0,0,1-5.5-2q-4.81-46.14-12-92a85.24,85.24,0,0,0,4.39-20.25c.19-2,.25-3.38.29-4.21.3-6.21,1-16.16,2.62-32.59q1.85-18.52,3-38.4c.91-15,1.43-29.56,1.65-43.55a4.38,4.38,0,0,1,1-3.5q8.86-3.69,18-6.5a82.68,82.68,0,0,0,10-2,138.23,138.23,0,0,0,26.5,80,106,106,0,0,0,45.5,32,64,64,0,0,0,53,2l10-4,13-7a90.28,90.28,0,0,0,36.5-36,151.28,151.28,0,0,0,16.5-65v-3a172.59,172.59,0,0,1,29,10A3.09,3.09,0,0,1,363.5,175.5Z" transform="translate(-26.48 -28.38)"/><path class="cls-6" d="M98.5,176.5a4.62,4.62,0,0,1,4-1q.5,38.25-1,76v-75Z" transform="translate(-26.48 -28.38)"/><path class="cls-2" d="M96.33,175.13l7.7-2.45c.31,6.43.6,16,.3,27.76-.18,6.81-.38,7.68-.87,17.74-1.14,23.78-.51,29.36-2,47.32A158.08,158.08,0,0,1,99,285.24a144,144,0,0,1-5,18.26L92.4,313c0-1.92-.1-4.73-.39-8.15-.38-4.51-.74-5.59-1.3-5.71-.36-.08-1.15.18-2.71,3.34q-17.18,49.72-32.5,100a298.63,298.63,0,0,0-12,37,106.05,106.05,0,0,0-7,22q-1.12,8.12-3,16a11.17,11.17,0,0,0-2,7,176,176,0,0,0-4,18q-1.76-128.25-.5-257a17.64,17.64,0,0,0,1.5-7,92.12,92.12,0,0,1,23-45.5,94.17,94.17,0,0,1,16-9c4.83-1.09,10-2.45,15.42-4.14C87.72,178.36,92.19,176.76,96.33,175.13Z" transform="translate(-26.48 -28.38)"/><path class="cls-2" d="M361.59,172.1c7.1,2.76,14.61,5.47,22.53,8.06q10,3.26,19.38,5.84A62.3,62.3,0,0,1,431,217.5a183.33,183.33,0,0,1,9,29q2.47,131.46,1,263-7.29-26.28-13-53-8.22-24.88-15.5-50a169.73,169.73,0,0,0-8-24,31.78,31.78,0,0,0-2-6q-7.33-26.5-17-52a110.22,110.22,0,0,0-9.5-26,21.68,21.68,0,0,0-1.21,4.07,22.78,22.78,0,0,0,.37,10.12c-1.1-2.71-2.67-6.83-4.25-11.94-6.27-20.24-6.67-36.58-7-46.71C363.37,232.46,362.36,205,361.59,172.1Z" transform="translate(-26.48 -28.38)"/><path class="cls-5" d="M332.5,165.5h1a151.28,151.28,0,0,1-16.5,65,90.28,90.28,0,0,1-36.5,36Q331.32,229.39,332.5,165.5Z" transform="translate(-26.48 -28.38)"/><path class="cls-7" d="M190.5,406.5q38.75-1.5,78-1,23.24,1.51,47,2,17.49.92,35,1a2.87,2.87,0,0,0,3,1v1q-47.46-2.58-95-3a254.26,254.26,0,0,0-45,0h-20A2.87,2.87,0,0,0,190.5,406.5Z" transform="translate(-26.48 -28.38)"/><path class="cls-8" d="M268.5,405.5q19-.25,38,.5a39.92,39.92,0,0,1,9,1.5Q291.74,407,268.5,405.5Z" transform="translate(-26.48 -28.38)"/><path class="cls-2" d="M193.5,407.5h39l.12,204.14c-29.24-1.57-51.61-2.24-66.87-2.57-27.32-.58-31.59,0-40.7-2.51a121,121,0,0,0-29.79-4.95c-3.18-.11-5.79-.06-7.51,0,2.45-3.45,16.63-23.53,25.54-41.64,2.87-5.84,6.11-12.37,7.21-21.46a56.22,56.22,0,0,0-1-19,54.76,54.76,0,0,0-1-12q-1-7-2-14c-.94-12.94-2.44-26.84-4.69-41.54-2.34-15.25-5.2-29.43-8.31-42.46,2.08,0,5.2,0,9,0,13.46-.14,22.81-.84,28.63-1.21C153,407.54,166.53,407.53,193.5,407.5Z" transform="translate(-26.48 -28.38)"/><path class="cls-9" d="M213.5,407.5a254.26,254.26,0,0,1,45,0h-24l.74,202.61-2.4-1.09L232.5,407.5Z" transform="translate(-26.48 -28.38)"/><path class="cls-2" d="M258.5,407.5c23.14,0,36.28.76,53.09,1.14,12.37.28,30.11.51,51.91.23-4.34,19.11-8.31,39.84-11.54,62.05-3.11,21.39-5.17,41.66-6.46,60.58a63.13,63.13,0,0,0,5.5,24c5.14,11.53,7.94,18.71,7.94,18.71,3,6.47,7,14.86,12.07,24.66l-1.23.11q-20.68,1.92-40.51,5.67l-94,9-.74-206.1Z" transform="translate(-26.48 -28.38)"/><path class="cls-7" d="M103.5,406.5a10.78,10.78,0,0,0,5.5,2,266.46,266.46,0,0,1,29.5-1q-12.76,1.17-26,2h-9Z" transform="translate(-26.48 -28.38)"/><path class="cls-7" d="M190.5,406.5a2.87,2.87,0,0,1,3,1q-40.53.64-81,3v-1q13.23-.83,26-2Q164.5,406.63,190.5,406.5Z" transform="translate(-26.48 -28.38)"/><path class="cls-10" d="M363.5,406.5v3h-10a2.87,2.87,0,0,1-3-1A24.47,24.47,0,0,0,363.5,406.5Z" transform="translate(-26.48 -28.38)"/><path class="cls-5" d="M368.5,598.5a4.38,4.38,0,0,1,3.5,1,393.63,393.63,0,0,1,24.5,54q3.5,10,7,20l4,13c1.09,5.46,2.41,11.14,4,17,.65,2.39,1.31,4.72,2,7q2.19,8.93,4,18v4q-189,1-377-2a87.68,87.68,0,0,1,3-20l2-7,12-42a261,261,0,0,1,30.5-61,15.86,15.86,0,0,0,6.5,1,702,702,0,0,0,83,7.5q39,.75,78-.5l73-5,6-1Q351.78,601.07,368.5,598.5Z" transform="translate(-26.48 -28.38)"/><path class="cls-11" d="M417.5,728.5a6.89,6.89,0,0,1,1,5H39.5a2.87,2.87,0,0,1,1-3q188,3,377,2Z" transform="translate(-26.48 -28.38)"/></svg>