<svg id="Capa_1" data-name="Capa 1" xmlns="http://www.w3.org/2000/svg" viewBox="0 0 512.86 530.62"><defs><style>.cls-1{fill:#939393;}.cls-1,.cls-10,.cls-11,.cls-12,.cls-13,.cls-14,.cls-15,.cls-16,.cls-17,.cls-18,.cls-19,.cls-2,.cls-3,.cls-4,.cls-5,.cls-6,.cls-7,.cls-8,.cls-9{fill-rule:evenodd;}.cls-2{fill:#f6d3b9;}.cls-3{fill:#fbe5d5;}.cls-4{fill:#edbfa6;}.cls-5{fill:#e9b69d;}.cls-6{fill:#e8b39b;}.cls-7{fill:#f7e1d0;}.cls-8{fill:#f9d6bc;}.cls-9{fill:#fbe6d5;}.cls-10{fill:#f6d3ba;}.cls-11{fill:#fbe5d4;}.cls-12{fill:#f1c3a9;}.cls-13{fill:#e7b49b;}.cls-14{fill:#f6d4ba;}.cls-15{fill:#ebb69d;}.cls-16{fill:#f6c9ae;}.cls-17{fill:#f9e2d1;}.cls-18{fill:#f5dfcf;}.cls-19{fill:#f5c4a9;}</style></defs><title>Pies P</title><path class="cls-1" d="M-.5,209.5a2.23,2.23,0,0,1,1.5,1q1,62,0,124a2.23,2.23,0,0,1-1.5,1Z" transform="translate(0.5 -9.88)"/><path class="cls-2" d="M97.5,43.5a10.83,10.83,0,0,1,9,6q10.53,27,21,54a156.16,156.16,0,0,1-23,1,17.67,17.67,0,0,0-8,2,3.21,3.21,0,0,1-4.5,0,41.25,41.25,0,0,0-14-27,9,9,0,0,0-3.5-7,41.38,41.38,0,0,1-2.5-21,17.75,17.75,0,0,1,8.5-6A56.9,56.9,0,0,1,97.5,43.5Z" transform="translate(0.5 -9.88)"/><path class="cls-3" d="M85.5,47.5h15a78.58,78.58,0,0,1-3,12,119.84,119.84,0,0,1-14-5.5,3.92,3.92,0,0,1-1-2A20.77,20.77,0,0,1,85.5,47.5Z" transform="translate(0.5 -9.88)"/><path class="cls-4" d="M144.5,94.5a20.81,20.81,0,0,1-1-9,2.23,2.23,0,0,1,1.5,1A162.76,162.76,0,0,1,162.5,85q8.56-1.92,17-3a88.42,88.42,0,0,1-35,6.5Z" transform="translate(0.5 -9.88)"/><path class="cls-5" d="M74.5,72.5a9,9,0,0,1,3.5,7,41.25,41.25,0,0,1,14,27,3.21,3.21,0,0,0,4.5,0,2.87,2.87,0,0,1,3,1,69.84,69.84,0,0,0-9,3c-.67-2.33-1.33-4.67-2-7a17.06,17.06,0,0,0-3.5-12,32.33,32.33,0,0,0-13.5-12,4.86,4.86,0,0,0,4-1A12,12,0,0,1,74.5,72.5Z" transform="translate(0.5 -9.88)"/><path class="cls-6" d="M145.5,95.5q12-.25,24,.5a175.33,175.33,0,0,0,18,4.5,74.17,74.17,0,0,1-12-1q-12-.9-24-1h-6Z" transform="translate(0.5 -9.88)"/><path class="cls-6" d="M145.5,98.5h6l11,2h-15Z" transform="translate(0.5 -9.88)"/><path class="cls-7" d="M151.5,98.5q12,.1,24,1a12.86,12.86,0,0,1-7,1h-6Z" transform="translate(0.5 -9.88)"/><path class="cls-7" d="M147.5,100.5h21q13.31,1.29,27,3a40.25,40.25,0,0,1,12,1c1.21.77,1.21,1.61,0,2.5a27.85,27.85,0,0,1-18-1q-15.28-.93-30.5-2.5a24.75,24.75,0,0,0-12.5,5.5,121.54,121.54,0,0,0-66,13,72.05,72.05,0,0,1-23,17A249.87,249.87,0,0,1,42,159.5q-6,11.19-12.5,22-8.12,6.67-16.5,13a5,5,0,0,1-.5-3l1-2a91.51,91.51,0,0,0,26.5-35A164.55,164.55,0,0,1,60.5,132q14.85-11.13,30-21.5a69.84,69.84,0,0,1,9-3q13.71-.89,27-2A46.2,46.2,0,0,0,147.5,100.5Z" transform="translate(0.5 -9.88)"/><path class="cls-6" d="M175.5,99.5a74.17,74.17,0,0,0,12,1,8.12,8.12,0,0,1,8,3q-13.69-1.71-27-3A12.86,12.86,0,0,0,175.5,99.5Z" transform="translate(0.5 -9.88)"/><path class="cls-8" d="M157.5,14.5a31.16,31.16,0,0,1,22,5.5L198,42.5a63,63,0,0,1,7,17,449.59,449.59,0,0,1,5,49,163.4,163.4,0,0,1,6.5,16,8.39,8.39,0,0,1-.5,4A67.27,67.27,0,0,0,172.5,109q14.34,5.28,29,10a168.21,168.21,0,0,1,20,17.5,5.75,5.75,0,0,1,1,3q1,6,2,12-.8,41.91,0,86,.36,18.7,1,37c0,.53,0,.86,0,1,0,14.9,7.05,48.11,10,73,0,0,3.11,26.22,1,48-.28,2.91-.48,4.72-.48,4.72-.41,3.84-.63,5.21-1,10.11-.67,8.19-.77,14.86-.75,19.2-.29-.55-.68-1.14-1.1-1.11-1.5.11-2.06,7.94-2.23,10.18a76.93,76.93,0,0,0,.09,11.9,44.89,44.89,0,0,1,8,33,114.4,114.4,0,0,0-5.5,17.5q.48,5.28,5,3.5-14.7,35.12-53,35-12,0-24-1a40.72,40.72,0,0,1-5.7-1.63,41.35,41.35,0,0,1-5.3-2.37,35.4,35.4,0,0,1-15.5-13,174.67,174.67,0,0,1-33-86q-18.59-42-38.5-83a16.33,16.33,0,0,0-2-5,2.38,2.38,0,0,0,1-2,282.6,282.6,0,0,0-14.5-46q-11.41-23.33-22-47-8.43-27.74-15-56a127.56,127.56,0,0,0-.5,16,55,55,0,0,1-.5-18,11.87,11.87,0,0,1,2.5-4,5,5,0,0,0,.5,3q8.38-6.31,16.5-13,6.55-10.81,12.5-22A249.87,249.87,0,0,0,57.5,139a72.05,72.05,0,0,0,23-17,121.54,121.54,0,0,1,66-13,24.75,24.75,0,0,1,12.5-5.5q15.21,1.57,30.5,2.5a27.85,27.85,0,0,0,18,1c1.21-.89,1.21-1.73,0-2.5a40.25,40.25,0,0,0-12-1,8.12,8.12,0,0,0-8-3,175.33,175.33,0,0,1-18-4.5q-12-.75-24-.5a.88.88,0,0,1-1-1v-6a88.42,88.42,0,0,0,35-6.5q-8.43,1.08-17,3A162.76,162.76,0,0,0,145,86.5a2.23,2.23,0,0,0-1.5-1,46.89,46.89,0,0,1-13-27,126.13,126.13,0,0,1-2-24,14.21,14.21,0,0,1,5-11.5,64,64,0,0,1,7.32-3.1c1.47-.52,2.23-.73,4.05-1.43,2.77-1.06,3.7-1.61,5.29-2.24A26.79,26.79,0,0,1,157.5,14.5Z" transform="translate(0.5 -9.88)"/><path class="cls-9" d="M160.5,21.5a17.75,17.75,0,0,1,12,2.5,51.7,51.7,0,0,1,11,20.5,198.74,198.74,0,0,1-42-13,4.38,4.38,0,0,1,1-3.5Q151.6,24.55,160.5,21.5Z" transform="translate(0.5 -9.88)"/><path class="cls-5" d="M104.5,104.5l14.92-.28,8.08-.72.35,1.88L99.5,107.5a2.87,2.87,0,0,0-3-1A17.8,17.8,0,0,1,104.5,104.5Z" transform="translate(0.5 -9.88)"/><path class="cls-10" d="M71.5,79.5A32.33,32.33,0,0,1,85,91.5a17.06,17.06,0,0,1,3.5,12,13.14,13.14,0,0,1-1,7,57.49,57.49,0,0,0-9,5,38.71,38.71,0,0,1-16,4,12.66,12.66,0,0,0-4-7,21.86,21.86,0,0,0-9.5-7,8.39,8.39,0,0,0-.5,4,17.86,17.86,0,0,1,10,5q2.69,6.14,5,12.5a1.91,1.91,0,0,1-2,1.5,33.51,33.51,0,0,0-16,12.5,28,28,0,0,1-13,6.5,13,13,0,0,1-7-10,67.39,67.39,0,0,1-.5-18,20.14,20.14,0,0,1,7.5-7.5q7.36-2.07,14.5-4.5a103.63,103.63,0,0,1,5-24A36.17,36.17,0,0,1,56.5,80,112.14,112.14,0,0,1,71.5,79.5Z" transform="translate(0.5 -9.88)"/><path class="cls-5" d="M58.5,112.5v2a17.86,17.86,0,0,0-10-5,8.39,8.39,0,0,1,.5-4A21.86,21.86,0,0,1,58.5,112.5Z" transform="translate(0.5 -9.88)"/><path class="cls-3" d="M59.5,84.5a66.92,66.92,0,0,1,18.5,6,5,5,0,0,1,.5,3,148.49,148.49,0,0,0-19,4Z" transform="translate(0.5 -9.88)"/><path class="cls-11" d="M39.5,111.5a50,50,0,0,1,10,.5,2.68,2.68,0,0,1,1.5,3.5,34.39,34.39,0,0,1-7.5,1.5,19.66,19.66,0,0,1-14,6.5c1.26-2.63,2.43-5.29,3.5-8A18.83,18.83,0,0,0,39.5,111.5Z" transform="translate(0.5 -9.88)"/><path class="cls-12" d="M216.5,124.5a65.08,65.08,0,0,1,5,12,168.21,168.21,0,0,0-20-17.5q-14.66-4.73-29-10A67.27,67.27,0,0,1,216,128.5,8.39,8.39,0,0,0,216.5,124.5Z" transform="translate(0.5 -9.88)"/><path class="cls-13" d="M61.5,128.5a136.51,136.51,0,0,0-23,25,25.89,25.89,0,0,1-6-6,28,28,0,0,0,13-6.5A33.51,33.51,0,0,1,61.5,128.5Z" transform="translate(0.5 -9.88)"/><path class="cls-14" d="M22.5,144.5a21.35,21.35,0,0,1,11,8,23,23,0,0,1-10,16.5,63.16,63.16,0,0,1-13,7.5,53.53,53.53,0,0,1-1.5-21A17.53,17.53,0,0,1,22.5,144.5Z" transform="translate(0.5 -9.88)"/><path class="cls-11" d="M15.5,149.5a20.93,20.93,0,0,1,.5,11,9.23,9.23,0,0,1-3.5,6,17.23,17.23,0,0,1-.5-10Z" transform="translate(0.5 -9.88)"/><path class="cls-15" d="M33.5,152.5a4.69,4.69,0,0,1,4,3,85.49,85.49,0,0,1-23.5,32,5.5,5.5,0,0,0-1.5-3,18.92,18.92,0,0,1-2-8,63.16,63.16,0,0,0,13-7.5A23,23,0,0,0,33.5,152.5Z" transform="translate(0.5 -9.88)"/><path class="cls-5" d="M88.5,103.5c.67,2.33,1.33,4.67,2,7q-15.15,10.38-30,21.5A164.55,164.55,0,0,0,40,154.5a91.51,91.51,0,0,1-26.5,35,9.2,9.2,0,0,1-1-5,5.5,5.5,0,0,1,1.5,3,85.49,85.49,0,0,0,23.5-32,4.69,4.69,0,0,0-4-3,21.35,21.35,0,0,0-11-8,2.87,2.87,0,0,1,3-1v-6a13,13,0,0,0,7,10,25.89,25.89,0,0,0,6,6,136.51,136.51,0,0,1,23-25,1.91,1.91,0,0,0,2-1.5q-2.31-6.36-5-12.5v-2a12.66,12.66,0,0,1,4,7,11.35,11.35,0,0,1,2,6,34.72,34.72,0,0,0,14-10,57.49,57.49,0,0,1,9-5A13.14,13.14,0,0,0,88.5,103.5Z" transform="translate(0.5 -9.88)"/><path class="cls-5" d="M78.5,115.5a34.72,34.72,0,0,1-14,10,11.35,11.35,0,0,0-2-6A38.71,38.71,0,0,0,78.5,115.5Z" transform="translate(0.5 -9.88)"/><path class="cls-16" d="M143.5,172.5a16.36,16.36,0,0,1,11.5,7l5,10q3.69,14.58,8,29a351.37,351.37,0,0,1,40,130q1,23,0,46a5.89,5.89,0,0,1-5.5.5A153.87,153.87,0,0,1,189,355.5Q184.62,336,167.5,326a7,7,0,0,1-2.5-3.5,76.81,76.81,0,0,0-4-28,18.33,18.33,0,0,0-11.5-6.5,115.12,115.12,0,0,0-21-3.5,28.7,28.7,0,0,0-2.5-11l-9-20a72.14,72.14,0,0,1,0-17A685.15,685.15,0,0,1,143.5,172.5Z" transform="translate(0.5 -9.88)"/><path class="cls-17" d="M61.5,348.5q-5.64-12.78-12-25Q32,286.06,17,247.5a203,203,0,0,1-6.5-34,127.56,127.56,0,0,1,.5-16q6.57,28.27,15,56,10.59,23.69,22,47a282.6,282.6,0,0,1,14.5,46A2.38,2.38,0,0,1,61.5,348.5Z" transform="translate(0.5 -9.88)"/><path class="cls-18" d="M234.5,430.5a41.3,41.3,0,0,1,1.21,4.19,39.92,39.92,0,0,1,.79,4.81l8,27a44.91,44.91,0,0,1-1,23,92.44,92.44,0,0,1-5,16q-4.53,1.77-5-3.5a114.4,114.4,0,0,1,5.5-17.5,44.89,44.89,0,0,0-8-33,68.17,68.17,0,0,1,2-24A5.5,5.5,0,0,0,234.5,430.5Z" transform="translate(0.5 -9.88)"/><path class="cls-19" d="M138.5,461.5a70.41,70.41,0,0,1,31,6.5,25.74,25.74,0,0,1,9.5,16.5,65.52,65.52,0,0,0,7,12,271.65,271.65,0,0,0,21,18q6,7.44-2.5,11.5-24.85,10.25-48-3A77.25,77.25,0,0,1,137,506.5a10.46,10.46,0,0,1-1.5-5,129,129,0,0,0,0-27.5c.33-3.5.67-7,1-10.5A3,3,0,0,0,138.5,461.5Z" transform="translate(0.5 -9.88)"/><path class="cls-2" d="M440.43,41.12a17.75,17.75,0,0,1,8.5,6,41.41,41.41,0,0,1-2.5,21,9,9,0,0,0-3.5,7,41.2,41.2,0,0,0-14,27,3.22,3.22,0,0,1-4.5,0,17.64,17.64,0,0,0-8-2,157.61,157.61,0,0,1-23-1q10.47-27,21-54a10.83,10.83,0,0,1,9-6A56.54,56.54,0,0,1,440.43,41.12Z" transform="translate(0.5 -9.88)"/><path class="cls-3" d="M438.43,47.62a4,4,0,0,1-1,2,121.64,121.64,0,0,1-14,5.5,79.17,79.17,0,0,1-3-12h15A20.29,20.29,0,0,1,438.43,47.62Z" transform="translate(0.5 -9.88)"/><path class="cls-4" d="M376.43,84.12a88.59,88.59,0,0,1-35-6.5q8.44,1.08,17,3a162.76,162.76,0,0,1,17.5,1.5,2.27,2.27,0,0,1,1.5-1,20.81,20.81,0,0,1-1,9Z" transform="translate(0.5 -9.88)"/><path class="cls-5" d="M445.43,74.12a4.89,4.89,0,0,0,4,1,32.2,32.2,0,0,0-13.5,12,17.11,17.11,0,0,0-3.5,12q-1,3.5-2,7a69.84,69.84,0,0,0-9-3,2.85,2.85,0,0,1,3-1,3.22,3.22,0,0,0,4.5,0,41.2,41.2,0,0,1,14-27,9,9,0,0,1,3.5-7A12,12,0,0,1,445.43,74.12Z" transform="translate(0.5 -9.88)"/><path class="cls-6" d="M375.43,94.12h-6q-12,.09-24,1a74,74,0,0,1-12,1,180.68,180.68,0,0,0,18-4.5q12-.75,24-.5Z" transform="translate(0.5 -9.88)"/><path class="cls-6" d="M373.43,96.12h-15l11-2h6Z" transform="translate(0.5 -9.88)"/><path class="cls-7" d="M358.43,96.12h-6a13,13,0,0,1-7-1q12-.9,24-1Z" transform="translate(0.5 -9.88)"/><path class="cls-7" d="M394.43,101.12q13.29,1.11,27,2a69.84,69.84,0,0,1,9,3q15.15,10.36,30,21.5a162.75,162.75,0,0,1,20.5,22.5,91.58,91.58,0,0,0,26.5,35c.34.66.67,1.33,1,2a5,5,0,0,1-.5,3q-8.39-6.33-16.5-13-6.54-10.81-12.5-22a251.59,251.59,0,0,1-15.5-20.5,72.2,72.2,0,0,1-23-17,121.45,121.45,0,0,0-66-13,24.75,24.75,0,0,0-12.5-5.5q-15.21,1.56-30.5,2.5a27.91,27.91,0,0,1-18,1q-1.81-1.35,0-2.5a39.93,39.93,0,0,1,12-1q13.69-1.71,27-3h21A46.33,46.33,0,0,0,394.43,101.12Z" transform="translate(0.5 -9.88)"/><path class="cls-6" d="M352.43,96.12q-13.31,1.29-27,3a8.09,8.09,0,0,1,8-3,74,74,0,0,0,12-1A13,13,0,0,0,352.43,96.12Z" transform="translate(0.5 -9.88)"/><path class="cls-8" d="M370.77,11.84c1.59.63,2.52,1.19,5.29,2.25,1.82.69,2.58.9,4.05,1.42a65.52,65.52,0,0,1,7.32,3.11,14.2,14.2,0,0,1,5,11.5,126.13,126.13,0,0,1-2,24,46.89,46.89,0,0,1-13,27,2.27,2.27,0,0,0-1.5,1,162.76,162.76,0,0,0-17.5-1.5q-8.56-1.92-17-3a88.59,88.59,0,0,0,35,6.5v6a.89.89,0,0,1-1,1q-12-.25-24,.5a180.68,180.68,0,0,1-18,4.5,8.09,8.09,0,0,0-8,3,39.93,39.93,0,0,0-12,1q-1.81,1.16,0,2.5a27.91,27.91,0,0,0,18-1q15.29-.95,30.5-2.5a24.75,24.75,0,0,1,12.5,5.5,121.45,121.45,0,0,1,66,13,72.2,72.2,0,0,0,23,17,251.59,251.59,0,0,0,15.5,20.5q6,11.19,12.5,22,8.11,6.67,16.5,13a5,5,0,0,0,.5-3,11.87,11.87,0,0,1,2.5,4,55,55,0,0,1-.5,18,127.5,127.5,0,0,0-.5-16q-6.57,28.26-15,56-10.59,23.67-22,47a283.27,283.27,0,0,0-14.5,46,2.39,2.39,0,0,0,1,2,16.23,16.23,0,0,0-2,5q-19.9,41-38.5,83a174.71,174.71,0,0,1-33,86,35.48,35.48,0,0,1-15.5,13,41.48,41.48,0,0,1-5.3,2.37,42.13,42.13,0,0,1-5.7,1.63q-12,1-24,1-38.3.11-53-35,4.53,1.77,5-3.5a113,113,0,0,0-5.5-17.5,44.94,44.94,0,0,1,8-33,75.69,75.69,0,0,0,.09-11.9c-.16-2.24-.73-10.07-2.23-10.18-.42,0-.81.55-1.09,1.1,0-4.33-.09-11-.76-19.19-.4-4.9-.61-6.28-1-10.11,0,0-.2-1.81-.48-4.72-2.11-21.79,1-48,1-48,3-24.9,10-58.1,10-73,0-.14,0-.48,0-1q.65-18.3,1-37,.84-44.07,0-86,1-6,2-12a5.75,5.75,0,0,1,1-3,168.1,168.1,0,0,1,20-17.5q14.67-4.73,29-10a67.27,67.27,0,0,0-43.5,19.5,8.54,8.54,0,0,1-.5-4,165.92,165.92,0,0,1,6.5-16,449.33,449.33,0,0,1,5-49,63,63,0,0,1,7-17l18.5-22.5a31.12,31.12,0,0,1,22-5.5A27.13,27.13,0,0,1,370.77,11.84Z" transform="translate(0.5 -9.88)"/><path class="cls-9" d="M378.43,23.62a4.37,4.37,0,0,1,1,3.5,199.32,199.32,0,0,1-42,13,51.83,51.83,0,0,1,11-20.5,17.69,17.69,0,0,1,12-2.5Q369.33,20.17,378.43,23.62Z" transform="translate(0.5 -9.88)"/><path class="cls-5" d="M424.43,102.12a2.85,2.85,0,0,0-3,1L393.08,101l.35-1.88,8.08.71,14.92.29A17.64,17.64,0,0,1,424.43,102.12Z" transform="translate(0.5 -9.88)"/><path class="cls-10" d="M464.43,75.62a35.25,35.25,0,0,1,4.5,3.5,103.63,103.63,0,0,1,5,24q7.14,2.43,14.5,4.5a20.14,20.14,0,0,1,7.5,7.5,67,67,0,0,1-.5,18,13,13,0,0,1-7,10,28.1,28.1,0,0,1-13-6.5,33.4,33.4,0,0,0-16-12.5,1.91,1.91,0,0,1-2-1.5q2.31-6.37,5-12.5a17.89,17.89,0,0,1,10-5,8.38,8.38,0,0,0-.5-4,21.86,21.86,0,0,0-9.5,7,12.66,12.66,0,0,0-4,7,38.86,38.86,0,0,1-16-4,56.69,56.69,0,0,0-9-5,13.15,13.15,0,0,1-1-7,17.11,17.11,0,0,1,3.5-12,32.2,32.2,0,0,1,13.5-12A112.14,112.14,0,0,1,464.43,75.62Z" transform="translate(0.5 -9.88)"/><path class="cls-5" d="M471.93,101.12a8.38,8.38,0,0,1,.5,4,17.89,17.89,0,0,0-10,5v-2A21.86,21.86,0,0,1,471.93,101.12Z" transform="translate(0.5 -9.88)"/><path class="cls-3" d="M461.43,93.12a145.14,145.14,0,0,0-19-4,4.93,4.93,0,0,1,.5-3,66.36,66.36,0,0,1,18.5-6Z" transform="translate(0.5 -9.88)"/><path class="cls-11" d="M487.93,111.12q1.6,4,3.5,8a19.72,19.72,0,0,1-14-6.5,34.63,34.63,0,0,1-7.5-1.5,2.67,2.67,0,0,1,1.5-3.5,50,50,0,0,1,10-.5A19.08,19.08,0,0,0,487.93,111.12Z" transform="translate(0.5 -9.88)"/><path class="cls-12" d="M304.93,124.12a67.27,67.27,0,0,1,43.5-19.5q-14.34,5.28-29,10a168.1,168.1,0,0,0-20,17.5,65.08,65.08,0,0,1,5-12A8.54,8.54,0,0,0,304.93,124.12Z" transform="translate(0.5 -9.88)"/><path class="cls-13" d="M475.43,136.62a28.1,28.1,0,0,0,13,6.5,25.51,25.51,0,0,1-6,6,136.16,136.16,0,0,0-23-25A33.4,33.4,0,0,1,475.43,136.62Z" transform="translate(0.5 -9.88)"/><path class="cls-14" d="M511.93,151.12a53.15,53.15,0,0,1-1.5,21,64.36,64.36,0,0,1-13-7.5,23,23,0,0,1-10-16.5,21.35,21.35,0,0,1,11-8A17.48,17.48,0,0,1,511.93,151.12Z" transform="translate(0.5 -9.88)"/><path class="cls-11" d="M508.93,152.12a17.15,17.15,0,0,1-.5,10,9.28,9.28,0,0,1-3.5-6,20.92,20.92,0,0,1,.5-11Q507.14,148.54,508.93,152.12Z" transform="translate(0.5 -9.88)"/><path class="cls-15" d="M497.43,164.62a64.36,64.36,0,0,0,13,7.5,19,19,0,0,1-2,8,5.5,5.5,0,0,0-1.5,3,85.67,85.67,0,0,1-23.5-32,4.69,4.69,0,0,1,4-3A23,23,0,0,0,497.43,164.62Z" transform="translate(0.5 -9.88)"/><path class="cls-5" d="M433.43,106.12a56.69,56.69,0,0,1,9,5,34.72,34.72,0,0,0,14,10,11.38,11.38,0,0,1,2-6,12.66,12.66,0,0,1,4-7v2q-2.69,6.12-5,12.5a1.91,1.91,0,0,0,2,1.5,136.16,136.16,0,0,1,23,25,25.51,25.51,0,0,0,6-6,13,13,0,0,0,7-10v6a2.85,2.85,0,0,1,3,1,21.35,21.35,0,0,0-11,8,4.69,4.69,0,0,0-4,3,85.67,85.67,0,0,0,23.5,32,5.5,5.5,0,0,1,1.5-3,9.13,9.13,0,0,1-1,5,91.58,91.58,0,0,1-26.5-35,162.75,162.75,0,0,0-20.5-22.5q-14.85-11.13-30-21.5,1-3.51,2-7A13.15,13.15,0,0,0,433.43,106.12Z" transform="translate(0.5 -9.88)"/><path class="cls-5" d="M458.43,115.12a11.38,11.38,0,0,0-2,6,34.72,34.72,0,0,1-14-10A38.86,38.86,0,0,0,458.43,115.12Z" transform="translate(0.5 -9.88)"/><path class="cls-16" d="M403.93,232.12a72.14,72.14,0,0,1,0,17l-9,20a28.89,28.89,0,0,0-2.5,11,114.27,114.27,0,0,0-21,3.5,18.28,18.28,0,0,0-11.5,6.5,77,77,0,0,0-4,28,7,7,0,0,1-2.5,3.5q-17.12,9.94-21.5,29.5a154,154,0,0,1-13.5,39.5,5.92,5.92,0,0,1-5.5-.5q-1-23,0-46a351.55,351.55,0,0,1,40-130q4.31-14.43,8-29l5-10a16.35,16.35,0,0,1,11.5-7A680.24,680.24,0,0,1,403.93,232.12Z" transform="translate(0.5 -9.88)"/><path class="cls-17" d="M458.43,342.12a283.27,283.27,0,0,1,14.5-46q11.42-23.33,22-47,8.43-27.74,15-56a127.5,127.5,0,0,1,.5,16,202.18,202.18,0,0,1-6.5,34q-15,38.55-32.5,76-6.36,12.21-12,25A2.39,2.39,0,0,1,458.43,342.12Z" transform="translate(0.5 -9.88)"/><path class="cls-18" d="M287.93,423.12a67.9,67.9,0,0,1,2,24,44.94,44.94,0,0,0-8,33,113,113,0,0,1,5.5,17.5q-.46,5.26-5,3.5a93.59,93.59,0,0,1-5-16,44.69,44.69,0,0,1-2-11.46,45.15,45.15,0,0,1,1-11.54l8-27a39.6,39.6,0,0,1,.79-4.81,41.3,41.3,0,0,1,1.21-4.19A5.57,5.57,0,0,0,287.93,423.12Z" transform="translate(0.5 -9.88)"/><path class="cls-19" d="M384.43,459.12q.51,5.25,1,10.5a129,129,0,0,0,0,27.5,10.31,10.31,0,0,1-1.5,5,77.66,77.66,0,0,1-19.5,16.5q-23.13,13.23-48,3-8.44-4.07-2.5-11.5a267.94,267.94,0,0,0,21-18,65.61,65.61,0,0,0,7-12,25.7,25.7,0,0,1,9.5-16.5,70.27,70.27,0,0,1,31-6.5A3,3,0,0,0,384.43,459.12Z" transform="translate(0.5 -9.88)"/></svg>