<svg id="Capa_1" data-name="Capa 1" xmlns="http://www.w3.org/2000/svg" viewBox="0 0 415.24 704.52"><defs><style>.cls-1{fill:#f9d6bc;}.cls-1,.cls-10,.cls-11,.cls-12,.cls-13,.cls-14,.cls-15,.cls-16,.cls-17,.cls-18,.cls-19,.cls-2,.cls-20,.cls-21,.cls-22,.cls-23,.cls-24,.cls-25,.cls-26,.cls-27,.cls-28,.cls-29,.cls-3,.cls-30,.cls-31,.cls-32,.cls-33,.cls-34,.cls-35,.cls-36,.cls-37,.cls-4,.cls-5,.cls-6,.cls-7,.cls-8,.cls-9{fill-rule:evenodd;}.cls-2{fill:#ebab90;}.cls-3{fill:#f9e9dd;}.cls-4{fill:#f3e4d9;}.cls-5{fill:#fbe5d5;}.cls-6{fill:#f1b89e;}.cls-7{fill:#f1b79c;}.cls-8{fill:#f0b499;}.cls-9{fill:#f0b398;}.cls-10{fill:#eead92;}.cls-11{fill:#f4c2a8;}.cls-12{fill:#f3c2a8;}.cls-13{fill:#f3c3a8;}.cls-14{fill:#eeb89f;}.cls-15{fill:#f0baa1;}.cls-16{fill:#efaf94;}.cls-17{fill:#ecac92;}.cls-18{fill:#f4c1a6;}.cls-19{fill:#eeae93;}.cls-20{fill:#f6c9ae;}.cls-21{fill:#ecb69d;}.cls-22{fill:#f9d4b9;}.cls-23{fill:#efb095;}.cls-24{fill:#f0b197;}.cls-25{fill:#f0b297;}.cls-26{fill:#f2b99f;}.cls-27{fill:#f8d4ba;}.cls-28{fill:#ebab91;}.cls-29{fill:#edac91;}.cls-30{fill:#615956;}.cls-31{fill:#6b615c;}.cls-32{fill:#f6f6f6;}.cls-33{fill:#edeeee;}.cls-34{fill:#82756e;}.cls-35{fill:#f4f4f4;}.cls-36{fill:#6c6460;}.cls-37{fill:#f6f7f7;}</style></defs><title>H VF</title><path class="cls-1" d="M172.5,17.5q62.52-1,124,2a9.57,9.57,0,0,0-1,6,435.78,435.78,0,0,1-42,36.5A63.44,63.44,0,0,1,233,64.5a49.26,49.26,0,0,1-20.5-3q-19-19-39-37A15.47,15.47,0,0,0,172.5,17.5Z" transform="translate(-25.38 -17.25)"/><path class="cls-1" d="M293.5,49.5a14.18,14.18,0,0,0-.5,9A60.76,60.76,0,0,0,316.5,87q19.25,12.87,39,25,23.12,10.32,46,21a8.75,8.75,0,0,1,8,4,63.09,63.09,0,0,0,12,4,127.14,127.14,0,0,0,19,9.5v124a51.09,51.09,0,0,0-30-9.5,78.38,78.38,0,0,1,30,12.5v189q-19.22-55.31-38-111-4.5-.5-4,4a132.6,132.6,0,0,0-28.5,35q-10.37,39.18-17.5,79a151.23,151.23,0,0,1-19,14.5,93.58,93.58,0,0,0-18,24.5c.5,1,1.17,1.19,2,.5a93.38,93.38,0,0,1,30-32.5,2.64,2.64,0,0,1,2,2.5q-3.72,22.58-6,45,3.42,35.58,4,71.5l-6,8-39,2a121.6,121.6,0,0,0-24,3q-21.94,2.65-44,4l-42-3a72.63,72.63,0,0,1-17-2q-8.2-.69-16.51-1.45T142.5,608.5a6.89,6.89,0,0,1-5-1q-11.94-14.94-25-29-.24-53.52,2-107l4,3a184,184,0,0,1,37.5,38,9.75,9.75,0,0,0-2-7,121.47,121.47,0,0,0-34.5-32,20.76,20.76,0,0,0-5-4q-.94-21.54-2.5-43a143.81,143.81,0,0,0-40.5-64,20.79,20.79,0,0,0-2-6,3.09,3.09,0,0,0-1,3q-3.73,7.83-7.5,16-12.21,33.86-23.5,68a33,33,0,0,1-12,15v-181a55,55,0,0,1,30-12.5,30.35,30.35,0,0,0-11,0,75,75,0,0,0-19,8.5v-119a680,680,0,0,1,70-34.5q31.53-16.55,62-35A29.34,29.34,0,0,0,169,70.5l4-10a6.59,6.59,0,0,0-.5-6,53.85,53.85,0,0,0,2-10,49.45,49.45,0,0,0,1.5-10Q193.19,48.2,209.5,63a46,46,0,0,0,25,5.5,69.14,69.14,0,0,0,17.5-2,315.61,315.61,0,0,0,41-32A112.14,112.14,0,0,1,293.5,49.5Z" transform="translate(-25.38 -17.25)"/><path class="cls-2" d="M173.5,24.5q20,18,39,37a49.26,49.26,0,0,0,20.5,3A63.44,63.44,0,0,0,253.5,62a435.78,435.78,0,0,0,42-36.5,181.38,181.38,0,0,0-1,24h-1a112.14,112.14,0,0,0-.5-15,315.61,315.61,0,0,1-41,32,69.14,69.14,0,0,1-17.5,2,46,46,0,0,1-25-5.5Q193.2,48.18,176,34.5a49.45,49.45,0,0,1-1.5,10A122.48,122.48,0,0,0,173.5,24.5Z" transform="translate(-25.38 -17.25)"/><path class="cls-3" d="M293.5,49.5h1a44.59,44.59,0,0,0,10.5,19,166.47,166.47,0,0,0,31.5,26l3,2,4,2,3,2c2.05,1.27,5.13,3.08,9,5a164.6,164.6,0,0,0,15.19,6.35c4.25,1.64,9.23,3.55,14.81,5.65l3,2q7.38,2.79,15,5l8,3a70.88,70.88,0,0,0,9,3,40.81,40.81,0,0,0,9,4,32.22,32.22,0,0,1,8.5,3.32,26,26,0,0,1,2.5,1.68v11a127.14,127.14,0,0,1-19-9.5,63.09,63.09,0,0,1-12-4l-8-4q-22.87-10.68-46-21-19.75-12.12-39-25A60.76,60.76,0,0,1,293,58.5,14.18,14.18,0,0,1,293.5,49.5Z" transform="translate(-25.38 -17.25)"/><path class="cls-4" d="M172.5,54.5a6.59,6.59,0,0,1,.5,6l-4,10A29.34,29.34,0,0,1,157.5,85q-30.48,18.45-62,35a680,680,0,0,0-70,34.5v-8l11-5,4-2,10-4q5.43-2.38,11-5l10-5q27.25-13.87,55-27l6-3Q160.63,82.89,172.5,54.5Z" transform="translate(-25.38 -17.25)"/><path class="cls-5" d="M215.5,133.5a2.23,2.23,0,0,0-1-1.5q-23-.34-46-1.5-5.83-1.08-12-2.5,26.77.87,53.5-.5a9.21,9.21,0,0,1,6,4C216.69,132.44,216.52,133.1,215.5,133.5Z" transform="translate(-25.38 -17.25)"/><path class="cls-5" d="M287.5,131.5q-16.51-.25-33,.5a4.24,4.24,0,0,1-2,1.5c-1-.4-1.19-1.06-.5-2a10.84,10.84,0,0,1,5.5-4,251,251,0,0,0,38,.5q20-2.73,40-4a7.92,7.92,0,0,0-4,2Q309.24,128.48,287.5,131.5Z" transform="translate(-25.38 -17.25)"/><path class="cls-6" d="M168.5,130.5q23,1.16,46,1.5a2.23,2.23,0,0,1,1,1.5q5,5.7,10.5,11c.69.83.52,1.5-.5,2q-6.27-6-13-11.5a560.55,560.55,0,0,1-88-6.5v-3Q146.39,129,168.5,130.5Z" transform="translate(-25.38 -17.25)"/><path class="cls-7" d="M252.5,133.5a4.24,4.24,0,0,0,2-1.5q16.49-.75,33-.5,28.62-1.91,57-6v3a789.76,789.76,0,0,1-91,7.5q-5.56,5.26-11,10.5c-1-.5-1.19-1.17-.5-2Q247.55,139.19,252.5,133.5Z" transform="translate(-25.38 -17.25)"/><path class="cls-8" d="M440.5,274.5v3a78.38,78.38,0,0,0-30-12.5A51.09,51.09,0,0,1,440.5,274.5Z" transform="translate(-25.38 -17.25)"/><path class="cls-9" d="M25.5,277.5v-4a74.62,74.62,0,0,1,19-8.5,30.35,30.35,0,0,1,11,0A55,55,0,0,0,25.5,277.5Z" transform="translate(-25.38 -17.25)"/><path class="cls-10" d="M243.5,259.5q.94,15.86,3.5,32a37.18,37.18,0,0,0,7.5,10.5q15,5.19,30,11a209.67,209.67,0,0,0,70,8A50.42,50.42,0,0,0,387,301.5q6.51-13.58,13-27a25.52,25.52,0,0,1,5.5-6.5c.83-.69,1.5-.52,2,.5a55.36,55.36,0,0,0-5.5,7q-5.06,14.25-11,28Q381.55,322,361.5,327a164.91,164.91,0,0,1-67.5-7.5A292.61,292.61,0,0,1,253.5,305a46.53,46.53,0,0,0-6-5.5,51.27,51.27,0,0,0-4.5-12A138.57,138.57,0,0,1,243.5,259.5Z" transform="translate(-25.38 -17.25)"/><path class="cls-10" d="M222.5,261.5a83.72,83.72,0,0,1-2,33.5l-5,7a506.4,506.4,0,0,1-53,20,140.08,140.08,0,0,1-63,3A51.9,51.9,0,0,1,79,307.5l-15-33a31.31,31.31,0,0,1-4.5-5c.5-1,1.17-1.19,2-.5a45.49,45.49,0,0,1,7.5,8.5,138.37,138.37,0,0,0,15,29A48.46,48.46,0,0,0,103.5,320a212.9,212.9,0,0,0,110-20.5,41,41,0,0,0,6.5-12A137.57,137.57,0,0,0,222.5,261.5Z" transform="translate(-25.38 -17.25)"/><path class="cls-11" d="M197.5,366.5c1.53-1.43,1.2-2.09-1-2a36.06,36.06,0,0,1,24-5A92.26,92.26,0,0,0,197.5,366.5Z" transform="translate(-25.38 -17.25)"/><path class="cls-12" d="M398.5,359.28v1a112.78,112.78,0,0,1-4.5,23,245.13,245.13,0,0,1-11.5,27c-.28,1.12-.64,2.32-1.09,3.58a39.24,39.24,0,0,1-1.91,4.42,56.34,56.34,0,0,0-2,7,58.71,58.71,0,0,0-1.26,14.14c.2,11.73-.83,14.45-.74,26.86.11,14.29,1.72,41.68,6,77,.5,1.81,1,3.8,1.34,6,.31,1.78.52,3.46.66,5a96.22,96.22,0,0,0,5,21c.7,2.51,1.35,5.18,1.94,8q.63,3.09,1.06,6a45.87,45.87,0,0,1,1.28,4.83c.62,3,.6,4.54,1.31,7.74.36,1.6.73,2.86,1,3.63-8.19.69-16.72,1.23-25.57,1.57q-12.4.5-24,.45c2.31-3.35,4.86-6.84,7.7-10.42,2.61-3.3,5.21-6.35,7.74-9.17a.74.74,0,0,0,0-.6.78.78,0,0,0-.19-.27q-2.85,2.9-6,5.87-3.71,3.5-7.3,6.59-.27-17.4-1.29-36-1-18.47-2.71-35.67,2.28-22.41,6-45a2.66,2.66,0,0,0-.82-1.64,2.62,2.62,0,0,0-1.36-.65Q350,478,353,475.54c1.72-1.45,3.43-2.84,5.1-4.16a17,17,0,0,0-2.41.68,17.59,17.59,0,0,0-3.28,1.61q3.52-19.41,8.08-40.05Q365,413.21,370,394.28A132.6,132.6,0,0,1,398.5,359.28Z" transform="translate(-25.38 -17.25)"/><path class="cls-13" d="M71.5,362.5a143.81,143.81,0,0,1,40.5,64q1.56,21.47,2.5,43a20.76,20.76,0,0,1,5,4,.88.88,0,0,0-1,1l-4-3q-2.25,53.47-2,107a38.59,38.59,0,0,1-5.5-5l-.5,1a58.61,58.61,0,0,0,8,10,111.3,111.3,0,0,0-1,21,30.77,30.77,0,0,1,11,1q-8.09.19-16.13-.37c-1.7-.12-3.72-.46-6.87-.63-4.26-.23-7.21-.09-10,0-3.35.1-8.18.18-14.26,0l1.22-3.67c.2-1,.48-2.54.71-4.41.17-1.38.27-2.39.3-2.94a79.78,79.78,0,0,1,1-9,81.19,81.19,0,0,1,2-9c1.29-4.59,2.6-16.86,3-49a252.54,252.54,0,0,1-.5-31q3-15.4,4.5-31c.41-2.84.85-5.73,1.34-8.66.52-3.19,1.08-6.3,1.66-9.34a89.13,89.13,0,0,0,.5-23q-7.83-21.24-16.5-42a23.07,23.07,0,0,1-1.26-3.41,23.71,23.71,0,0,1-.74-3.59A44.7,44.7,0,0,1,71.5,362.5Z" transform="translate(-25.38 -17.25)"/><path class="cls-14" d="M440.5,466.5a399,399,0,0,1-1,40q-.53-16.62-2-33a11.17,11.17,0,0,0-2-7q-11.88-21.75-22-44a27.69,27.69,0,0,1-1.84-4.42,28.44,28.44,0,0,1-.76-3,15.35,15.35,0,0,0-1-2.66s-.23-.57-1.39-3.62c-.76-2-1.14-4.14-1.9-8.47a61.85,61.85,0,0,1-1.12-7.85,22.93,22.93,0,0,0-.37-4.76c-.36-1.65-.84-3.41-.84-3.41-.14-.51-.21-.74-.34-1.26-.28-1.1-.46-2-.61-2.81a48,48,0,0,1-.84-6.76c0-1.77-.13-3.67-.34-5.69A67.34,67.34,0,0,0,401,360.5c-.77-1.1-1.6-1.1-2.5,0v-1q-.5-4.5,4-4Q421.28,411.2,440.5,466.5Z" transform="translate(-25.38 -17.25)"/><path class="cls-15" d="M68.5,359.5q-4.64,22.71-10,45-10.17,19.85-21,39,11.3-34.15,23.5-68Q64.77,367.33,68.5,359.5Z" transform="translate(-25.38 -17.25)"/><path class="cls-16" d="M196.5,364.5c2.2-.09,2.53.57,1,2q-21.94,11-43,23.5-11.12,3.19-22,7a8.72,8.72,0,0,1-7-.5,224.43,224.43,0,0,0,28-9.5Q174.67,374.91,196.5,364.5Z" transform="translate(-25.38 -17.25)"/><path class="cls-16" d="M259.5,362.5a2.38,2.38,0,0,1,2-1,98.2,98.2,0,0,1,25,11l31,16.5a251.58,251.58,0,0,0,25,7.5,11.22,11.22,0,0,1-8,.5l-22-7q-17.75-9.62-35-20Q268.58,365.79,259.5,362.5Z" transform="translate(-25.38 -17.25)"/><path class="cls-17" d="M58.5,404.5c0,.57-.13,1.43-.31,2.47-.46,2.73-1.19,4.56-2.69,8.53-1,2.7-1.54,4.05-1.77,4.74a74.46,74.46,0,0,0-2.23,8.26,14.64,14.64,0,0,1-.92,2,15.24,15.24,0,0,1-2.08,3,35.86,35.86,0,0,0-8.5,13,55.52,55.52,0,0,1-9.5,12l-5,4v-4a33,33,0,0,0,12-15Q48.33,424.35,58.5,404.5Z" transform="translate(-25.38 -17.25)"/><path class="cls-18" d="M209.5,438.5l-30,2a194.76,194.76,0,0,1-26-1.5,6.87,6.87,0,0,1-3-1.5l1.5-1Q180.68,438.81,209.5,438.5Z" transform="translate(-25.38 -17.25)"/><path class="cls-19" d="M179.5,440.5l30-2a20.29,20.29,0,0,0,15-3.5,15.93,15.93,0,0,0,4.5-8.5q2,11.56-9.5,14.5A395.37,395.37,0,0,1,179.5,440.5Z" transform="translate(-25.38 -17.25)"/><path class="cls-10" d="M249.5,437.5a8.8,8.8,0,0,0,4,1.5l37,1a39.92,39.92,0,0,0-9,1.5,229.76,229.76,0,0,1-35-1.5,16.57,16.57,0,0,1-5.5-13.5l5,9A3.93,3.93,0,0,0,249.5,437.5Z" transform="translate(-25.38 -17.25)"/><path class="cls-20" d="M281.5,441.5a39.92,39.92,0,0,1,9-1.5l-37-1a8.8,8.8,0,0,1-4-1.5q34,.45,68-1l3,1a29.55,29.55,0,0,0-5,2.5A306.41,306.41,0,0,1,281.5,441.5Z" transform="translate(-25.38 -17.25)"/><path class="cls-21" d="M51.06,429.59,48.5,434.5q-6.11,15.83-11,32-.41,1.94-.9,4-.69,2.81-1.47,5.36-1.38,3.67-2.63,7.65a142.82,142.82,0,0,0-6,31,341.3,341.3,0,0,1-1-37q3.38-8.65,7-17.5a1.91,1.91,0,0,0-2-1.5,55.52,55.52,0,0,0,9.5-12,57.72,57.72,0,0,1,11.06-16.91Z" transform="translate(-25.38 -17.25)"/><path class="cls-22" d="M30.5,458.5a1.91,1.91,0,0,1,2,1.5q-3.63,8.85-7,17.5v-15Z" transform="translate(-25.38 -17.25)"/><path class="cls-23" d="M347.5,480.5a93.38,93.38,0,0,0-30,32.5c-.83.69-1.5.52-2-.5a93.58,93.58,0,0,1,18-24.5,151.23,151.23,0,0,0,19-14.5,19.51,19.51,0,0,1,6-2.5Q352.89,475.77,347.5,480.5Z" transform="translate(-25.38 -17.25)"/><path class="cls-24" d="M118.5,474.5a.88.88,0,0,1,1-1,121.47,121.47,0,0,1,34.5,32,9.75,9.75,0,0,1,2,7A184,184,0,0,0,118.5,474.5Z" transform="translate(-25.38 -17.25)"/><path class="cls-25" d="M228.5,502.5a3.92,3.92,0,0,1,2,3.5,70.14,70.14,0,0,1-2.5,7.5,7,7,0,0,1-3.5,2.5,428.5,428.5,0,0,1-57-1l50-1Q227.36,512.4,228.5,502.5Z" transform="translate(-25.38 -17.25)"/><path class="cls-25" d="M250.73,570.58c-.58,1.38-1.17,2.76-1.75,4.15a11.73,11.73,0,0,1-5.31,1.23,11.5,11.5,0,0,1-3.92-.72,12.2,12.2,0,0,1-2.48-2.91,12.05,12.05,0,0,1-.81-1.6,8.32,8.32,0,0,0,7.87,4.09A8.69,8.69,0,0,0,250.73,570.58Z" transform="translate(-25.38 -17.25)"/><path class="cls-26" d="M240.5,501.5a19.58,19.58,0,0,1,4.5,9,7,7,0,0,0,3.5,2.5q29.5.25,59,1.5a90.93,90.93,0,0,1-16,2.5q-21.5,1-43,0Q239.59,511.82,240.5,501.5Z" transform="translate(-25.38 -17.25)"/><path class="cls-27" d="M114.5,584.5a258.51,258.51,0,0,1,17,21,9.83,9.83,0,0,1-6,1h-1a30.77,30.77,0,0,0-11-1A111.3,111.3,0,0,1,114.5,584.5Z" transform="translate(-25.38 -17.25)"/><path class="cls-28" d="M112.5,578.5q13.06,14.06,25,29a36.61,36.61,0,0,1-12-1,9.83,9.83,0,0,0,6-1,258.51,258.51,0,0,0-17-21,58.61,58.61,0,0,1-8-10l.5-1A38.59,38.59,0,0,0,112.5,578.5Z" transform="translate(-25.38 -17.25)"/><path class="cls-29" d="M345.5,607.5h-4l6-8q6.94-6.19,13.5-13l.5,1A225.65,225.65,0,0,0,345.5,607.5Z" transform="translate(-25.38 -17.25)"/><path class="cls-30" d="M78.5,605.5c5.7-.28,11.67-.37,17.88-.2,1.73.05,3.44.12,5.12.2.81,0,2,.07,3.45.2,1.72.16,3,.36,3.42.43l.77.1a10.44,10.44,0,0,0,1.73.06c1.62-.06,4.4.2,13.63.21a9.36,9.36,0,0,1,1,0l12,1,5,1a6.89,6.89,0,0,1-5,1q-14.48-1.12-29-1a257,257,0,0,0-32-1l.82-2.1Z" transform="translate(-25.38 -17.25)"/><path class="cls-31" d="M395.5,607.5q-14.79,1.61-30.56,2.54c-3.18.18-6.32.33-9.44.46h-30q-12.53-.11-25,1a8.39,8.39,0,0,1-4-.5,18.24,18.24,0,0,0,6-1.5l39-2h4q24.09.15,48-2l1.44-.25C395.13,606,395.31,606.75,395.5,607.5Z" transform="translate(-25.38 -17.25)"/><path class="cls-32" d="M394.5,608.5v4a93.9,93.9,0,0,0-16.5,1,26.76,26.76,0,0,1-10.5-4Q381,609.57,394.5,608.5Z" transform="translate(-25.38 -17.25)"/><path class="cls-33" d="M76.5,607.5a257,257,0,0,1,32,1h-31v4q30.54-.48,61,1.5a130.71,130.71,0,0,1,22,5,144,144,0,0,1,29,3,358.17,358.17,0,0,0,46-.5,165.2,165.2,0,0,1-7,21,13.14,13.14,0,0,1-7,1v3a7.14,7.14,0,0,1,5,1q-7.6,23.57-15.5,47-.75,13.49-.5,27l-164.07.28a18,18,0,0,1,.1-3c.15-1.3.37-1.93.63-3.5.2-1.21.29-2.19.34-2.81.24-2.06.59-4.29,1.08-6.65a75.58,75.58,0,0,1,1.92-7.35q3.9-16.68,9-33a18.63,18.63,0,0,1,.68-3.72,18.86,18.86,0,0,1,1.32-3.28c.26-.87.64-2.26,1-4,.45-2.18.47-3,.85-4.32a16.56,16.56,0,0,1,2.15-4.68,144,144,0,0,1,8-27c.48-2,.84-3.57,1.15-4.94a14,14,0,0,1,.7-2.47,19.08,19.08,0,0,0,.81-2A9.9,9.9,0,0,0,76.5,607.5Z" transform="translate(-25.38 -17.25)"/><path class="cls-34" d="M302.5,609.5a18.24,18.24,0,0,1-6,1.5,8.39,8.39,0,0,0,4,.5v1h-8a59.58,59.58,0,0,0-14,0A121.6,121.6,0,0,1,302.5,609.5Z" transform="translate(-25.38 -17.25)"/><path class="cls-33" d="M394.5,608.5h1a125.92,125.92,0,0,1,4,12,11.17,11.17,0,0,0,2,7q1.22,5.28,2,11a2.72,2.72,0,0,0,2,3,17.39,17.39,0,0,0,3,9q4.74,15.43,9,31a114.33,114.33,0,0,0,4,23v1q.5,8,1,16h-212a28.27,28.27,0,0,1-1.74-53.25l14.84-26.61A54.41,54.41,0,0,1,229,618.5H250.5a12.86,12.86,0,0,1-7,1v5a219.72,219.72,0,0,0,54-8.5q9-1.37,18-2,24.51.32,49,1a39.11,39.11,0,0,0-13-3q-13-.75-26-.5v-1h30a74.17,74.17,0,0,0,12-1,26.76,26.76,0,0,0,10.5,4,93.9,93.9,0,0,1,16.5-1Z" transform="translate(-25.38 -17.25)"/><path class="cls-35" d="M108.5,608.5q14.52-.12,29,1,27.21,3.68,55,6a51.23,51.23,0,0,0,15,2,164,164,0,0,0,18,1l26.61,1.17c-.73,1.46-1.46,2.91-2.18,4.37q-18.33-1-37.37-1.55-11.67-.35-23.06-.49a144,144,0,0,0-29-3,130.71,130.71,0,0,0-22-5q-30.47-2-61-1.5v-4Z" transform="translate(-25.38 -17.25)"/><path class="cls-36" d="M142.5,608.5q16.49,1.61,33,3a83,83,0,0,0,17,2l42,3c10.28-1.15,25.39-2.69,44-4,9.54-.67,19-1.33,19.06-.83.09.76-21.27,3.86-38.06,5.83-3.69.43-6.79.77-9,1h-25a164,164,0,0,1-18-1c-2.05-.2-4.79-.51-8-1-3.71-.5-6.42-1-7-1-10.14-1.68-55.08-6-55-6A6.89,6.89,0,0,0,142.5,608.5Z" transform="translate(-25.38 -17.25)"/><path class="cls-37" d="M325.5,611.5q13-.25,26,.5a39.11,39.11,0,0,1,13,3q-24.5-.69-49-1-9,.64-18,2a174.53,174.53,0,0,1-55.43,7.63l-.29-5.13a80.36,80.36,0,0,0,17.72-1,230.34,230.34,0,0,0,30-4c2.8-.29,6.55-.65,11-1C301,612.46,304.28,611.91,325.5,611.5Z" transform="translate(-25.38 -17.25)"/></svg>