<svg id="Capa_1" data-name="Capa 1" xmlns="http://www.w3.org/2000/svg" viewBox="0 0 615 545.25"><defs><style>.cls-1{fill:#4f505d;}.cls-1,.cls-10,.cls-11,.cls-12,.cls-13,.cls-14,.cls-15,.cls-16,.cls-17,.cls-18,.cls-19,.cls-2,.cls-3,.cls-4,.cls-5,.cls-6,.cls-7,.cls-8,.cls-9{fill-rule:evenodd;}.cls-2{fill:#40444e;}.cls-3{fill:#ecb79e;}.cls-4{fill:#f9d6bc;}.cls-5{fill:#a1867d;}.cls-6{fill:#46403e;}.cls-7{fill:#47413f;}.cls-8{fill:#4a4442;}.cls-9{fill:#f6e4d7;}.cls-10{fill:#988983;}.cls-11{fill:#eeac91;}.cls-12{fill:#eda88d;}.cls-13{fill:#eeab90;}.cls-14{fill:#f2bca1;}.cls-15{fill:#8097c7;}.cls-16{fill:#edb9a1;}.cls-17{fill:#697594;}.cls-18{fill:#697593;}.cls-19{fill:#6e7e9e;}</style></defs><title>Cara F</title><path class="cls-1" d="M446.5,183.5q-4.68,12.67-8.5,26a62.36,62.36,0,0,1-1.5-16c.67,1.87,1.33,3.87,2,6a199.07,199.07,0,0,0,5.5-53,207.6,207.6,0,0,0-27-76Q386.63,39.38,343.5,48a57.45,57.45,0,0,0-21,8q-12.76,9.14-25,19a72.48,72.48,0,0,1-14,8q-19,1.56-38,3A81.51,81.51,0,0,0,219,101.5a77,77,0,0,0-6,25q-1,25.5,0,51a170.3,170.3,0,0,0,3.5,26,11.38,11.38,0,0,1-2,5,56.88,56.88,0,0,0-8-24c.3-.65.64-1.32,1-2a316.16,316.16,0,0,1-5.5-79q2.34-33.91,27.5-56.5a143.55,143.55,0,0,1,79-33,187.64,187.64,0,0,1,79,6Q429.88,35.89,442,79.5A230.24,230.24,0,0,1,446.5,183.5Z" transform="translate(-20.5 -12.25)"/><path class="cls-2" d="M436.5,193.5a15.47,15.47,0,0,1-1-7q-.93-27.1-4.5-54Q423.88,93.37,387.5,77q-23.94-9.66-47,2a189.45,189.45,0,0,0-35,22,33,33,0,0,1-7,3q-30.92,3.5-62,5a49.48,49.48,0,0,0-14,31.5,84.5,84.5,0,0,0-3.5,23q-.75,15-.5,30a38.92,38.92,0,0,0-2,10,170.3,170.3,0,0,1-3.5-26q-1-25.5,0-51a77,77,0,0,1,6-25A81.51,81.51,0,0,1,245.5,86q19-1.44,38-3a72.48,72.48,0,0,0,14-8q12.22-9.87,25-19a57.45,57.45,0,0,1,21-8q43.13-8.62,73.5,22.5a207.6,207.6,0,0,1,27,76,199.07,199.07,0,0,1-5.5,53C437.83,197.37,437.17,195.37,436.5,193.5Z" transform="translate(-20.5 -12.25)"/><path class="cls-3" d="M435.5,186.5Q427,151,421,114.5,411.31,86.82,382.5,80a116.18,116.18,0,0,0-27-1,81.22,81.22,0,0,0-11,5,270.54,270.54,0,0,0-24,20,55,55,0,0,1-30,9q-20,1.34-40,3-17.19,2.67-22.5,19.5-4.26,20.16-8.5,40,.85-17.56,3-35a49.48,49.48,0,0,1,14-31.5q31.08-1.5,62-5a33,33,0,0,0,7-3,189.45,189.45,0,0,1,35-22q23.06-11.65,47-2,36.38,16.36,43.5,55.5Q434.57,159.4,435.5,186.5Z" transform="translate(-20.5 -12.25)"/><path class="cls-4" d="M435.5,186.5a15.47,15.47,0,0,0,1,7,62.36,62.36,0,0,0,1.5,16q3.83-13.32,8.5-26,10.17,9.24,7.5,23a354.85,354.85,0,0,1-24,51q-5.4,21.35-11.5,42.5a85,85,0,0,1-8.5,17.5q.88,21.54,3.5,43a6.93,6.93,0,0,1-1,4,2.44,2.44,0,0,0-2,.5,243.5,243.5,0,0,1-18,19,236.78,236.78,0,0,1-31,18,121.24,121.24,0,0,1-49,6,312.61,312.61,0,0,1-44-17A172.33,172.33,0,0,1,242,363.5a12.21,12.21,0,0,1-2.5-9,270.41,270.41,0,0,1,6-32,40.66,40.66,0,0,0,4.5,7q78.78,76.26,157-1a11.22,11.22,0,0,0-.5-8,167.82,167.82,0,0,1-53,37.5q-39,15.33-72-10A154.36,154.36,0,0,1,252,318.5q-2.59-3.53-5.5-4a62.6,62.6,0,0,1-7.5-13q-6.8-18.9-13-38-13-28.6-27-57-2.59-13.27,7.5-22a56.88,56.88,0,0,1,8,24,2.44,2.44,0,0,0,.5,2,38.41,38.41,0,0,0,3.5-17,81.75,81.75,0,0,0,1-18q4.25-19.84,8.5-40,5.31-16.83,22.5-19.5,20-1.66,40-3a55,55,0,0,0,30-9,270.54,270.54,0,0,1,24-20,81.22,81.22,0,0,1,11-5,116.18,116.18,0,0,1,27,1q28.81,6.82,38.5,34.5Q427,151,435.5,186.5Z" transform="translate(-20.5 -12.25)"/><path class="cls-5" d="M222.5,140.5q-2.15,17.43-3,35a81.75,81.75,0,0,1-1,18q-.25-15,.5-30A84.5,84.5,0,0,1,222.5,140.5Z" transform="translate(-20.5 -12.25)"/><path class="cls-6" d="M255.22,156.5a238.9,238.9,0,0,1,48,7.5q3.06,1.6,1.72,4.5a6,6,0,0,1-4,2A208.85,208.85,0,0,0,257.5,167a132.13,132.13,0,0,0-21.15,8.5c-2.57-1.24-3.14-2.9-1.71-5A84,84,0,0,1,255.22,156.5Z" transform="translate(-20.5 -12.25)"/><path class="cls-7" d="M383.68,156.49a43,43,0,0,1,22.12,3.32l13.83,10q1.35,4.6-3.87,4.27a61.46,61.46,0,0,0-26-8.07q-19.22,1.16-38.16,3.32c-1.69-2.21-1.33-4.11,1.11-5.69Z" transform="translate(-20.5 -12.25)"/><path class="cls-8" d="M295.86,190q-5.53-6.57-12.93-5.92,2.25,14.18-9.95,13.6-7.16-5-4-14.19-7.67.12-12.94,7.1a33.82,33.82,0,0,0,5,5.32,1.21,1.21,0,0,1-1,1.18q-13.65-6.78,0-14.78,20.28-11.87,36.81,6.5C296.73,189.52,296.4,189.92,295.86,190Z" transform="translate(-20.5 -12.25)"/><path class="cls-9" d="M295.86,190a7.11,7.11,0,0,1-3,6.5,18.49,18.49,0,0,1-7.95,3.55A75.74,75.74,0,0,1,266,200a27.67,27.67,0,0,1-5-4.14,33.82,33.82,0,0,1-5-5.32q5.26-7,12.94-7.1-3.17,9.21,4,14.19,12.19.59,9.95-13.6Q290.33,183.43,295.86,190Z" transform="translate(-20.5 -12.25)"/><path class="cls-8" d="M354.68,189.39q16.54-18.37,36.81-6.51,13.65,8,0,14.78a1.21,1.21,0,0,1-1-1.18,34.25,34.25,0,0,0,5-5.32q-5.27-7-12.93-7.1,3.16,9.21-4,14.2-12.21.57-9.95-13.61-7.39-.65-12.93,5.92C355.14,190.5,354.81,190.1,354.68,189.39Z" transform="translate(-20.5 -12.25)"/><path class="cls-9" d="M368.61,184.65q-2.25,14.19,9.95,13.61,7.14-5,4-14.2,7.66.12,12.93,7.1a34.25,34.25,0,0,1-5,5.32,27.39,27.39,0,0,1-5,4.14,75.66,75.66,0,0,1-18.9,0,18.58,18.58,0,0,1-8-3.55,7.13,7.13,0,0,1-3-6.5Q361.2,184,368.61,184.65Z" transform="translate(-20.5 -12.25)"/><path class="cls-10" d="M218.5,193.5a38.41,38.41,0,0,1-3.5,17,2.44,2.44,0,0,1-.5-2,11.38,11.38,0,0,0,2-5A38.92,38.92,0,0,1,218.5,193.5Z" transform="translate(-20.5 -12.25)"/><path class="cls-11" d="M345.5,248.5a3.29,3.29,0,0,1,2.5,3,12.44,12.44,0,0,1,0,7q-21.94,12-44,0a8,8,0,0,1-.5-8,13.93,13.93,0,0,0,7,6.5,67.12,67.12,0,0,0,15,4.5,80.83,80.83,0,0,0,19-5.5A15.85,15.85,0,0,0,345.5,248.5Z" transform="translate(-20.5 -12.25)"/><path class="cls-12" d="M288.5,289.5a6.12,6.12,0,0,1,3.5-1,217.41,217.41,0,0,1,34.5,4,38.26,38.26,0,0,0,8-2.5,255,255,0,0,1,32,0,109.08,109.08,0,0,1-40.5,9.5,61.78,61.78,0,0,1-19.5-2.5Q297.29,293.64,288.5,289.5Z" transform="translate(-20.5 -12.25)"/><path class="cls-13" d="M343.5,310.5a13,13,0,0,1,5,.5,51.31,51.31,0,0,1-22,8.5,24,24,0,0,1-17-6.5A231.21,231.21,0,0,0,343.5,310.5Z" transform="translate(-20.5 -12.25)"/><path class="cls-14" d="M246.5,314.5q2.91.48,5.5,4A154.36,154.36,0,0,0,281.5,348q33,25.33,72,10a167.82,167.82,0,0,0,53-37.5,11.22,11.22,0,0,1,.5,8q-78.22,77.25-157,1a40.66,40.66,0,0,1-4.5-7C245.83,319.83,246.17,317.17,246.5,314.5Z" transform="translate(-20.5 -12.25)"/><path class="cls-15" d="M413.5,360.5q76.35,20.83,152,44.5,35.4,14.21,70,30l-135,76.5q-32.49-.84-65-1h-8a46.89,46.89,0,0,1-4-11.5,255.47,255.47,0,0,0,4.5-30.5q-8,20.78-14.5,42-42.87,23.31-85.5,47-43.29-16.51-85.5-36-3.65-25.14-8.5-50a233.22,233.22,0,0,0,.5,31.5,21.89,21.89,0,0,1-2,9.5q-12.19-10.44-24-21.5-43-3.17-86-7-44.4-21.45-89-42a62.09,62.09,0,0,1-13-7.5q48-22.22,98-40.5,19.59-3.51,39-8,39.92-11.22,80-21.5,20.49,37.68,63,46.5,49.29,8.29,90-20a92.74,92.74,0,0,0,22-26.5A6.93,6.93,0,0,0,413.5,360.5Z" transform="translate(-20.5 -12.25)"/><path class="cls-16" d="M239.5,354.5a12.21,12.21,0,0,0,2.5,9A172.33,172.33,0,0,0,268.5,391a312.61,312.61,0,0,0,44,17,121.24,121.24,0,0,0,49-6,236.78,236.78,0,0,0,31-18,243.5,243.5,0,0,0,18-19,2.44,2.44,0,0,1,2-.5,92.74,92.74,0,0,1-22,26.5q-40.71,28.29-90,20-42.51-8.82-63-46.5A59,59,0,0,1,239.5,354.5Z" transform="translate(-20.5 -12.25)"/><path class="cls-17" d="M242.5,521.5a32.25,32.25,0,0,1-10-9,21.89,21.89,0,0,0,2-9.5,233.22,233.22,0,0,1-.5-31.5Q238.84,496.37,242.5,521.5Z" transform="translate(-20.5 -12.25)"/><path class="cls-18" d="M427.5,510.5h-14q6.5-21.22,14.5-42a255.47,255.47,0,0,1-4.5,30.5A46.89,46.89,0,0,0,427.5,510.5Z" transform="translate(-20.5 -12.25)"/><path class="cls-19" d="M435.5,510.5q32.5.17,65,1A507.21,507.21,0,0,1,435.5,510.5Z" transform="translate(-20.5 -12.25)"/></svg>