<svg id="Capa_1" data-name="Capa 1" xmlns="http://www.w3.org/2000/svg" viewBox="0 0 431.01 565.51"><defs><style>.cls-1{fill:#eae6ec;}.cls-1,.cls-10,.cls-11,.cls-12,.cls-13,.cls-14,.cls-15,.cls-16,.cls-17,.cls-18,.cls-19,.cls-2,.cls-20,.cls-21,.cls-22,.cls-23,.cls-24,.cls-25,.cls-26,.cls-27,.cls-28,.cls-29,.cls-3,.cls-30,.cls-31,.cls-32,.cls-33,.cls-34,.cls-35,.cls-36,.cls-37,.cls-38,.cls-39,.cls-4,.cls-40,.cls-41,.cls-42,.cls-43,.cls-44,.cls-45,.cls-46,.cls-47,.cls-48,.cls-5,.cls-6,.cls-7,.cls-8,.cls-9{fill-rule:evenodd;}.cls-2{fill:#c7c5cd;}.cls-3{fill:#cdc9d1;}.cls-4{fill:#cec8ce;}.cls-5{fill:#c9c4cc;}.cls-6{fill:#b7afb7;}.cls-7{fill:#c7c3ca;}.cls-8{fill:#fee8cb;}.cls-9{fill:#e2aa97;}.cls-10{fill:#fad1b6;}.cls-11{fill:#b6afb6;}.cls-12{fill:#7e6b69;}.cls-13{fill:#b7b0b7;}.cls-14{fill:#fdd2b8;}.cls-15{fill:#be947a;}.cls-16{fill:#fed4b8;}.cls-17{fill:#181615;}.cls-18{fill:#eae8e6;}.cls-19{fill:#2e2b27;}.cls-20{fill:#4b4c4f;}.cls-21{fill:#0b0a0a;}.cls-22{fill:#f5f5f4;}.cls-23{fill:#b3ada9;}.cls-24{fill:#fce7c9;}.cls-25{fill:#fee4c8;}.cls-26{fill:#fabea2;}.cls-27{fill:#facbad;}.cls-28{fill:#fccaac;}.cls-29{fill:#fabc9f;}.cls-30{fill:#fbe5c9;}.cls-31{fill:#f7cfb5;}.cls-32{fill:#f9c9ae;}.cls-33{fill:#e7a38c;}.cls-34{fill:#e39b85;}.cls-35{fill:#fdd2b7;}.cls-36{fill:#fcd0b4;}.cls-37{fill:#fbcdb4;}.cls-38{fill:#c7776e;}.cls-39{fill:#f9b5a3;}.cls-40{fill:#fcbca8;}.cls-41{fill:#fabfa5;}.cls-42{fill:#fddbbf;}.cls-43{fill:#fcdabe;}.cls-44{fill:#fee9cb;}.cls-45{fill:#f4bca6;}.cls-46{fill:#8197c7;}.cls-47{fill:#677390;}.cls-48{fill:#67728e;}</style></defs><title>M cara</title><path class="cls-1" d="M259.5,45.5a28.11,28.11,0,0,0,7,8.5,216.4,216.4,0,0,1,21,18.5,9.83,9.83,0,0,0,1-6q25.69-8.7,45,10.5A54.49,54.49,0,0,1,366,99.5a60.83,60.83,0,0,1,10,21A90,90,0,0,0,355.5,96c-.83-.69-1.5-.52-2,.5a88.32,88.32,0,0,1,23,49,32.51,32.51,0,0,1-.5,8,94.51,94.51,0,0,0-26-48q3.83,13,7.5,26.5a1.62,1.62,0,0,1-1,1.5,56,56,0,0,0-19-24,28.17,28.17,0,0,0-16-9.5,35,35,0,0,0-25,4.5c-.33-2.67-.67-5.33-1-8a31.36,31.36,0,0,1-4.5,6q1.61-10.35-6.5-16.5a51.93,51.93,0,0,0-30-6.5,104.3,104.3,0,0,0-67,24.5q-18,17.55-35,36a349.63,349.63,0,0,1-43,34,44,44,0,0,1-20,2L88,174.5a48.73,48.73,0,0,1,8-30,187.33,187.33,0,0,1,49.5-45l-2.5-1A85.08,85.08,0,0,0,122.5,109l-15,13q-6.77,8-14,15.5a2,2,0,0,1-.5-3l6-12a12.31,12.31,0,0,0-.5-8,146.93,146.93,0,0,1,45-41,237.55,237.55,0,0,1,43-11.5,78.22,78.22,0,0,0-31,4.5,1.1,1.1,0,0,1-1-1q33-25.32,75-25a188.78,188.78,0,0,0-29-2.5Q231.69,30.08,259.5,45.5Z" transform="translate(-29.5 -35.31)"/><path class="cls-2" d="M259.5,45.5a63.16,63.16,0,0,1,13,7.5q7.85,7.09,16,13.5a9.83,9.83,0,0,1-1,6,216.4,216.4,0,0,0-21-18.5A28.11,28.11,0,0,1,259.5,45.5Z" transform="translate(-29.5 -35.31)"/><path class="cls-3" d="M143.5,73.5a33.8,33.8,0,0,1,11-8,1.1,1.1,0,0,0,1,1,78.22,78.22,0,0,1,31-4.5A237.55,237.55,0,0,0,143.5,73.5Z" transform="translate(-29.5 -35.31)"/><path class="cls-4" d="M290.5,72.5a20.16,20.16,0,0,1,11.5,2,9.21,9.21,0,0,1,0,6l-5,9a31.12,31.12,0,0,0-7-13A3.89,3.89,0,0,1,290.5,72.5Z" transform="translate(-29.5 -35.31)"/><path class="cls-5" d="M337.5,109.5a59.41,59.41,0,0,0-36-3.5,9,9,0,0,0-5,2.5,3.09,3.09,0,0,1-1-3,25.85,25.85,0,0,0-16,13,242.59,242.59,0,0,0-28,2,15.52,15.52,0,0,1,5-8l-2-1q-4.23,1.11-8.5,2a14.41,14.41,0,0,0-7.5-.5,19.21,19.21,0,0,1-8.5,3.5,10,10,0,0,0-7-3,4.44,4.44,0,0,0-4.5,2,77.42,77.42,0,0,0-13,1,19.28,19.28,0,0,1,3.5-2q2.12-7.74-5.5-10-12.65,11.9-25,24.5-29.15,24.13-56.5,50.5a65.52,65.52,0,0,0-7,12,183.86,183.86,0,0,0,0,23,28.33,28.33,0,0,1-7-20,92.23,92.23,0,0,0-3,24,45.39,45.39,0,0,1-6-22,10.86,10.86,0,0,0-4.5-5,10.28,10.28,0,0,0-1.5,4q-.5,6-1,12-1.77-4.53-4-9a20.06,20.06,0,0,0,2.5,15l-1,1a32.92,32.92,0,0,1-8-15h-3a134.61,134.61,0,0,1,10.5-69,63.5,63.5,0,0,1,9.5-16,12.31,12.31,0,0,1,.5,8l-6,12a2,2,0,0,0,.5,3q7.23-7.49,14-15.5l15-13A85.08,85.08,0,0,1,143,98.5l2.5,1a187.33,187.33,0,0,0-49.5,45,48.73,48.73,0,0,0-8,30l1.5,1.5a44,44,0,0,0,20-2,349.63,349.63,0,0,0,43-34q17-18.45,35-36a104.3,104.3,0,0,1,67-24.5,51.93,51.93,0,0,1,30,6.5q8.1,6.15,6.5,16.5a31.36,31.36,0,0,0,4.5-6c.33,2.67.67,5.33,1,8a35,35,0,0,1,25-4.5A28.17,28.17,0,0,1,337.5,109.5Z" transform="translate(-29.5 -35.31)"/><path class="cls-6" d="M337.5,109.5a56,56,0,0,1,19,24,3.89,3.89,0,0,1,.5,4q-19.42-27.09-52.5-26.5a26.84,26.84,0,0,0-6,3.5q29.63-.81,45.5,24a63.13,63.13,0,0,1-.5,36,124.8,124.8,0,0,0-19-25.5,10.15,10.15,0,0,0-4-1.5q-12.47-25.41-41-29a25.85,25.85,0,0,1,16-13,3.09,3.09,0,0,0,1,3,9,9,0,0,1,5-2.5A59.41,59.41,0,0,1,337.5,109.5Z" transform="translate(-29.5 -35.31)"/><path class="cls-7" d="M376.5,145.5a369.75,369.75,0,0,1,.5,47q-4.8,17.17-10.5,34-1.25-9.87-3.5-20a3.58,3.58,0,0,0-1.5-1,38.66,38.66,0,0,1-3.5,12,127.28,127.28,0,0,0-3-24,55.11,55.11,0,0,0-4-9,269.64,269.64,0,0,1-1,45,63.34,63.34,0,0,1-5,18q-2.28,3.6-4.5,7,6.84-32.34-10-60.5a139.79,139.79,0,0,0-10-46.5,10.15,10.15,0,0,1,4,1.5,124.8,124.8,0,0,1,19,25.5,63.13,63.13,0,0,0,.5-36q-15.88-24.81-45.5-24a26.84,26.84,0,0,1,6-3.5q33.08-.59,52.5,26.5a3.89,3.89,0,0,0-.5-4,1.62,1.62,0,0,0,1-1.5q-3.67-13.5-7.5-26.5a94.51,94.51,0,0,1,26,48A32.51,32.51,0,0,0,376.5,145.5Z" transform="translate(-29.5 -35.31)"/><path class="cls-8" d="M218.5,115.5a45.77,45.77,0,0,0,8,1.5,11.45,11.45,0,0,0,2,2.5,15.83,15.83,0,0,1,11-2.5c-1.49,1.16-1.33,2,.5,2.5a38.76,38.76,0,0,1,9.5-2c-.21,1.68.45,2.68,2,3a242.59,242.59,0,0,1,28-2q28.53,3.59,41,29a139.79,139.79,0,0,1,10,46.5q16.85,28.16,10,60.5-1.8,6.4-3,13a6.88,6.88,0,0,0-1,5,5.5,5.5,0,0,0-1.5,3q-.5-5.55-.5-10.5a2.58,2.58,0,0,0-3,.5,12.17,12.17,0,0,0-8-4.5,39.13,39.13,0,0,0-16-9.5,119.16,119.16,0,0,1-19,7.5l-17,1q19,4.74,35-6.5a14.66,14.66,0,0,1,8,3c-1.51,1.24-2.67.9-3.5-1a115,115,0,0,0-11.5,6.5q-6.13,8.16-12.5,16.5Q277.28,294,288.5,308q-2.14,5.21,1.5,1.5a31,31,0,0,0,17.5,8,46.84,46.84,0,0,1,16-2,20.34,20.34,0,0,0,1.5,6q1-5.55,2.5-11a2.21,2.21,0,0,1,2-2,291.4,291.4,0,0,1-9.5,40,124.6,124.6,0,0,1-22.5,27Q279.76,387,261.5,398a109.91,109.91,0,0,1-62,0c-5.06-1.45-9.17-4.33-13.39-6.71a166.25,166.25,0,0,1-17-11c-4.31-4.95-8.71-10.23-13.14-15.85q-6.44-8.16-12-16a109.22,109.22,0,0,1-11.5-45,14.31,14.31,0,0,1,2.34,3.31,22.08,22.08,0,0,1,1.66,4.69,14.84,14.84,0,0,1,9,4.5q16.91,2.78,30-7.5a4.6,4.6,0,0,1,2-4.5l-1-1q7.17-2.72,6-10.5c-.17-2.33-.33-4.67-.5-7a5,5,0,0,0-2.5-3.5,3.58,3.58,0,0,0,1-1.5,80.33,80.33,0,0,0-22-22c-1.27-.76-1.27-1.42,0-2a40.6,40.6,0,0,0,30,3.5l-18-1a28.75,28.75,0,0,1-13-5.5,6.86,6.86,0,0,0-8-3.5,16,16,0,0,0-8,9.5,61.55,61.55,0,0,1-8,4q-2.7,9.81-6,19-3.33-12.94-6-26a121.19,121.19,0,0,1,4.5-69l7.5-7.5A91,91,0,0,0,166,154.5q11.43-14.61,22.5-29.5a34.37,34.37,0,0,1,17-8.5A77.42,77.42,0,0,1,218.5,115.5Z" transform="translate(-29.5 -35.31)"/><path class="cls-9" d="M251.5,120.5c-1.55-.32-2.21-1.32-2-3a38.76,38.76,0,0,0-9.5,2c-1.83-.51-2-1.34-.5-2.5a15.83,15.83,0,0,0-11,2.5,11.45,11.45,0,0,1-2-2.5,45.77,45.77,0,0,1-8-1.5,4.44,4.44,0,0,1,4.5-2,10,10,0,0,1,7,3,19.21,19.21,0,0,0,8.5-3.5,14.41,14.41,0,0,1,7.5.5q4.27-.89,8.5-2l2,1A15.52,15.52,0,0,0,251.5,120.5Z" transform="translate(-29.5 -35.31)"/><path class="cls-10" d="M276.5,158.5q14.55-2,25,8l-1,1a39.53,39.53,0,0,0-10-5.5A45.05,45.05,0,0,1,276.5,158.5Z" transform="translate(-29.5 -35.31)"/><path class="cls-11" d="M205.5,116.5a34.37,34.37,0,0,0-17,8.5q-11.07,14.88-22.5,29.5A91,91,0,0,1,133.5,180l-7.5,7.5a121.19,121.19,0,0,0-4.5,69,16.61,16.61,0,0,1-1,8l-13-12a24.75,24.75,0,0,0-6.5-8,5,5,0,0,0-.5,3,25.66,25.66,0,0,0-8.5-14,61.63,61.63,0,0,1-13.5-34h3a32.92,32.92,0,0,0,8,15l1-1a20.06,20.06,0,0,1-2.5-15q2.23,4.47,4,9,.5-6,1-12a10.28,10.28,0,0,1,1.5-4,10.86,10.86,0,0,1,4.5,5,45.39,45.39,0,0,0,6,22,92.23,92.23,0,0,1,3-24,28.33,28.33,0,0,0,7,20,183.86,183.86,0,0,1,0-23,65.52,65.52,0,0,1,7-12q27.36-26.37,56.5-50.5,12.34-12.6,25-24.5,7.62,2.27,5.5,10A19.28,19.28,0,0,0,205.5,116.5Z" transform="translate(-29.5 -35.31)"/><path class="cls-12" d="M179.64,204.94q11.45,3.26,22.85,7a16.74,16.74,0,0,1,6.77,10.65q-11.44-2.75-22.87-6a108,108,0,0,0-31.95-2.7,48.87,48.87,0,0,0-11.1,4.26q-1.51-.78-.45-2a37.63,37.63,0,0,1,17.73-10.61A103.22,103.22,0,0,1,179.64,204.94Z" transform="translate(-29.5 -35.31)"/><path class="cls-13" d="M366.5,226.5a187.91,187.91,0,0,0-7,26,8.39,8.39,0,0,0-.5-4,40.5,40.5,0,0,1-4.5,6l-12,11a1.62,1.62,0,0,0-2,1,5.75,5.75,0,0,1-3,1q1.2-6.6,3-13,2.22-3.41,4.5-7a63.34,63.34,0,0,0,5-18,269.64,269.64,0,0,0,1-45,55.11,55.11,0,0,1,4,9,127.28,127.28,0,0,1,3,24,38.66,38.66,0,0,0,3.5-12,3.58,3.58,0,0,1,1.5,1Q365.25,216.63,366.5,226.5Z" transform="translate(-29.5 -35.31)"/><path class="cls-14" d="M184.5,217.5a2.38,2.38,0,0,1,2-1l20,5.5a11.13,11.13,0,0,1,6.5,4.5,172.24,172.24,0,0,1,7.5,16,40.36,40.36,0,0,1-13,13,107,107,0,0,0-1.5-24,18.76,18.76,0,0,0-4.5-5.5Z" transform="translate(-29.5 -35.31)"/><path class="cls-15" d="M168.5,223.85q18.48-2.08,32,10.5l-16-8a39.89,39.89,0,0,0-27,4.5q-1.8-.53,0-1.5Z" transform="translate(-29.5 -35.31)"/><path class="cls-16" d="M274.5,215.5a5,5,0,0,1,3,.5A99.7,99.7,0,0,0,257,228.5a55.46,55.46,0,0,0-5.5,26,4.6,4.6,0,0,1-4.5-2,107.19,107.19,0,0,0-6.5-10,179,179,0,0,1,10-19Q262.5,219,274.5,215.5Z" transform="translate(-29.5 -35.31)"/><path class="cls-17" d="M187.67,250.2c-1.83.13-3.76.2-5.78.22a93.51,93.51,0,0,1-10.43-.52,19.72,19.72,0,0,1-1-13.77,15.06,15.06,0,0,1,8.59-2.85c1.21,0,8.24.05,10.8,5.46C191.54,242.31,190.66,246.86,187.67,250.2Z" transform="translate(-29.5 -35.31)"/><path class="cls-18" d="M171.46,249.9a17.6,17.6,0,0,1-8-3,17.37,17.37,0,0,1-5.11-5.55,29.56,29.56,0,0,1,16.46-7.4,8.63,8.63,0,0,0-3.74,3.08,10,10,0,0,0-1.32,6.25A15.52,15.52,0,0,0,171.46,249.9Z" transform="translate(-29.5 -35.31)"/><path class="cls-19" d="M190.49,233.14a15.12,15.12,0,0,1,5.57,6.53,17.41,17.41,0,0,1,1.44,5.44,21.93,21.93,0,0,0-8-8.38,27.22,27.22,0,0,0-11.42-2.89c-10.53-.29-17.83,5.81-19.74,7.52a24.8,24.8,0,0,1,16-11A24.28,24.28,0,0,1,190.49,233.14Z" transform="translate(-29.5 -35.31)"/><path class="cls-20" d="M174.46,245.11a6.3,6.3,0,0,0,1-4.79h-3v3.59a6.41,6.41,0,0,1,1-7.78,15.6,15.6,0,0,1,12.52,1.8q2,9.87-6.51,9.58l-4-.6A2.81,2.81,0,0,1,174.46,245.11Z" transform="translate(-29.5 -35.31)"/><path class="cls-21" d="M176.47,239.15q7.75-1.65,5,6a11.79,11.79,0,0,1-5,.54Z" transform="translate(-29.5 -35.31)"/><path class="cls-22" d="M188.3,236.26a20.25,20.25,0,0,1,9.2,8.85q-3.27,8-11,6c.24-.51.55-1.23.87-2.1a24,24,0,0,0,1.41-5.67A20.23,20.23,0,0,0,188.3,236.26Z" transform="translate(-29.5 -35.31)"/><path class="cls-23" d="M174.46,245.21l-2-1.22v-3.67h3A6.53,6.53,0,0,1,174.46,245.21Z" transform="translate(-29.5 -35.31)"/><path class="cls-12" d="M300.77,205.53a37.58,37.58,0,0,1,17.73,10.61q1.06,1.23-.45,2a48.69,48.69,0,0,0-11.1-4.26,108,108,0,0,0-31.95,2.7q-11.43,3.25-22.87,6a16.74,16.74,0,0,1,6.77-10.65q11.42-3.75,22.85-7A103.19,103.19,0,0,1,300.77,205.53Z" transform="translate(-29.5 -35.31)"/><path class="cls-15" d="M303.89,229.35q1.8,1,0,1.5a39.89,39.89,0,0,0-27-4.5l-16,8q13.51-12.58,32-10.5Q298.26,226.52,303.89,229.35Z" transform="translate(-29.5 -35.31)"/><path class="cls-17" d="M271.54,238.74c2.56-5.41,9.6-5.46,10.8-5.46a15.12,15.12,0,0,1,8.6,2.85,19.8,19.8,0,0,1-1,13.77,93.51,93.51,0,0,1-10.43.52c-2,0-3.94-.09-5.78-.22C270.73,246.86,269.85,242.31,271.54,238.74Z" transform="translate(-29.5 -35.31)"/><path class="cls-20" d="M286,247.22l-4,.6q-8.52.3-6.51-9.58A15.64,15.64,0,0,1,288,236.45a6.4,6.4,0,0,1,1,7.78v-3.59h-3a6.31,6.31,0,0,0,1,4.79A2.79,2.79,0,0,1,286,247.22Z" transform="translate(-29.5 -35.31)"/><path class="cls-18" d="M291.66,243.29a9.91,9.91,0,0,0-1.32-6.25A8.63,8.63,0,0,0,286.6,234a29.48,29.48,0,0,1,16.46,7.4,17.25,17.25,0,0,1-5.11,5.55,17.6,17.6,0,0,1-8,3A15.38,15.38,0,0,0,291.66,243.29Z" transform="translate(-29.5 -35.31)"/><path class="cls-19" d="M287,230.34a24.77,24.77,0,0,1,16,11c-1.91-1.71-9.21-7.81-19.73-7.52a27.23,27.23,0,0,0-11.43,2.89,22,22,0,0,0-8,8.38,17.7,17.7,0,0,1,1.44-5.44,15.19,15.19,0,0,1,5.57-6.53A24.28,24.28,0,0,1,287,230.34Z" transform="translate(-29.5 -35.31)"/><path class="cls-21" d="M284.93,245.68a11.82,11.82,0,0,1-5-.54q-2.76-7.65,5-6Z" transform="translate(-29.5 -35.31)"/><path class="cls-22" d="M272.63,243.33a23.9,23.9,0,0,0,1.42,5.67c.31.87.62,1.59.86,2.1q-7.74,2-11-6a20.25,20.25,0,0,1,9.2-8.85A20.23,20.23,0,0,0,272.63,243.33Z" transform="translate(-29.5 -35.31)"/><path class="cls-23" d="M285.93,240.32h3V244l-2,1.22A6.53,6.53,0,0,1,285.93,240.32Z" transform="translate(-29.5 -35.31)"/><path class="cls-24" d="M107.5,252.5a56.53,56.53,0,0,0,4.5,19,15.56,15.56,0,0,0,6.5,5,13.71,13.71,0,0,1,5.5,3,156.73,156.73,0,0,1,5.5,27q-3.77,3.51-7.5,0a81.81,81.81,0,0,1-12.5-21,87,87,0,0,0-5-14,155.72,155.72,0,0,1-4-24,5,5,0,0,1,.5-3A24.75,24.75,0,0,1,107.5,252.5Z" transform="translate(-29.5 -35.31)"/><path class="cls-22" d="M187.15,249.51l-.67,1.59a52.57,52.57,0,0,1-15.15-1.21,45.12,45.12,0,0,0,15.82-.38Z" transform="translate(-29.5 -35.31)"/><path class="cls-25" d="M157.5,253.5a.91.91,0,0,0-1,.5,7,7,0,0,1,2,2.5c-1.27.58-1.27,1.24,0,2a80.33,80.33,0,0,1,22,22,3.58,3.58,0,0,1-1,1.5,5,5,0,0,1,2.5,3.5c.17,2.33.33,4.67.5,7q1.17,7.78-6,10.5l1,1a4.6,4.6,0,0,0-2,4.5q-13.09,10.28-30,7.5a14.84,14.84,0,0,0-9-4.5q-1.32-5.38-4-8a96.32,96.32,0,0,1-5-21q3.3-9.18,6-19a61.55,61.55,0,0,0,8-4,16,16,0,0,1,8-9.5A6.86,6.86,0,0,1,157.5,253.5Z" transform="translate(-29.5 -35.31)"/><path class="cls-25" d="M307.5,251.5a39.13,39.13,0,0,1,16,9.5,12.17,12.17,0,0,1,8,4.5,2.58,2.58,0,0,1,3-.5q0,5,.5,10.5a5.5,5.5,0,0,1,1.5-3q-3.83,17.94-7,36a2.21,2.21,0,0,0-2,2q-1.49,5.44-2.5,11a20.34,20.34,0,0,1-1.5-6,46.84,46.84,0,0,0-16,2,31,31,0,0,1-17.5-8q-3.64,3.71-1.5-1.5-11.22-14.06-1.5-29.5,6.36-8.34,12.5-16.5a115,115,0,0,1,11.5-6.5c.83,1.9,2,2.24,3.5,1a14.66,14.66,0,0,0-8-3C306.83,252.83,307.17,252.17,307.5,251.5Z" transform="translate(-29.5 -35.31)"/><path class="cls-26" d="M107.5,252.5l13,12q.23,6,1,12h-3a15.56,15.56,0,0,1-6.5-5A56.53,56.53,0,0,1,107.5,252.5Z" transform="translate(-29.5 -35.31)"/><path class="cls-27" d="M157.5,253.5a28.75,28.75,0,0,0,13,5.5l18,1a40.6,40.6,0,0,1-30-3.5,7,7,0,0,0-2-2.5A.91.91,0,0,1,157.5,253.5Z" transform="translate(-29.5 -35.31)"/><path class="cls-28" d="M307.5,251.5c-.33.67-.67,1.33-1,2q-16,11.24-35,6.5l17-1A119.16,119.16,0,0,0,307.5,251.5Z" transform="translate(-29.5 -35.31)"/><path class="cls-29" d="M354.5,254.5q.93,11.76-8,20.5l-5,2.5-1-1.5a33.69,33.69,0,0,0,2-10.5Z" transform="translate(-29.5 -35.31)"/><path class="cls-30" d="M359.5,252.5a119,119,0,0,1-18.5,52l-4.5,4.5a3.89,3.89,0,0,1-4-.5,2.23,2.23,0,0,0-1-1.5q4.38-20.25,9-40.5a1.62,1.62,0,0,1,2-1,33.69,33.69,0,0,1-2,10.5l1,1.5,5-2.5q8.92-8.75,8-20.5a40.5,40.5,0,0,0,4.5-6A8.39,8.39,0,0,1,359.5,252.5Z" transform="translate(-29.5 -35.31)"/><path class="cls-31" d="M121.5,256.5q2.67,13,6,26a96.32,96.32,0,0,0,5,21v5a4.73,4.73,0,0,0-3-2,156.73,156.73,0,0,0-5.5-27,13.71,13.71,0,0,0-5.5-3h3q-.78-6-1-12A16.61,16.61,0,0,0,121.5,256.5Z" transform="translate(-29.5 -35.31)"/><path class="cls-32" d="M340.5,266.5q-4.62,20.25-9,40.5a2.23,2.23,0,0,1,1,1.5h-3q3.18-18.06,7-36a6.88,6.88,0,0,1,1-5A5.75,5.75,0,0,0,340.5,266.5Z" transform="translate(-29.5 -35.31)"/><path class="cls-33" d="M203.5,305.5a7.14,7.14,0,0,1,0,5,7,7,0,0,1-2-4v-7a10.62,10.62,0,0,1,3.5-5l.5,1A17.08,17.08,0,0,0,203.5,305.5Z" transform="translate(-29.5 -35.31)"/><path class="cls-34" d="M261.5,299.5a1.62,1.62,0,0,1,1,2v3a12.36,12.36,0,0,1-4,7q-1.59-2.36,1.5-4A31.54,31.54,0,0,1,261.5,299.5Z" transform="translate(-29.5 -35.31)"/><path class="cls-35" d="M261.5,299.5a31.54,31.54,0,0,0-1.5,8q-3.09,1.65-1.5,4a115,115,0,0,0-13,6.5q-7.37,2-14.5,4.5L210.5,315a19,19,0,0,1-7-4.5,7.14,7.14,0,0,0,0-5,13.3,13.3,0,0,1,7,6.5,72.29,72.29,0,0,0,42.5-1.5,12.88,12.88,0,0,0,6.5-9q-.86-3.63-1.5-7A10.62,10.62,0,0,1,261.5,299.5Z" transform="translate(-29.5 -35.31)"/><path class="cls-36" d="M201.5,299.5v7c-.66-.9-1.32-1.9-2-3q-7.47,9.22-15.5,18a45.37,45.37,0,0,0-6.5,21,50.92,50.92,0,0,1-4-10.5c.17-.83.33-1.67.5-2.5Q188.1,314.65,201.5,299.5Z" transform="translate(-29.5 -35.31)"/><path class="cls-37" d="M262.5,301.5q12.94,13.2,25.5,27a16.67,16.67,0,0,1-2,13,47.91,47.91,0,0,0-6-18,95.15,95.15,0,0,0-17.5-19Z" transform="translate(-29.5 -35.31)"/><path class="cls-38" d="M197.5,341.5a10.55,10.55,0,0,0,6,2.5q14.55,1.38,29,3.5,15.3-1.89,30-5a18.69,18.69,0,0,0,10-4,7,7,0,0,1,3,4,10.83,10.83,0,0,0-5,0l-12,3.5a233,233,0,0,0-26,3.5,102.14,102.14,0,0,0-21-2.5,71.15,71.15,0,0,1-17-4.5,14.1,14.1,0,0,0-6,0l3-4A12.74,12.74,0,0,0,197.5,341.5Z" transform="translate(-29.5 -35.31)"/><path class="cls-39" d="M262.5,342.5q-14.7,3.11-30,5-14.44-2.12-29-3.5a10.55,10.55,0,0,1-6-2.5,269.87,269.87,0,0,1,44-2Q252,341.14,262.5,342.5Z" transform="translate(-29.5 -35.31)"/><path class="cls-40" d="M194.5,342.5a71.15,71.15,0,0,0,17,4.5,102.14,102.14,0,0,1,21,2.5,233,233,0,0,1,26-3.5l12-3.5q-17,17.17-41.5,14-18,2-31.5-9.5A6.88,6.88,0,0,1,194.5,342.5Z" transform="translate(-29.5 -35.31)"/><path class="cls-41" d="M295.24,376.74a11.88,11.88,0,0,0-1.71,4.58,11.33,11.33,0,0,0,0,3.18l-9,8q-9.18,6.36-18,13.5a160.57,160.57,0,0,1-70,1,170.26,170.26,0,0,1-21-16.5,22.4,22.4,0,0,1-7-5,7.36,7.36,0,0,1,2-7,55.68,55.68,0,0,1,7.43,4.62c5.41,4,6.95,6.64,11.57,9.88a38.87,38.87,0,0,0,10,5,109.91,109.91,0,0,0,62,0q8.94-5.34,18.13-11.14Q287.63,381.79,295.24,376.74Z" transform="translate(-29.5 -35.31)"/><path class="cls-42" d="M293.5,384.5c-.42,4.43-.73,8.16-.95,11a167.65,167.65,0,0,0-.8,17.11c0,2.52.16,4.58.25,5.93.58.49,1.45,1.22,2.53,2.07a90.59,90.59,0,0,0,8.43,5.92c2.89,1.82,7.38,4.81,14.54,10l7.49,3.12a5.13,5.13,0,0,1,.36,2.61,2.06,2.06,0,0,1-.35,1.27,105,105,0,0,1-18.5,19,74,74,0,0,1-3.5-9l-16-20a133,133,0,0,1-2.5-16q1-10.35,3-20.5c-.17-1.83-.33-3.67-.5-5.5a2.32,2.32,0,0,1-2.78,1.23,27.45,27.45,0,0,1,9.28-8.23Z" transform="translate(-29.5 -35.31)"/><path class="cls-43" d="M168.5,385.5a22.4,22.4,0,0,0,7,5,17.82,17.82,0,0,0-2,8.5,87.92,87.92,0,0,1-.5,28.5q-7.38,12.88-16,25a2.49,2.49,0,0,0,0,3,10.48,10.48,0,0,1,2.5,3,78.85,78.85,0,0,1-18-15.5l1.34-1.13c3.22-2.68,6.45-5.13,9.66-7.37s6.52-4.92,9.92-7.89c2.37-2.06,4.56-4.11,6.58-6.11a183,183,0,0,0-.5-27Z" transform="translate(-29.5 -35.31)"/><path class="cls-44" d="M175.5,390.5a170.26,170.26,0,0,0,21,16.5,160.57,160.57,0,0,0,70-1q8.82-7.14,18-13.5a2.85,2.85,0,0,0,2.5-1c.17,1.83.33,3.67.5,5.5q-2,10.15-3,20.5a133,133,0,0,0,2.5,16l16,20a74,74,0,0,0,3.5,9Q278.75,486,250.5,509q-8.81,5.65-18,10.5a454.1,454.1,0,0,1-73-61,10.48,10.48,0,0,0-2.5-3,2.49,2.49,0,0,1,0-3q8.63-12.12,16-25a87.92,87.92,0,0,0,.5-28.5A17.79,17.79,0,0,1,175.5,390.5Z" transform="translate(-29.5 -35.31)"/><path class="cls-45" d="M320.5,439.5a50,50,0,0,1,10,.5,2.23,2.23,0,0,1,1,1.5q-12.74,13-25,26.5l-19,17q-27.69,20.19-54.5,41.5A543.78,543.78,0,0,1,186.5,491q-25.33-24.09-50-48.5l7-1a3.31,3.31,0,0,1-2,1.5,78.85,78.85,0,0,0,18,15.5,454.1,454.1,0,0,0,73,61q9.19-4.85,18-10.5,28.25-23,56-46.5a105,105,0,0,0,18.5-19,1.66,1.66,0,0,0-.5-2.5A8.8,8.8,0,0,1,320.5,439.5Z" transform="translate(-29.5 -35.31)"/><path class="cls-46" d="M331.5,441.5a54.42,54.42,0,0,1,11,4,5.4,5.4,0,0,0,3,3.5q49,26.06,98,52a211.19,211.19,0,0,1,7,34.5,534.53,534.53,0,0,1-149,60,457.83,457.83,0,0,1-87,5,53.59,53.59,0,0,0-16-2,138.25,138.25,0,0,0-25-4,270.41,270.41,0,0,1-47-12,319.9,319.9,0,0,0-33-11,437.81,437.81,0,0,1-52-20q5.79-27.18,13.5-54,32.23-21,63.5-43a121.31,121.31,0,0,0,15-11,5.75,5.75,0,0,1,3-1q24.66,24.4,50,48.5A543.78,543.78,0,0,0,233,526.5q26.81-21.3,54.5-41.5l19-17Q318.76,454.49,331.5,441.5Z" transform="translate(-29.5 -35.31)"/><path class="cls-47" d="M342.5,445.5q16.88,7.29,34,14,30.48,15.74,62,30a12.74,12.74,0,0,0,6,3q8.85,17.7,16,36a2.85,2.85,0,0,1-1,2.5l-9,4.5a211.19,211.19,0,0,0-7-34.5q-49-26-98-52A5.4,5.4,0,0,1,342.5,445.5Z" transform="translate(-29.5 -35.31)"/><path class="cls-48" d="M118.5,454.5q-31.26,22-63.5,43-7.71,26.82-13.5,54-6.09-1.69-12-4,5.88-23.12,13.5-46a15.8,15.8,0,0,1,3.5-5.5l10-6.5,21-12Q98.25,466.39,118.5,454.5Z" transform="translate(-29.5 -35.31)"/></svg>