<svg id="Capa_1" data-name="Capa 1" xmlns="http://www.w3.org/2000/svg" viewBox="0 0 374.06 876.69"><defs><style>.cls-1{fill:#473e35;}.cls-1,.cls-2,.cls-3,.cls-4,.cls-5,.cls-6,.cls-7,.cls-8{fill-rule:evenodd;}.cls-2{fill:#f8d5bb;}.cls-3{fill:#d6a98a;}.cls-4{fill:#f8f8f8;}.cls-5{fill:#f7d4bb;}.cls-6{fill:#f7d4ba;}.cls-7{fill:#f9d6bc;}.cls-8{fill:#f9f9f9;}</style></defs><title>mujer completa frente</title><path class="cls-1" d="M217,121.5a46.22,46.22,0,0,0,12.5-25q5.58.68,6.5-5a25.24,25.24,0,0,0,2-15l-5-2q.69-30.24-27-41a4.68,4.68,0,0,0-3,2q-13.14,29.4-43.5,39a49.67,49.67,0,0,0,.52,8.3,48.88,48.88,0,0,0,1.48,6.7,105.6,105.6,0,0,0,5.24,12.62A108,108,0,0,0,179,121.5a3.65,3.65,0,0,1-2.5,6q-15.83-.06-21.5-15a229.59,229.59,0,0,1,7-75q17.83-27,49.5-18.5A37.62,37.62,0,0,1,233,42.5q3.51,17.58,8,35a94.28,94.28,0,0,1,0,33,23.78,23.78,0,0,1-23.87,17.32C217.09,125.71,217,123.61,217,121.5Z" transform="translate(-11.44 -16.98)"/><path class="cls-2" d="M226,162.36c2.43,3.52,8.08,10.43,19.54,15.14a63.36,63.36,0,0,1-.2,7.58,67.22,67.22,0,0,1-9.94,29.36,41.14,41.14,0,0,1-11.23,13.09c-12.46,9.39-26.48,8.37-31.09,8a50.27,50.27,0,0,1-43.42-36.11,35.81,35.81,0,0,1-.71-21.79,47.21,47.21,0,0,0,18.59-13.21c12.28-14.49,11.85-32.88,11.73-38.49,0-1.82-.16-3.34-.26-4.39a107.36,107.36,0,0,1-17.5-32c-.66-2.33-1.33-4.67-2-7v-8q30.36-9.6,43.5-39a4.68,4.68,0,0,1,3-2q27.69,10.77,27,41l5,2a25.24,25.24,0,0,1-2,15q-.91,5.67-6.5,5a46.22,46.22,0,0,1-12.5,25c0,2.1,0,5.08.3,8.62C218.07,140.34,219,152.26,226,162.36Z" transform="translate(-11.44 -16.98)"/><path class="cls-3" d="M214.5,136.5a113.15,113.15,0,0,1-6.5,27A158.89,158.89,0,0,1,214.5,136.5Z" transform="translate(-11.44 -16.98)"/><path class="cls-4" d="M149.5,177.5A52.24,52.24,0,0,0,151.29,194a57.26,57.26,0,0,0,4.21,10.49c5.86,10.73,23.26,24,44.63,23.45,13.78-.37,31.12-6.58,38.24-19.24,3.22-5.73,5.23-14.35,5.42-15.17a68.37,68.37,0,0,0,1.71-16,87,87,0,0,1,14,5Q259,210,261,237.5a21.12,21.12,0,0,0,3.5,9c4.31,13.85,5.09,25.56,4,32a91.78,91.78,0,0,1-3.46,13c-.59,1.67-1.14,3-1.54,4-8,.7-19.16,1.54-32.5,2.14-5.32.23-18.56.78-35.85.8-15.66,0-35.5-.4-58.65-1.94a62.31,62.31,0,0,1-9.14-27.23,65.33,65.33,0,0,1,2.77-24.73,69.46,69.46,0,0,1,2.69-7.49c1.44-12,2.43-24.86,2.71-38.59q.16-8.73,0-17A56.22,56.22,0,0,1,149.5,177.5Z" transform="translate(-11.44 -16.98)"/><path class="cls-5" d="M125.5,184.5l10-3a114,114,0,0,0-2,28.63c.52,8.49,2.12,18-1.41,30.12a56.72,56.72,0,0,1-2.11,6,5.67,5.67,0,0,0-.53-2.31,5.59,5.59,0,0,0-.95-1.44,27.29,27.29,0,0,0-4,11c-3.29,9.15-6,16.9-8.08,22.75-7.93,22.59-10.21,30-12.31,37.92-1.71,6.49-2.89,11.86-3.61,15.33l-3,13-6,17q-23.72,42.94-43.5,88-3.7,10.38-6.5,21a129,129,0,0,1-1.5,37l-8.5,13a13.05,13.05,0,0,1,2.5-13,43.28,43.28,0,0,0-.5-16q-3,4-6,8a46.68,46.68,0,0,0-2,22q2.1,5,4.5,10a3.2,3.2,0,0,1-.5,4,13.49,13.49,0,0,1-8-9,89.09,89.09,0,0,0-2-15,22.7,22.7,0,0,1,2-9.5l-1-1.5a19.08,19.08,0,0,0-2.5,7,112.75,112.75,0,0,0,0,14,2.64,2.64,0,0,0-2.5-2,10.61,10.61,0,0,1-2-8q2.23-6.5,4-13.5c-.67-2-1.33-2-2,0q-1.14,4.29-2.5,8.5a3.31,3.31,0,0,0-1.5-2,71.86,71.86,0,0,1,.5-12A368.93,368.93,0,0,0,31.5,446Q42.87,405.29,54,364.5a135.91,135.91,0,0,1,18-37q1.77-6.76,3.5-13.65,4.89-19.47,9-38.35l2-10,3-13c.67-3,1.33-6,2-9,.75-4.34,1.71-8.92,3-13.7.65-2.53,1.34-5,2-7.3.67-2.67,1.33-5.33,2-8l3-10a25.93,25.93,0,0,1,5-9.58,27.4,27.4,0,0,1,8-6.42A34,34,0,0,1,125.5,184.5Z" transform="translate(-11.44 -16.98)"/><path class="cls-4" d="M135.5,181.5q.3,26.52-1,53c-.23-2.44-.53-6.18-.75-10.76-.31-6.65-.26-11.58-.25-13.61,0-5.77,0-14.63-.54-27.73Z" transform="translate(-11.44 -16.98)"/><path class="cls-6" d="M270.5,185.5c8.32,2.26,9.84,2.66,12,4,4.36,2.7,6.66,6.35,8.67,9.6A46.69,46.69,0,0,1,297,213.5q13.13,57.58,27,115a151.6,151.6,0,0,1,18,36q5,18.47,9.5,37c.67,2.33,1.33,4.67,2,7q5.21,17.19,9.5,35c.07.27.62,1.5,1.3,3.26,1.74,4.5,2.94,8.24,3.7,10.74q4.81,11.56,10.51,23.68,2.91,6.19,6,12.32a77.86,77.86,0,0,1-1,10,11.38,11.38,0,0,1-3-7c-.86-1.27-1.53-1.11-2,.5q1.42,5.46,3,10.5a21.46,21.46,0,0,1,1,7l-5,8a2.38,2.38,0,0,1-1-2,26.82,26.82,0,0,0-1-22c-.33.67-.67,1.33-1,2q1.2,5,2,10-1.35,8.57-3,17a6.59,6.59,0,0,1-6,4q-.93,5.88-2,0a20.71,20.71,0,0,1,3-8,10,10,0,0,0,3-8q-1.62-8.69-3-17a35.27,35.27,0,0,0-6-8q-5.14,11.83,2.5,22a24.93,24.93,0,0,1,.5,7h-3a8.39,8.39,0,0,0-.5-4q-2.76-4.54-5.5-9a17.77,17.77,0,0,0-2-8q-1-16-1-32a56.09,56.09,0,0,0-5-16c-6.35-13-9.82-23.83-15.83-35.37-19.29-37-22.59-37.44-28.67-54.63-2.82-8-.79-4.13-7.82-28.52s-14.33-46-14.68-47.48a210.72,210.72,0,0,0-10-31,55.66,55.66,0,0,1-3-10,3.71,3.71,0,0,0-3.05.82c-.78.87-.59,2.12-.95,2.18s-1.27-2.27-1.43-2.83c-1.3-4.63-2.69-37.19-3.57-61.17Z" transform="translate(-11.44 -16.98)"/><path class="cls-4" d="M259.5,182.5l2,3q-.25,23,.5,46a74.77,74.77,0,0,0,2,12c.17,1,.33,2,.5,3a21.12,21.12,0,0,1-3.5-9Q259,210.05,259.5,182.5Z" transform="translate(-11.44 -16.98)"/><path class="cls-3" d="M151.5,187.5v-1a144,144,0,0,1,17,.5,7.92,7.92,0,0,1,4,2Q162,188.67,151.5,187.5Z" transform="translate(-11.44 -16.98)"/><path class="cls-3" d="M243.5,186.5v1q-10,1.69-20,3c-1.21-.77-1.21-1.61,0-2.5A148.83,148.83,0,0,1,243.5,186.5Z" transform="translate(-11.44 -16.98)"/><path class="cls-3" d="M189.5,192.5a13.35,13.35,0,0,1,5,5.5,5.68,5.68,0,0,0,6.5-1.5q-.7,5.52-6.5,3.5A11.59,11.59,0,0,1,189.5,192.5Z" transform="translate(-11.44 -16.98)"/><path class="cls-4" d="M263.5,295.5a4.62,4.62,0,0,1-4,1h-46q-38.25-1.74-77,0,28.5-1.59,59.28-2C219.31,294.26,241.91,294.64,263.5,295.5Z" transform="translate(-11.44 -16.98)"/><path class="cls-4" d="M213.5,296.5q-38-.21-76,1l-1-1Q175.25,294.76,213.5,296.5Z" transform="translate(-11.44 -16.98)"/><path class="cls-7" d="M213.5,296.5h30l18.36-.25a143.34,143.34,0,0,0-4.5,13.73c-2.55,9.36-5.61,20.47-5.05,35.17a95.36,95.36,0,0,0,6.19,30.35,94.41,94.41,0,0,0,4,9l2.19,3.27c-17.47,1.07-31.51,2.11-41.2,2.87-14.23,1.12-21.89,1.93-34,1.86q-20-.12-40-1.5a77.1,77.1,0,0,1-18-3.5,83.53,83.53,0,0,0,12-32.5q-2.33-26.85-6-53.5v-4Q175.48,296.28,213.5,296.5Z" transform="translate(-11.44 -16.98)"/><path class="cls-3" d="M191.5,382.5q5.2,5.75,10.5,0c.51,3.33-1,5-4.5,5A6.09,6.09,0,0,1,191.5,382.5Z" transform="translate(-11.44 -16.98)"/><path class="cls-8" d="M265.5,389.5a170.6,170.6,0,0,1,14,33l7,25a308.65,308.65,0,0,1,6,62h-3q-42.51.42-85,2a2.87,2.87,0,0,0-1-3q-2.5-8-5-16-1.89-12.53-4-1a96.6,96.6,0,0,0-5,21h-3q-34,1.39-68,.5a69.16,69.16,0,0,1-15-2.5,228.85,228.85,0,0,1-.94-31.11,231.83,231.83,0,0,1,9.94-58.89,102.79,102.79,0,0,1,14-30,453.37,453.37,0,0,0,59.5,4Q225.89,393.92,265.5,389.5Z" transform="translate(-11.44 -16.98)"/><path class="cls-8" d="M264.18,386.85l1.32,2.65q-39.62,4.42-79.5,5a453.37,453.37,0,0,1-59.5-4,19.26,19.26,0,0,0,5-3,77.1,77.1,0,0,0,18,3.5q20,1.38,40,1.5,36.54-1.56,73-5Z" transform="translate(-11.44 -16.98)"/><path class="cls-3" d="M383.5,503.5a4.81,4.81,0,0,1-2,4q-1.58-5-3-10.5c.47-1.61,1.14-1.77,2-.5A11.4,11.4,0,0,0,383.5,503.5Z" transform="translate(-11.44 -16.98)"/><path class="cls-3" d="M13.5,509.5a11.19,11.19,0,0,1-2-7,3.31,3.31,0,0,1,1.5,2q1.37-4.22,2.5-8.5c.67-2,1.33-2,2,0Q15.73,503,13.5,509.5Z" transform="translate(-11.44 -16.98)"/><path class="cls-3" d="M27.5,497.5q-1,11-2,22A46.67,46.67,0,0,1,27.5,497.5Z" transform="translate(-11.44 -16.98)"/><path class="cls-3" d="M384.5,493.5a7.83,7.83,0,0,1,1,4,150.92,150.92,0,0,1-3,17,21.46,21.46,0,0,0-1-7,4.81,4.81,0,0,0,2-4A77.86,77.86,0,0,0,384.5,493.5Z" transform="translate(-11.44 -16.98)"/><path class="cls-3" d="M21.5,524.5a14.91,14.91,0,0,1-6-7,2.64,2.64,0,0,1,2.5,2,112.75,112.75,0,0,1,0-14,19.08,19.08,0,0,1,2.5-7l1,1.5a22.7,22.7,0,0,0-2,9.5A89.09,89.09,0,0,1,21.5,524.5Z" transform="translate(-11.44 -16.98)"/><path class="cls-3" d="M247,510.21q23.06-.54,45.51-.71l-4,2q-39,.57-78,2l-3.28-.37-2.72-1.63Q225.49,510.72,247,510.21Z" transform="translate(-11.44 -16.98)"/><path class="cls-7" d="M283.5,568.5c-2.93,18.13-4.62,21-5.5,32a126.46,126.46,0,0,0,.5,25l6,25c.58,2.4.42,2.73,1.17,7.43,2.57,16.09,3.73,20.28,4.83,27.57,1.49,9.87,1.56,17.07,1.78,28.29.25,12.16-.36,21.43-.78,27.71-.64,9.44-1.2,12.3-2.55,26-.67,6.77-1.59,16.75-2.45,29q-1,9-2,18A103.58,103.58,0,0,0,282.79,831a82.14,82.14,0,0,0,.71,14.48q3.6,24.69,22.5,42a5,5,0,0,1,.5,3,5.92,5.92,0,0,0-6,2q-15.48,1.1-31,1a7.46,7.46,0,0,1-8.5-4q-.25-19.75-1.5-39a191.36,191.36,0,0,0-3-40q-1-7.5-2-15l-3-20a103.9,103.9,0,0,0-3-17q-7.47-43.74-11-88a100.24,100.24,0,0,0-3-24c-4.64-18.4-7-32.3-8.19-36.44-4.21-14.88-10.39-42.22-19.09-96.93q20.63-.12,42.27-.84,21.21-.73,41.41-2c-.88,7.19-2.15,17.55-3.72,30.1C285.21,556.17,284.2,564.15,283.5,568.5Z" transform="translate(-11.44 -16.98)"/><path class="cls-3" d="M103.5,510.5a69.16,69.16,0,0,0,15,2.5c13.93.79,22.79.93,48.58.11,5-.16,12.79-.39,22.42-.61l-.46,1.43a294.72,294.72,0,0,1-84.73-2Z" transform="translate(-11.44 -16.98)"/><path class="cls-2" d="M104.24,511.6c4,.72,9.59,1.63,16.31,2.37A282.53,282.53,0,0,0,152,515.41c9.71,0,22.28-.3,37.06-1.48L182.5,540.5l-3,16q-3.5,19-7,38c-1.08,8.73-2.41,15.9-3.49,21.07s-2.24,9.76-4.45,18.51c-1.82,7.18-3.41,13.15-4.56,17.42q-1.75,22.5-3.5,45-1,6.5-2,13-9,54.86-16.5,110-2.7,34.95-3,70a14.8,14.8,0,0,1-3.5,3,113.86,113.86,0,0,0-18,1,95.32,95.32,0,0,1-24-3,8.39,8.39,0,0,1,.5-4,70.8,70.8,0,0,0,14.39-18.85c6.8-13,7.76-25.08,8.11-33.15,1.55-35.56-6.29-49.55-8.5-92a379.63,379.63,0,0,1,1.5-59q1-7.5,2-15c.24-1.13,5.77-26.9,6-28,.14-.63,4.35-20.32,4.49-21a86.15,86.15,0,0,0,.26-9.77,87.58,87.58,0,0,0-.76-9.23c-1.54-11.48-6-36.83-7.26-44.66a224.36,224.36,0,0,1-2.74-33.34Q105.87,517.06,104.24,511.6Z" transform="translate(-11.44 -16.98)"/><path class="cls-3" d="M368.5,498.5q1.38,8.31,3,17a10,10,0,0,1-3,8A196.74,196.74,0,0,0,368.5,498.5Z" transform="translate(-11.44 -16.98)"/><path class="cls-3" d="M377.5,522.5c-1.36,1.69-2.7,3.36-4,5q1.65-8.43,3-17-.81-5-2-10c.33-.67.67-1.33,1-2a26.82,26.82,0,0,1,1,22A2.38,2.38,0,0,0,377.5,522.5Z" transform="translate(-11.44 -16.98)"/><path class="cls-3" d="M258.5,631.5q3.51.42,0,2.5-7.16,5.1-15,2A16.5,16.5,0,0,0,258.5,631.5Z" transform="translate(-11.44 -16.98)"/><path class="cls-3" d="M135.5,630.5q7.73,6.48,17,5a11.56,11.56,0,0,1-12,.5A13.12,13.12,0,0,1,135.5,630.5Z" transform="translate(-11.44 -16.98)"/></svg>