<svg xmlns="http://www.w3.org/2000/svg" viewBox="0 0 251.99 840.69"><defs><style>.cls-1{fill:none;}.cls-1,.cls-2,.cls-3{stroke:#000;stroke-width:1.01px;}.cls-1,.cls-2,.cls-3,.cls-4{stroke-miterlimit:10;}.cls-2{fill:#efcea8;}.cls-3{fill:#fff;}.cls-4{fill:#76695d;stroke:#1d1d1b;}</style></defs><title>Hombre espalda</title><g id="Capa_2" data-name="Capa 2"><g id="Capa_5" data-name="Capa 5"><path class="cls-1" d="M224.41,311.82s-3.15,5.76-11.82,5.84"/><path class="cls-2" d="M125.13,434H127l2.08,32.5s7.71,47.44,8.62,53.83,3.81,59.18,3.81,59.18l4.24,27.92s.13,7.58-4.46,29.9,8.21,63.49,8.21,63.49,1.14,30.12,0,43.85,1.14,17.1,1.14,17.1l.47,9.52-4.53,42.58s-5.72,8.69,2.92,20.69,20.74,1.17,20.74,1.17a18.43,18.43,0,0,0,13-4.85c6-5.47,3-21.85,3-21.85l-6.11-33.81c3.27-10.69-2-22-2-22V736.74l4-21.54c11.83-29.88,13.26-70.05,13.26-70.05s-6.21-39-5-46.91,0-33.16,0-33.16l6.73-26.62,5.25-43.86s3.89-65.69,2.82-85.39-16.32-77.37-16.32-77.37V278.6L198,252c1.36-11.34,5-19,8.12-24s5.52-6.76,7.93-12.49a42.52,42.52,0,0,0,3.14-18.83,34.51,34.51,0,0,1-2,16.16c-1.26,3.42-3,6.51-6.22,12.21-1.68,3-2.91,5-3.36,5.71-2.5,4.17-5.59,11.2-7.77,23.65q3.55,28.53,7.09,57.08c-.54,22.62,3.38,32.5,3.38,32.5s15.65,43.68,17.8,51.36a21.61,21.61,0,0,1-.25,13.29l-7.57,21.6s-7.58,39.95-4.3,40,6.8-3.12,6.8-3.12,2.64-13.79,3.13-16.88,3.12-3.12,4.25-3.44,2.62,4.07,2.62,4.07v14.52S225,469.7,222,472.13s-2.52,7.49-2.52,7.49c-3,2.57-1.61,7.13-1.61,7.13l23.78-12.15,9.82-23.85-3-24.36c4-9.95-3.77-62.24-3.77-62.24,0-62.17-8.53-76.43-8.53-76.43,2-68.12-1.2-117.88-1.2-117.88C225.4,143.22,196,139,196,139c-10.8-7.53-33.17-15.38-33.17-15.38l-9.53-9.39-.45-.85a32.41,32.41,0,0,1-5-25,58.18,58.18,0,0,1-43.44.15,42.54,42.54,0,0,1-1.67,16.74,42.07,42.07,0,0,1-3.49,8.1l-.45.85-9.53,9.39S66.85,131.44,56.05,139c0,0-29.46,4.25-39.06,30.87,0,0-3.16,49.76-1.2,117.88,0,0-8.55,14.26-8.53,76.43,0,0-7.77,52.29-3.76,62.24l-3,24.36,9.83,23.85,23.77,12.15s1.37-4.56-1.6-7.13c0,0,.44-5.05-2.53-7.49s-8.75-6.76-8.75-6.76V450.85s1.5-4.38,2.62-4.07,3.76.36,4.25,3.44,3.13,16.88,3.13,16.88,3.53,3.18,6.81,3.12-4.31-40-4.31-40l-7.57-21.6a21.57,21.57,0,0,1-.24-13.29C28.07,387.65,43.72,344,43.72,344s3.93-9.88,3.38-32.5q3.78-29.67,7.57-59.35c-.92-2.91-2.2-6.82-3.85-11.41-2.61-7.3-4-11-6.1-14.88-3.62-6.56-4.89-5.85-6.84-10.29-4.08-9.26-1.15-18.49-1.21-18.49-.47,0-3.11,10.51,1.47,20,2.5,5.19,5.16,5.92,8.75,12a41.15,41.15,0,0,1,5.24,15.13l11,34.4v53.24S47.89,389.5,46.82,409.21s2.81,85.39,2.81,85.39l5.25,43.86,6.73,26.62s-1.2,25.23,0,33.16-5,46.91-5,46.91S58,685.32,69.85,715.2l4.06,21.54v16.41s-5.32,11.35-2,22L65.76,809s-3,16.38,3,21.85a18.43,18.43,0,0,0,13,4.85s12.09,10.83,20.74-1.17,2.93-20.69,2.93-20.69l-4.54-42.58.48-9.52s2.26-3.37,1.13-17.1,0-43.85,0-43.85,12.8-41.18,8.21-63.49-4.46-29.9-4.46-29.9l4.24-27.92s2.91-52.8,3.82-59.18,8.62-53.83,8.62-53.83L125,434h1.87"/><path class="cls-2" d="M92.85,57.43c-.06-1.08-.18-3.41-1.74-4.36s-3.53-.1-4.37.29c-.16,5.84,0,10.75.29,14.55.23,3.28.53,6.08,2.62,8.43.38.43,2.75,3.1,4.36,2.48C96.57,77.83,93.6,70,92.85,57.43Z"/><path class="cls-2" d="M159.77,58.48c.06-1.08.18-3.41,1.74-4.36s3.53-.1,4.37.29c.16,5.83,0,10.75-.29,14.55-.23,3.28-.54,6.08-2.62,8.43-.38.42-2.75,3.1-4.37,2.47C156.05,78.88,159,71.05,159.77,58.48Z"/><path class="cls-3" d="M59.81,344.86c19.89,1.5,40.89,2.53,62.89,2.91,24.57.42,47.93,0,70-1.07q1.28,4.5,2.51,9.25c2.39,9.26,4.59,19.23,6.42,29.86,1.7,9.79,2.9,19.13,3.75,27.92l-2,63.43-72.11,2.49-3.65-37-.45-7c-.07-.15-.18-.38-.3-.66a11.4,11.4,0,0,1-.38-5.74,34.56,34.56,0,0,0,0-5.58l0,5.58a11.4,11.4,0,0,1-1.06,5.93,10,10,0,0,1-.52.92c-.14,2.18-.27,4.37-.41,6.56q-.8,12.24-1.63,24.43l-2.15,13.28L48.74,478.3S45,418.07,47.35,403.66c1.78-10.73,7.81-38.09,10.78-51.36C59.15,347.76,59.81,344.86,59.81,344.86Z"/><path class="cls-1" d="M59.06,352.35a645.81,645.81,0,0,0,69.53,4.36A643.53,643.53,0,0,0,194.05,354"/><polyline class="cls-1" points="73.51 577.87 71.62 584.41 70.89 599.83 69.3 602.16"/><path class="cls-1" d="M95.77,581.36s4,6.55.85,17.89"/><polyline class="cls-1" points="177.87 578.16 179.76 584.71 180.49 600.12 182.09 602.45"/><path class="cls-1" d="M155.61,581.65s-4,6.55-.85,17.89"/><path class="cls-1" d="M170.53,779.91s-8.1-9.58-17-9.23l-2.64-4.43"/><path class="cls-1" d="M82.38,779.91s8.11-9.58,17-9.23l2.63-4.43"/><path class="cls-1" d="M26.62,313.18s3.15,5.76,11.82,5.84"/><path class="cls-1" d="M176.46,146.85s16.33-.26,25.63-5.86"/><path class="cls-1" d="M76.77,146.85s-16.32-.26-25.63-5.86"/><path class="cls-1" d="M150,338.18s4.46-6,8.5-5.12"/><path class="cls-1" d="M101.5,338.6s-4.47-6-8.5-5.13"/><path class="cls-1" d="M160.37,170.74s-9.17,7.54-9.06,28.22"/><path class="cls-1" d="M90.84,170.74S100,178.28,99.9,199"/><line class="cls-1" x1="124.75" y1="228.05" x2="126.56" y2="305.68"/><path class="cls-1" d="M192.57,421.83A22.4,22.4,0,0,1,185,435.74c-2,1.62-4.27,2.87-9.81,4.42-9.24,2.58-23.93,6.67-39.17.31a44.15,44.15,0,0,1-5.56-2.79l-3.33-2h0"/><path class="cls-1" d="M59.38,421.83A22.34,22.34,0,0,0,67,435.74c3,2.44,6,3.46,9.81,4.42,12.62,3.18,31.49,7.92,45-2a28.52,28.52,0,0,0,3-2.53l.54-.47"/><path class="cls-1" d="M107.87,368.81s10.14,6.62,11.32,8"/><path class="cls-1" d="M142.32,368.56s-10.14,6.62-11.32,8"/><path class="cls-4" d="M127.46.65a59.79,59.79,0,0,0-10.33.16S111,.15,103.71,6.64,90.64,22.93,90.64,22.93s-3.09,20.61-1.76,24.32l2.6,8.5,1.17,10.63q1.14,5.52,2.29,11a64.47,64.47,0,0,1,8.68,12.74c2.21,4.25,2.25,5.48,4.07,7.27,4.47,4.41,11.35,4.1,18.19,3.79,7.89-.36,12.72-.58,16.87-4.08,3.09-2.61,3-4.68,8.47-12.94,2.39-3.61,4.52-6.41,5.91-8.17.72-3.42,1.39-7,2-10.71.76-4.66,1.35-9.14,1.8-13.41l1.53-9.49c.1-22-4.84-29.87-9.55-32.82L142,3.53A60.82,60.82,0,0,0,127.46.65Z"/></g></g></svg>