<svg xmlns="http://www.w3.org/2000/svg" viewBox="0 0 251.99 841.81"><defs><style>.cls-1{fill:#efcea8;}.cls-1,.cls-3,.cls-4,.cls-5{stroke:#000;}.cls-1,.cls-2,.cls-3,.cls-4,.cls-5{stroke-miterlimit:10;}.cls-1,.cls-3,.cls-4{stroke-width:1.01px;}.cls-2{fill:#76695d;stroke:#1d1d1b;}.cls-3{fill:none;}.cls-4,.cls-5{fill:#fff;}.cls-5{stroke-width:0.9px;}</style></defs><title>Hombre frente</title><g id="Capa_2" data-name="Capa 2"><g id="Capa_5" data-name="Capa 5"><path class="cls-1" d="M125.13,435.09H127l2.07,32.5s7.72,47.44,8.63,53.82,3.81,59.18,3.81,59.18l4.24,27.93s.13,7.58-4.46,29.89,8.21,63.49,8.21,63.49,1.14,30.13,0,43.86,1.14,17.1,1.14,17.1l.47,9.52L146.58,815s-5.72,8.69,2.92,20.69,20.74,1.17,20.74,1.17a18.43,18.43,0,0,0,13-4.85c6-5.48,3-21.85,3-21.85l-6.11-33.82c3.27-10.69-2-22-2-22V737.86l4-21.55c11.83-29.88,13.26-70,13.26-70s-6.21-39-5-46.91,0-33.17,0-33.17l6.73-26.61,5.25-43.86s3.89-65.69,2.82-85.4S188.86,333,188.86,333V279.72L198,253.13q1-13.63,2-27.29-1.06,14.83-2.14,29.66l7.09,57.09c-.54,22.61,3.38,32.5,3.38,32.5s15.65,43.68,17.8,51.36a21.58,21.58,0,0,1-.25,13.28l-7.57,21.61s-7.58,40-4.3,40,6.8-3.12,6.8-3.12,2.64-13.79,3.13-16.88,3.12-3.12,4.25-3.44,2.62,4.07,2.62,4.07v14.52s-5.77,4.33-8.75,6.76-2.52,7.49-2.52,7.49c-3,2.57-1.61,7.13-1.61,7.13l23.78-12.15,9.82-23.85-3-24.36c4-10-3.77-62.24-3.77-62.24,0-62.17-8.53-76.43-8.53-76.43C238.17,220.72,235,171,235,171,225.4,144.34,196,140.09,196,140.09c-10.8-7.53-33.17-15.39-33.17-15.39l-9.53-9.38-.77,10.19c.05-1.65.18-6.13.32-11,.18-6,.37-12.76.45-15.63l-27.45.59h.39l-27.45-.59c.08,2.87.28,9.58.45,15.63.15,4.91.28,9.39.33,11l-.78-10.19-9.53,9.38s-22.36,7.86-33.16,15.39c0,0-29.46,4.25-39.06,30.87,0,0-3.16,49.76-1.2,117.88,0,0-8.55,14.26-8.53,76.43,0,0-7.77,52.28-3.76,62.24l-3,24.36,9.83,23.85,23.77,12.15s1.37-4.56-1.6-7.13c0,0,.44-5.06-2.53-7.49s-8.75-6.76-8.75-6.76V452s1.5-4.38,2.62-4.07,3.76.36,4.25,3.44,3.13,16.88,3.13,16.88,3.53,3.17,6.81,3.12-4.31-40-4.31-40l-7.57-21.61a21.54,21.54,0,0,1-.24-13.28c2.14-7.68,17.79-51.36,17.79-51.36s3.93-9.89,3.38-32.5l7.09-57.09q-1-14.07-2-28.16L54,253.13l9.12,26.59V333s-15.25,57.66-16.32,77.36,2.81,85.4,2.81,85.4l5.25,43.86,6.73,26.61s-1.2,25.24,0,33.17-5,46.91-5,46.91,1.43,40.16,13.26,70l4.06,21.55v16.41s-5.32,11.34-2,22l-6.1,33.82s-3,16.37,3,21.85a18.43,18.43,0,0,0,13,4.85s12.09,10.83,20.74-1.17S105.42,815,105.42,815l-4.54-42.58.48-9.52s2.26-3.37,1.13-17.1,0-43.86,0-43.86,12.8-41.17,8.21-63.49-4.46-29.89-4.46-29.89l4.24-27.93s2.91-52.79,3.82-59.18,8.62-53.82,8.62-53.82l2.07-32.5h1.87"/><path class="cls-2" d="M91.86,58.42,89,48.63l1.43-28,2.66-5s9-14,21.58-15,27.81,1.77,27.81,1.77S151.8,5.33,155,9s8.72,14.18,8.72,14.18l-1.25,26-3.75,9.69-4.65-26.2S151,24,141.68,23.86s-33.89,0-33.89,0-8.24,2.28-9.05,6.7-4.38,28.28-4.38,28.28Z"/><path class="cls-1" d="M126.83,24.47c14.44,0,15.29-1.34,18.63,0,4.35,1.74,8.25,6.09,8.25,6.09s1.67,9.11,5,27.34L155.9,92.59c-3.75,7-20.11,21.88-20.11,21.88l-9,1.25h-1.22l-9-1.25S100.29,99.64,96.55,92.59L93.74,57.9l5-27.34c3-3.91,6-5.44,8.25-6.09,3.59-1,5.91,0,18.62,0Z"/><path class="cls-1" d="M93,58.19c-.07-1.08-.19-3.41-1.75-4.36s-3.53-.1-4.36.29c-.16,5.84,0,10.76.29,14.55.22,3.28.53,6.08,2.62,8.43.37.43,2.74,3.1,4.36,2.48C96.68,78.59,93.7,70.76,93,58.19Z"/><path class="cls-1" d="M159.87,59.24c.07-1.08.19-3.41,1.75-4.36s3.52-.1,4.36.29c.16,5.84,0,10.76-.29,14.55-.23,3.28-.53,6.08-2.62,8.43-.37.43-2.75,3.1-4.36,2.48C156.15,79.64,159.12,71.81,159.87,59.24Z"/><polyline class="cls-3" points="148.47 146.57 156.66 142.56 205.02 142.56"/><polyline class="cls-3" points="103.93 146.57 95.74 142.56 47.38 142.56"/><path class="cls-3" d="M109.68,120.3s5.74,24.88,10,29.39"/><path class="cls-3" d="M141.24,120.71s-5.74,24.87-10,29.38"/><path class="cls-3" d="M121.24,326.34s6.8,4.2,8.75-.62"/><path class="cls-3" d="M121.76,216.85s-6.77,14.49-19.27,17-31.26,4-40.56,1.91-12.24-14.67-12.24-14.67l-2.75-13.36"/><path class="cls-3" d="M129.69,216.66s6.76,14.49,19.26,17,31.26,4,40.57,1.91,12.23-14.67,12.23-14.67l2.75-13.36"/><path class="cls-3" d="M126.86,243.22c.63,10-.62,37.81-.62,37.81"/><path class="cls-3" d="M65.86,572l3.8,22.68s6.79,8.08,9.08,7.88"/><path class="cls-3" d="M98.48,580.62s3.28,7.61-3.71,14.59"/><path class="cls-3" d="M185.62,572l-3.8,22.68s-6.79,8.08-9.08,7.88"/><path class="cls-3" d="M153,580.62s-3.27,7.61,3.71,14.59"/><path class="cls-4" d="M59.81,346c19.89,1.5,40.89,2.53,62.89,2.91,24.57.42,47.93,0,70-1.07q1.28,4.5,2.51,9.25c2.39,9.26,4.59,19.22,6.42,29.86,1.7,9.79,2.9,19.13,3.75,27.92l-2,63.42-72.11,2.49-3.65-37h-3.13l-1.62,24.44-2.15,13.28-71.92-2.09S45,419.19,47.35,404.78c1.78-10.74,7.81-38.09,10.78-51.36C59.15,348.87,59.81,346,59.81,346Z"/><path class="cls-3" d="M59.06,353.47a645.81,645.81,0,0,0,69.53,4.36,643.53,643.53,0,0,0,65.46-2.76"/><path class="cls-4" d="M134.22,439.69s11.64-2.33,18.91-5.24"/><path class="cls-5" d="M133.92,443.7s10.65-.7,17.47-2.41"/><path class="cls-4" d="M117.63,440.3S106,438,98.72,435.07"/><path class="cls-5" d="M117.93,444.31s-10.65-.7-17.46-2.41"/></g></g></svg>