<svg xmlns="http://www.w3.org/2000/svg" viewBox="0 0 235.92 777.84"><defs><style>.cls-1,.cls-2{fill:#efcea8;}.cls-1,.cls-2,.cls-5,.cls-6{stroke:#000;}.cls-1,.cls-2,.cls-3,.cls-4,.cls-5,.cls-6{stroke-miterlimit:10;}.cls-1{stroke-width:1.01px;}.cls-3{fill:#664020;}.cls-3,.cls-4{stroke:#1d1d1b;}.cls-4,.cls-5{fill:none;}.cls-4{stroke-width:0.95px;}.cls-6{fill:#fff;}</style></defs><title>mujer frente</title><g id="Capa_2" data-name="Capa 2"><g id="Capa_6" data-name="Capa 6"><g id="Mujer_de_frente" data-name="Mujer de frente"><path id="Cuerpo" class="cls-1" d="M180.4,218.39l-13,41.79s-3.47,10.2,8,32.82S197,329.23,196.1,359.24s-6.86,89.29-22.46,129.06c0,0-8.19,31.65-3.78,59.06s4.17,60.69-21,139.17l-1.57,8s8.47,53.89,7.57,65.23l-1.69,9.4S132,781.56,125.5,775.8s-5.11-16-5.11-16l5.37-45.16-.89-14.5L128,686.26s-1.12-48.88-4.92-66.77,3.7-72.22,3.7-72.22l-6.51-87s-4-73.51,13.28-81.27a23,23,0,0,1-31.18,0c17.31,7.76,13.28,81.27,13.28,81.27l-6.52,87s7.52,54.33,3.71,72.22-4.93,66.77-4.93,66.77l3.14,13.86-.9,14.5,5.38,45.16s1.35,10.26-5.11,16-27.71-6.62-27.71-6.62L81,759.78c-.9-11.34,7.57-65.23,7.57-65.23l-1.57-8c-25.14-78.48-25.39-111.77-21-139.17s-3.77-59.06-3.77-59.06c-15.61-39.77-21.56-99.05-22.46-129.06S49,315.62,60.48,293s8-32.82,8-32.82l-13-41.79-.26-40.71,2,16c-5.84,15.12-1.56,25.25-1.56,25.25l-7.77,59.78c1.42,17.24-24.17,94-24.17,94v5.62a44.68,44.68,0,0,1,4.82,13c1.06,6.5-3.53,15.06-3.53,15.06l-.64,13.09s6.11.56,8.91,3.26.71,4.37.71,4.37c2.08,3.49,0,4.38,0,4.38L36,433.38c1.92,2-1.29,8.05-1.29,8.05s-9.44-7.39-7.7-5-2.56,7.5-2.56,7.5L3.24,421.43.52,398.74,10.78,373.6s-.32-20.29,0-55.64,9.75-47.78,9.75-47.78S28,171.61,30.39,156.5s16.42-19,16.42-19c9.63-1.57,28.69-5.38,42.37-13.82a22.09,22.09,0,0,0,6.71-6c6.36-8.87,3.43-20.39,2.17-24.51l39.84,0c-1.42,4.25-4.94,16.64,1.75,25.14a19.64,19.64,0,0,0,7.09,5.41c14,6.93,31.77,11.46,42.37,13.82,0,0,14,3.9,16.42,19s9.85,113.68,9.85,113.68,9.44,12.43,9.76,47.78,0,55.64,0,55.64l10.26,25.14-2.72,22.69-21.18,22.5s-4.31-5.12-2.56-7.5-7.71,5-7.71,5-3.21-6.09-1.28-8.05l1.93-1.95s-2.09-.89,0-4.38c0,0-2.09-1.68.71-4.37s8.91-3.26,8.91-3.26l-.64-13.09s-4.6-8.56-3.53-15.06a44.81,44.81,0,0,1,4.81-13v-5.62s-25.58-76.75-24.16-94l-7.77-59.78s4.28-10.13-1.56-25.25l2-16"/><path id="Cabeza" class="cls-2" d="M135,25.1c10.48,6.77,13.17,17.82,13.78,20.39,1.86,7.9.42,14.13-1.88,24.06a105.92,105.92,0,0,1-7.22,20.94c-14.61,15.43-22.15,14.09-22.15,14.09h.31s-7.54,1.34-22.16-14.09a106,106,0,0,1-7.21-20.94c-2.3-9.93-3.75-16.16-1.88-24.06.61-2.57,3.3-13.62,13.78-20.39A32.47,32.47,0,0,1,135,25.1Z"/><path class="cls-3" d="M101.38,26.91c-5.27,5.85-3.49,10.72-8.73,17.75a27.81,27.81,0,0,1-6.88,6.48l-1.13-1.39,1.45,17a56,56,0,0,1,4.89,12c1.26,4.57,1.94,9.46,5.6,12.92a10.82,10.82,0,0,1,1.48,1.52c2.22,2.82,2.46,6.33,2.29,9,0,0-.22,3.93-1.89,2.33-3.35-3.2-6.26-14.11-6.26-14.11q.85,3,2,6.17c1.08,3,2.23,5.78,3.39,8.32-3.9-.87-10.73-3-12.94-8.38a39.71,39.71,0,0,1-1.17-5.58,49.94,49.94,0,0,1-.72-10.28,4.8,4.8,0,0,1,.11-1.07c.21,0,.3,16.72,3.39,22.75A24.26,24.26,0,0,0,88,105.2l0-.38h0S73.15,101.24,75.62,73.6,79.4,36.51,79.4,36.51l4.22-15.42C85.29,13.36,90.11,7.4,96.29,6a14,14,0,0,1,6.67.15A28.43,28.43,0,0,1,117.52.58a29.25,29.25,0,0,1,15,3.06c17.08,7.81,23.27,29.76,24.14,33,.86,4.75,1.91,11.55,2.62,19.78,1.09,12.65,1.7,20.42-.31,30a67.22,67.22,0,0,1-7.7,19.93,71.37,71.37,0,0,0,1.89-26s5.81,17.46-10.48,26l-5.23,1.31a32.82,32.82,0,0,0,8-12,32.38,32.38,0,0,0,2-9.33,25.43,25.43,0,0,1-2.89,11.35,24.07,24.07,0,0,1-8,8.57,19.26,19.26,0,0,1-.56-5.11,19.65,19.65,0,0,1,1.88-7.95,72.94,72.94,0,0,0,9.28-21c1.75-6.63,3.42-13,2.18-20.75-2.42-15.29-14.9-28.56-27.11-31a22.54,22.54,0,0,0-10.88.28A21.77,21.77,0,0,0,101.38,26.91Z"/><path class="cls-3" d="M104.23,8.33a15.26,15.26,0,0,0-9.89.58c-5.36,2.38-7.48,7.66-8.15,9.31C82.5,27.42,84.7,41.38,83,44.84c-.25.52-1.19,2.43-1.45,2.33l0,0a6.8,6.8,0,0,0,3.09-1.23c5.84-4.33-.43-16,5.72-26.43,2.4-4,4.88-4.86,5.82-5.09a8.64,8.64,0,0,1,5.68.73"/><path class="cls-3" d="M105.89,15.42a15.28,15.28,0,0,1,10.54-3.05c5.95.64,9.43,5,10.41,6.22,3,3.76,2.43,6.19,5.23,16.9,1.92,7.36,2.89,11,4.8,14.11C139,53,143,57.55,151.63,60.86a118.86,118.86,0,0,1-5.16-15.77c-4.36-17.35-2.38-26.19-9.72-34.05a22.83,22.83,0,0,0-9-5.95C118.83,2,110.62,5.84,108.36,7"/><path class="cls-4" d="M141.8,17.87s12.13,12.79,12,25,0,4.58,0,4.58"/><path class="cls-5" d="M117.17,291.43s7,1.66.46,6"/><path class="cls-5" d="M203.27,260.66a31,31,0,0,0-2.33,15.12"/><path class="cls-5" d="M31.63,261a27.63,27.63,0,0,1,2.91,14.47"/><path class="cls-5" d="M74.32,527.13s1.31,8.29,7,10.18"/><path class="cls-5" d="M161,527.27s-1.31,8.29-7,10.18"/><path class="cls-5" d="M95.56,537.31s4.76-1.16,5.07-4.65"/><path class="cls-5" d="M139.77,537.82s-4.76-1.17-5.07-4.66"/><path class="cls-5" d="M75.05,136a57.67,57.67,0,0,0,14.84,1.31c2.89-.13,5-.47,8.14,0a25.63,25.63,0,0,1,9.75,3.64"/><path class="cls-5" d="M159.78,135.83a57.64,57.64,0,0,1-14.84,1.31,36.3,36.3,0,0,0-8.14,0,25.71,25.71,0,0,0-9.75,3.63"/><path class="cls-6" d="M173.75,239.83l2.19-7.06A56.92,56.92,0,0,0,181.68,211c.66-12.44-3.28-21.23-5.72-28.61-3.55-10.73-6.65-26.67-4-48.79l-5.72-1.74-3.83-1.27a93.66,93.66,0,0,1-.48,22.61c-1.46,10.18-2.21,15.42-5.76,19.85-7.12,8.9-20.62,8.47-39.74,7.86-21.58-.7-32.37-1-37.41-7.86-3.69-5-4.53-16.81-6.19-40.42,0-.51-.06-.92-.08-1.2l-9.22,2.78c2.64,22.58-.61,38-4.27,48.18-1.64,4.57-7.12,18.45-5,29,1.53,7.74,3.64,14.62,3.64,14.62.13.43.25.82,1.85,6,.25.79,2.24,7.22,2.48,8,5.13.17,13,.28,22.68-.3,17.15-1,20.43-3,33-2.81,11.18.2,12.78,1.86,26.76,2.91A190.44,190.44,0,0,0,173.75,239.83Z"/><path class="cls-5" d="M125.93,222.41c1.25,1.3,13.2,13.31,30.33,11.1,2.82-.37,18.09-2.42,23.56-13.51a18.46,18.46,0,0,0,1.3-3.49"/><path class="cls-5" d="M110.56,222.7c-1.25,1.3-13.2,13.31-30.33,11.09l-1.4-.19c-2.6-.41-16.87-2.72-22.16-13.31a18.11,18.11,0,0,1-1.38-3.74"/><path class="cls-6" d="M46,322a182.48,182.48,0,0,0,35.86,12.08,154.82,154.82,0,0,0,36.43,4.36c17.52-.07,30.68-3.29,41.9-6.11a219.83,219.83,0,0,0,29.88-9.81A134.64,134.64,0,0,1,195.63,345a136.38,136.38,0,0,1-2.4,53.18l-70.76.07a32.54,32.54,0,0,1,5-15.57,19.25,19.25,0,0,1-5.22,2,21.46,21.46,0,0,1-14.13-2,27.95,27.95,0,0,1,4.18,15.14l-69.78-1.56a115.38,115.38,0,0,1-3.35-48.82A113.61,113.61,0,0,1,46,322Z"/><path class="cls-5" d="M131.34,377.75s13.53-4.08,18.77-8.44"/><path class="cls-5" d="M130.32,380.66s13-2,14.84-2.91"/><path class="cls-5" d="M104.6,378.5s-13.52-4.08-18.76-8.44"/><path class="cls-5" d="M105.62,381.41s-12.94-2-14.84-2.91"/></g></g></g></svg>