<svg xmlns="http://www.w3.org/2000/svg" viewBox="0 0 235.92 777.84"><defs><style>.cls-1{fill:#efcea8;}.cls-1,.cls-5,.cls-6,.cls-7{stroke:#000;}.cls-1,.cls-2,.cls-3,.cls-4,.cls-5,.cls-6,.cls-7{stroke-miterlimit:10;}.cls-1,.cls-7{stroke-width:1.01px;}.cls-2{fill:#664020;}.cls-2,.cls-3,.cls-4{stroke:#1d1d1b;}.cls-3,.cls-4,.cls-6,.cls-7{fill:none;}.cls-4{stroke-width:0.95px;}.cls-5{fill:#fff;}</style></defs><title>mujer espalda</title><g id="Capa_2" data-name="Capa 2"><g id="Capa_6" data-name="Capa 6"><path id="Cuerpo" class="cls-1" d="M180.4,218.39c-1.08,3.92-2.7,9.7-4.75,16.69-5.41,18.46-6.52,20.51-7.18,25.27-1.42,10.26,1.4,17.79,7,32.65,7.91,21.12,14.31,24.25,18.36,41.18a94.13,94.13,0,0,1,2.3,25.06c-.91,30-6.86,89.29-22.46,129.06,0,0-8.19,31.65-3.78,59.06s4.17,60.69-21,139.17l-1.57,8s8.47,53.89,7.57,65.23l-1.69,9.4S132,781.56,125.5,775.8s-5.11-16-5.11-16A70.92,70.92,0,0,1,121.78,744c1.32-6.46,2.89-9.34,2.73-15.38-.13-4.43-1-5.26-1.31-9.6A35.46,35.46,0,0,1,125.6,704l2.4-17.77s-1.12-48.88-4.92-66.77,3.7-72.22,3.7-72.22l-6.51-87a254,254,0,0,1,4.27-67.5,20.39,20.39,0,0,1-4.43-6.55,20.16,20.16,0,0,1-1.6-8,35,35,0,0,1-5.6,15.35c1.15,9,2,18.72,2.59,29,.7,13.52.66,26.15.15,37.73l-6.52,87s7.52,54.33,3.71,72.22-4.93,66.77-4.93,66.77l3.14,13.86q1.47,8,3,15.94a37,37,0,0,0-2,11.64c-.06,5.85,1.36,9.12,2.47,15.42a77.08,77.08,0,0,1,1.1,16.66c.22,10.43-2.78,13.94-5.11,16-6.46,5.76-27.71-6.62-27.71-6.62L81,759.78c-.9-11.34,7.57-65.23,7.57-65.23l-1.57-8c-25.14-78.48-25.39-111.77-21-139.17s-3.77-59.06-3.77-59.06c-15.61-39.77-21.56-99.05-22.46-129.06a93.72,93.72,0,0,1,2.3-25.06C46.54,315.68,54,312.83,60.48,293c2.36-7.17,6.35-19.28,5.45-34.83-.9-15.4-5.56-16.28-7-35.78-.1-1.42-1.17-16.41-1.8-26.72,0-.84-.19-3.16-.47-6.28-.59-6.53-1.38-11.72-1.41-11.71s.36,3.09,2,16l-1.56,25.25-7.77,59.78c1.42,17.24-24.17,94-24.17,94v5.62a44.68,44.68,0,0,1,4.82,13c1.06,6.5-3.53,15.06-3.53,15.06l-.64,13.09s6.11.56,8.91,3.26.71,4.37.71,4.37c2.08,3.49,0,4.38,0,4.38L36,433.38c1.92,2-1.29,8.05-1.29,8.05s-9.44-7.39-7.7-5-2.56,7.5-2.56,7.5L3.24,421.43.52,398.74,10.78,373.6s-.32-20.29,0-55.64,9.75-47.78,9.75-47.78S28,171.61,30.39,156.5s16.42-19,16.42-19c9.63-1.57,28.69-5.38,42.37-13.82a22.09,22.09,0,0,0,6.71-6c6.36-8.87,3.43-20.39,2.17-24.51l39.84,0c-1.42,4.25-4.94,16.64,1.75,25.14a19.64,19.64,0,0,0,7.09,5.41c14,6.93,31.77,11.46,42.37,13.82,0,0,14,3.9,16.42,19s9.85,113.68,9.85,113.68,9.44,12.43,9.76,47.78,0,55.64,0,55.64l10.26,25.14-2.72,22.69-21.18,22.5s-4.31-5.12-2.56-7.5-7.71,5-7.71,5-3.21-6.09-1.28-8.05l1.93-1.95s-2.09-.89,0-4.38c0,0-2.09-1.68.71-4.37s8.91-3.26,8.91-3.26l-.64-13.09s-4.6-8.56-3.53-15.06a44.81,44.81,0,0,1,4.81-13v-5.62s-25.58-76.75-24.16-94q-3.78-29.7-7.55-59.39-.88-12.83-1.78-25.64l2-16"/><path class="cls-2" d="M123.31,106.46a12.07,12.07,0,0,1-4.66-4.8,11,11,0,0,1-1.31-6.25,24.4,24.4,0,0,0,2,8c.67,1.43,1.17,2.09.87,2.62-.69,1.22-4.83.2-8.29-.88q-.4-3.63-.87-3.63T110,106.14a17.45,17.45,0,0,1-3.89-1.17C87,96.69,88.67,56.25,89,50.17l.29,18.2A66.65,66.65,0,0,0,91,78.72a68,68,0,0,0,12.11,25,4.67,4.67,0,0,1-3.8,1.11,1.5,1.5,0,0,1-.83-.37c-3.35-3.2-6.26-14.11-6.26-14.11q.85,3,2,6.17c1.08,3,2.23,5.78,3.39,8.32-3.9-.87-10.73-3-12.94-8.38a39.71,39.71,0,0,1-1.17-5.58,49.94,49.94,0,0,1-.72-10.28,4.8,4.8,0,0,1,.11-1.07c.21,0,.3,16.72,3.39,22.75A24.26,24.26,0,0,0,88,105.2l0-.38S73.15,101.24,75.62,73.6,79.4,36.51,79.4,36.51l4.22-15.42C85.29,13.36,90.11,7.4,96.29,6a14,14,0,0,1,6.67.15A28.43,28.43,0,0,1,117.52.58a29.25,29.25,0,0,1,15,3.06c17.08,7.81,23.27,29.76,24.14,33,.86,4.75,1.91,11.55,2.62,19.78,1.09,12.65,1.7,20.42-.31,30a67.22,67.22,0,0,1-7.7,19.93,71.37,71.37,0,0,0,1.89-26s5.81,17.46-10.48,26l-4.09,1.3a47.05,47.05,0,0,0,6.86-12,38.1,38.1,0,0,0,1.95-8.37c.06-.62.07-1,.08-1a35.52,35.52,0,0,1-2.89,11.35,24.64,24.64,0,0,1-8,9.58l-2.91,1.45C137,93.28,138.87,81.53,140,73.48c.51-3.7.87-6.7.83-6.7s-1.17,10-3.53,21.21a192.07,192.07,0,0,1-5,19Z"/><path class="cls-3" d="M104.23,8.33c-5.17-1.36-8.17-.41-9.89.58-6.88,4-5.29,15.29-9.43,37.19-1.21,6.35-2.49,11.47-3.35,14.69"/><path class="cls-4" d="M110.09,11.47c4.42-1.53,11.17-3,16.56.16,9.08,5.32,8.76,20.55,8.44,35.78a143.36,143.36,0,0,1-6.4,39.13"/><path class="cls-4" d="M113.84,5c8.65-2.71,14.41-.76,16.56.15C142.06,10.07,149,26.76,145,45.81"/><path class="cls-5" d="M46,322c9.47,2.33,22.18,5.07,37.35,7.27,11.25,1.63,22.37,3.21,37.31,3.49a198.92,198.92,0,0,0,39.93-2.62,185.81,185.81,0,0,0,29.48-7.62A157.36,157.36,0,0,1,195.63,345a161.15,161.15,0,0,1-2,62.76l-71.68-1.13,1.74-13a22.11,22.11,0,0,1-5.16-15.49,21,21,0,0,1-1.86,9.82,20.63,20.63,0,0,1-3.74,5.53q.69,6.35,1.4,12.68l-71.39-.52a132,132,0,0,1-3.8-58.26A127.75,127.75,0,0,1,46,322Z"/><path class="cls-6" d="M178.77,395.67s-34.13,20.28-55.44-2.41"/><path class="cls-6" d="M58.72,394.41s34.13,20.28,55.44-2.41"/><line class="cls-6" x1="136.08" y1="325.16" x2="141.19" y2="320.57"/><line class="cls-6" x1="101.24" y1="323.29" x2="96.25" y2="320.57"/><path class="cls-6" d="M154.31,502.58s7.12,20.28,6.15,28.21A89.81,89.81,0,0,1,158.58,542"/><polyline class="cls-6" points="137.96 513.29 132.62 534.53 133.58 540.79"/><path class="cls-6" d="M82.32,504.76S75.21,525.05,76.17,533a90.31,90.31,0,0,0,1.88,11.25"/><polyline class="cls-6" points="98.67 515.48 104.02 536.72 103.05 542.98"/><line class="cls-6" x1="119.21" y1="218.29" x2="119.21" y2="291.63"/><path class="cls-6" d="M193.34,271s2.4,4.65,7.42,2.87l5-1.77"/><path class="cls-6" d="M42,269.41s-2.4,4.65-7.42,2.87l-5-1.78"/><path class="cls-5" d="M174.36,240.08q3-10.85,6-21.69-.61-6.58-1-13.68T179,190.9c-1.09-2.68-2.11-5.5-3-8.47a114.45,114.45,0,0,1-4-48.79l-5.72-1.74-3.83-1.27a93.66,93.66,0,0,1-.48,22.61c-1.46,10.18-2.21,15.42-5.76,19.85-7.12,8.9-20.62,8.47-39.74,7.86-21.58-.7-32.37-1-37.41-7.86-3.69-5-4.53-16.81-6.19-40.42,0-.51-.06-.92-.08-1.2l-9.22,2.78a332.73,332.73,0,0,1-4.27,48.18q-.93,5.73-2,11.23l-.22,7.2c0,2.83.05,6.13.25,9.83.26,4.8.67,8.53.87,10.2A159.74,159.74,0,0,0,61.63,240c5.08.2,13.24.36,23.29-.25,16.87-1,20.32-3,33-2.81,11,.19,12.75,1.78,26.76,2.91A203.82,203.82,0,0,0,174.36,240.08Z"/><path class="cls-7" d="M142.94,731.19s-10.91.22-13.09-1.2-4.42-1.2-6-6.38"/><path class="cls-7" d="M93.28,731.19s10.91.22,13.09-1.2,4.42-1.2,6-6.38"/></g></g></svg>