<svg id="Capa_1" data-name="Capa 1" xmlns="http://www.w3.org/2000/svg" viewBox="0 0 432 562.51"><defs><style>.cls-1{fill:#e9e5eb;}.cls-1,.cls-10,.cls-11,.cls-12,.cls-13,.cls-14,.cls-15,.cls-16,.cls-17,.cls-18,.cls-19,.cls-2,.cls-20,.cls-21,.cls-22,.cls-23,.cls-24,.cls-25,.cls-26,.cls-27,.cls-28,.cls-29,.cls-3,.cls-30,.cls-31,.cls-32,.cls-33,.cls-34,.cls-4,.cls-5,.cls-6,.cls-7,.cls-8,.cls-9{fill-rule:evenodd;}.cls-2{fill:#a7a3ac;}.cls-3{fill:#afaeb3;}.cls-4{fill:#c9c4cc;}.cls-5{fill:#b3acb5;}.cls-6{fill:#c8c3cb;}.cls-7{fill:#979499;}.cls-8{fill:#c0bac2;}.cls-9{fill:#827b88;}.cls-10{fill:#f5cdb0;}.cls-11{fill:#f5caaf;}.cls-12{fill:#c17669;}.cls-13{fill:#c67b69;}.cls-14{fill:#7b7584;}.cls-15{fill:#fbc9ac;}.cls-16{fill:#db9c8a;}.cls-17{fill:#fdddba;}.cls-18{fill:#cab4a9;}.cls-19{fill:#d5beab;}.cls-20{fill:#e2c9b3;}.cls-21{fill:#cbb4a7;}.cls-22{fill:#f4d7b9;}.cls-23{fill:#c7b2a5;}.cls-24{fill:#ecbaa3;}.cls-25{fill:#dfb4a4;}.cls-26{fill:#8097c6;}.cls-27{fill:#6b7898;}.cls-28{fill:#8097c7;}.cls-29{fill:#66718c;}.cls-30{fill:#65708b;}.cls-31{fill:#6a7895;}.cls-32{fill:#636e85;}.cls-33{fill:#5f687c;}.cls-34{fill:#5d6678;}</style></defs><title>M cara atrás</title><path class="cls-1" d="M377.5,104.5q-7.85-6.06-15.5-13c-.17.33-.33.67-.5,1q24.12,26.1,22.5,62A83.11,83.11,0,0,0,355.5,108,39.2,39.2,0,0,1,344,98.5a316.35,316.35,0,0,1,16,30q11.65,27.83,2,56a141.28,141.28,0,0,0-2-40,40.19,40.19,0,0,1-2.5-5,65.94,65.94,0,0,0-8-17,70.6,70.6,0,0,0-24.5-22,92.5,92.5,0,0,0-32.5-30c-1,.5-1.19,1.17-.5,2a97,97,0,0,1,34,46q4.14,21.08-11.5,35.5a118.68,118.68,0,0,1-12,8.5l-1-.5q23.94-26.19,9.5-58.5l-3.5-3.5a614.19,614.19,0,0,0-61-26.5l6-1a67.89,67.89,0,0,0,15,.5q-50.24-10-101-17,14.64,4.56,29,10,38.43,10.19,77,20-23.92-2-48-2.5a199.43,199.43,0,0,0-43,3.5q-37.67,17.4-42,58.5-6.69-33.4,19-55.5a81.69,81.69,0,0,1,30-16,74.89,74.89,0,0,0-40,14.5,90.25,90.25,0,0,0-40.5,47,265.32,265.32,0,0,0,1-35,102.16,102.16,0,0,0-20,42,5,5,0,0,1-.5-3,72.33,72.33,0,0,1,12.5-42L112.5,82A32.42,32.42,0,0,0,100,91.5q-6.37,8.23-12,17A77.48,77.48,0,0,1,118.5,67a36.34,36.34,0,0,1,13-5,58,58,0,0,1,12-8c1.33-.67,1.33-1.33,0-2a8.39,8.39,0,0,0-4-.5,34.34,34.34,0,0,0-16-3,8.39,8.39,0,0,1-4-.5,687.6,687.6,0,0,1,94-14q32-18,68-9,29.21,5.76,46.5,29.5a20.69,20.69,0,0,1,2,6A306.54,306.54,0,0,1,364.5,88,102.25,102.25,0,0,1,377.5,104.5Z" transform="translate(-14.5 -22.01)"/><path class="cls-2" d="M246.5,28.5a111.49,111.49,0,0,1,68,16.5,76.51,76.51,0,0,1,13,12.5l-1,1a222.16,222.16,0,0,0-57-26.5Q258,30.13,246.5,28.5Z" transform="translate(-14.5 -22.01)"/><path class="cls-3" d="M123.5,48.5a34.34,34.34,0,0,1,16,3A77.39,77.39,0,0,1,123.5,48.5Z" transform="translate(-14.5 -22.01)"/><path class="cls-4" d="M349.5,122.5q14,39.92-20,66.5a81.47,81.47,0,0,1-22,10q32-18.69,33.5-55.5a47.58,47.58,0,0,0-2.5-5q-3.21,43.42-44,57.5a100.22,100.22,0,0,0,31-43q5.29-19-3.5-3.5A82,82,0,0,1,304.5,164a194.73,194.73,0,0,1-51,23A126.88,126.88,0,0,0,299,140.5a54,54,0,0,0,5-33,20.68,20.68,0,0,0-11.5-11,94.73,94.73,0,0,0-14-1Q249,97.57,219.5,97a41.48,41.48,0,0,1-15-4.5,8,8,0,0,0-7-1.5A106.21,106.21,0,0,0,152,125.5a47,47,0,0,0-5,12,269.75,269.75,0,0,0,0,29,68.87,68.87,0,0,1-7-14q-.41,6.67-.5,13-25.64-32.08-.5-64A74,74,0,0,1,154.5,88a9.45,9.45,0,0,0-6,.5,74.89,74.89,0,0,1,40-14.5,81.69,81.69,0,0,0-30,16q-25.68,22.1-19,55.5,4.33-41.1,42-58.5a199.43,199.43,0,0,1,43-3.5q24.08.51,48,2.5-38.56-9.81-77-20-14.35-5.43-29-10,50.76,7.05,101,17a67.89,67.89,0,0,1-15-.5l-6,1a614.19,614.19,0,0,1,61,26.5l3.5,3.5q14.44,32.31-9.5,58.5l1,.5a118.68,118.68,0,0,0,12-8.5q15.64-14.42,11.5-35.5a97,97,0,0,0-34-46c-.69-.83-.52-1.5.5-2a92.5,92.5,0,0,1,32.5,30A70.6,70.6,0,0,1,349.5,122.5Z" transform="translate(-14.5 -22.01)"/><path class="cls-5" d="M204.5,92.5a41.48,41.48,0,0,0,15,4.5q29.52.57,59-1.5a94.73,94.73,0,0,1,14,1,1.83,1.83,0,0,0-2,1,6,6,0,0,1,2,5,291.21,291.21,0,0,0-103,35.5A64.47,64.47,0,0,0,176,151.5a45.86,45.86,0,0,1,1-25q12.08-15.59,23-32a3.17,3.17,0,0,1,4.5,0C205.46,94,205.46,93.36,204.5,92.5Z" transform="translate(-14.5 -22.01)"/><path class="cls-2" d="M204.5,92.5c1,.86,1,1.53,0,2a3.17,3.17,0,0,0-4.5,0q-10.92,16.43-23,32a45.86,45.86,0,0,0-1,25A64.47,64.47,0,0,1,189.5,138a291.21,291.21,0,0,1,103-35.5,6,6,0,0,0-2-5,1.83,1.83,0,0,1,2-1,20.68,20.68,0,0,1,11.5,11,54,54,0,0,1-5,33A126.88,126.88,0,0,1,253.5,187a194.73,194.73,0,0,0,51-23A82,82,0,0,0,322,149.5q8.79-15.5,3.5,3.5a100.22,100.22,0,0,1-31,43q40.8-14.08,44-57.5a47.58,47.58,0,0,1,2.5,5q-1.54,36.81-33.5,55.5a81.47,81.47,0,0,0,22-10q34-26.59,20-66.5a65.94,65.94,0,0,1,8,17q4,43.08-28,71.5a235.65,235.65,0,0,0,61-30,5.79,5.79,0,0,0,2-5.5h3a50,50,0,0,0,.5,10q.75-11.49.5-23a132,132,0,0,1,.5,28,19.22,19.22,0,0,1-2.5,8,10.05,10.05,0,0,0-1.5-6,145.37,145.37,0,0,1-5,16q-8.4,15.33-17.5,30l-2,1a.91.91,0,0,0-.5-1,170.77,170.77,0,0,0-14,17,68.23,68.23,0,0,0,0-14,7.92,7.92,0,0,0-2-4q-3,34.49-33.5,50-.4-4.53,3.5-8a63.09,63.09,0,0,1,4-12,35.32,35.32,0,0,0,.5-17,78.45,78.45,0,0,1-14.5,25,282.55,282.55,0,0,0-41,39,18.2,18.2,0,0,1,4-9l23-27a35.84,35.84,0,0,1,4-7,2.49,2.49,0,0,0,0-3,231.71,231.71,0,0,1-43.5,33c-1-.5-1.19-1.17-.5-2q11.7-13.2,24.5-25.5a413.37,413.37,0,0,0,40-36.5l-1-1a208.19,208.19,0,0,1-56,30.5A114.91,114.91,0,0,0,288,241.5c.69-.83.52-1.5-.5-2a180,180,0,0,1-70.5,28A73.63,73.63,0,0,1,183.5,252,165.53,165.53,0,0,1,155,219.5a66.75,66.75,0,0,0,14,35,294.85,294.85,0,0,0,45.5,41q3.69,2.33,2,6a336.82,336.82,0,0,1-31-15.5A59.35,59.35,0,0,1,167,264.5a2.49,2.49,0,0,0,0,3A165.7,165.7,0,0,0,193.5,302a9.75,9.75,0,0,1-7-2A90.65,90.65,0,0,1,162,279.5a156.08,156.08,0,0,1-13-25,27.64,27.64,0,0,0,3,14,144,144,0,0,0,19,26c.69.83.52,1.5-.5,2a125.71,125.71,0,0,1-38-37q-3.87-9.84-7.5-20a65.35,65.35,0,0,1-14-29,42.29,42.29,0,0,0,0,13q4.35,11.2,9.5,22a8.39,8.39,0,0,1-4-.5,35.44,35.44,0,0,0-9-6.5q-10.17-27.65-18.5-56a234.31,234.31,0,0,1-.5-43,5,5,0,0,0,.5,3,102.16,102.16,0,0,1,20-42,265.32,265.32,0,0,1-1,35,90.25,90.25,0,0,1,40.5-47,9.45,9.45,0,0,1,6-.5A74,74,0,0,0,139,101.5q-25.12,31.91.5,64,.09-6.31.5-13a68.87,68.87,0,0,0,7,14,269.75,269.75,0,0,1,0-29,47,47,0,0,1,5-12A106.21,106.21,0,0,1,197.5,91,8,8,0,0,1,204.5,92.5Z" transform="translate(-14.5 -22.01)"/><path class="cls-6" d="M377.5,104.5a100.35,100.35,0,0,1,17,43,31.85,31.85,0,0,0,2,13v2q.25,11.5-.5,23a50,50,0,0,1-.5-10h-3a5.79,5.79,0,0,1-2,5.5,235.65,235.65,0,0,1-61,30q32.06-28.42,28-71.5a40.19,40.19,0,0,0,2.5,5,141.28,141.28,0,0,1,2,40q9.66-28.18-2-56a316.35,316.35,0,0,0-16-30,39.2,39.2,0,0,0,11.5,9.5A83.11,83.11,0,0,1,384,154.5q1.62-35.9-22.5-62c.17-.33.33-.67.5-1Q369.67,98.45,377.5,104.5Z" transform="translate(-14.5 -22.01)"/><path class="cls-7" d="M394.5,147.5a31.85,31.85,0,0,1,2,13A31.85,31.85,0,0,1,394.5,147.5Z" transform="translate(-14.5 -22.01)"/><path class="cls-8" d="M394.5,198.5a41.88,41.88,0,0,1-3.5,13,142.51,142.51,0,0,1-17,23,13.12,13.12,0,0,1-1.5,5q.13-3.3-2-1,9.09-14.67,17.5-30a145.37,145.37,0,0,0,5-16A10.05,10.05,0,0,1,394.5,198.5Z" transform="translate(-14.5 -22.01)"/><path class="cls-9" d="M132.5,259.5a6,6,0,0,0-5-2v4a3.31,3.31,0,0,1-1.5-2,20,20,0,0,1-1.5,6l-6-5q-5.27-7.81-10-14a16.61,16.61,0,0,1-1-8,35.44,35.44,0,0,1,9,6.5,8.39,8.39,0,0,0,4,.5q-5.15-10.8-9.5-22a42.29,42.29,0,0,1,0-13,65.35,65.35,0,0,0,14,29Q128.63,249.66,132.5,259.5Z" transform="translate(-14.5 -22.01)"/><path class="cls-10" d="M372.5,239.5a117.82,117.82,0,0,1-14.5,50,82.79,82.79,0,0,1-9.5,11.5,11.56,11.56,0,0,1-7-.5,7,7,0,0,1,2-4,145.09,145.09,0,0,0,15-40q4.62-8.75,10-17l2-1Q372.63,236.21,372.5,239.5Z" transform="translate(-14.5 -22.01)"/><path class="cls-11" d="M118.5,260.5a206,206,0,0,0,18,39l1-3a50.43,50.43,0,0,1-1-7,139.66,139.66,0,0,0,11,17h-3a3.08,3.08,0,0,0-1-3,11.57,11.57,0,0,0-2,5,29.09,29.09,0,0,1,1,9q-2-6.33-4-13a29,29,0,0,1-9.5-3,96,96,0,0,1-12.5-23,87,87,0,0,0-5-14l-3-18Q113.24,252.7,118.5,260.5Z" transform="translate(-14.5 -22.01)"/><path class="cls-12" d="M358.5,256.5a145.09,145.09,0,0,1-15,40,3.39,3.39,0,0,1-1-2.5,124.45,124.45,0,0,1,3-15.5A90.88,90.88,0,0,1,358.5,256.5Z" transform="translate(-14.5 -22.01)"/><path class="cls-13" d="M127.5,261.5a170.84,170.84,0,0,0,9,28,50.43,50.43,0,0,0,1,7l-1,3a206,206,0,0,1-18-39l6,5a20,20,0,0,0,1.5-6A3.31,3.31,0,0,0,127.5,261.5Z" transform="translate(-14.5 -22.01)"/><path class="cls-14" d="M368.5,239.5q-5.37,8.25-10,17a90.88,90.88,0,0,0-13,22,167.93,167.93,0,0,1-12.5,21,45.06,45.06,0,0,1-10.5,9c-.67-2.33-1.33-4.67-2-7a25.41,25.41,0,0,0-5,7,113.51,113.51,0,0,0-17.5,23,40.4,40.4,0,0,0,.5,14q-13.74-.72-18-14a16.91,16.91,0,0,0-1-8,148.71,148.71,0,0,0-3,19,30.61,30.61,0,0,1-16,23l-1-2.5q1.39-6.3,3-12.5a43.49,43.49,0,0,0,.5-16,32,32,0,0,1-2.5-4,131.69,131.69,0,0,1-5,17,46.61,46.61,0,0,1-11.5,19,54,54,0,0,1-2.5-10,70.47,70.47,0,0,0-3-15q-.67-5.49-1.5-11a3.58,3.58,0,0,0-1.5-1,103.65,103.65,0,0,0-2,18,9.2,9.2,0,0,0-1,5q-2.1,5.53-4,11.5c-.35,1.26-1,1.59-2,1a132.75,132.75,0,0,1-14-29.5,17.84,17.84,0,0,0-2-8,67.28,67.28,0,0,0,0,23,55.29,55.29,0,0,0,3,14l-1.5,1a56.42,56.42,0,0,1-8-6,73.34,73.34,0,0,1-7.5-13q-1.59-9.54-3.5-19-2.77,17.83-19.5,17.5a14.24,14.24,0,0,0,.5-13.5,158.25,158.25,0,0,0-17.5-24q-4.69-10.33-6,1c-1-.69-2-1.36-3-2a139.66,139.66,0,0,1-11-17,170.84,170.84,0,0,1-9-28v-4a6,6,0,0,1,5,2,125.71,125.71,0,0,0,38,37c1-.5,1.19-1.17.5-2a144,144,0,0,1-19-26,27.64,27.64,0,0,1-3-14,156.08,156.08,0,0,0,13,25A90.65,90.65,0,0,0,186.5,300a9.75,9.75,0,0,0,7,2A165.7,165.7,0,0,1,167,267.5a2.49,2.49,0,0,1,0-3A59.35,59.35,0,0,0,185.5,286a336.82,336.82,0,0,0,31,15.5q1.69-3.67-2-6a294.85,294.85,0,0,1-45.5-41,66.75,66.75,0,0,1-14-35A165.53,165.53,0,0,0,183.5,252,73.63,73.63,0,0,0,217,267.5a180,180,0,0,0,70.5-28c1,.5,1.19,1.17.5,2A114.91,114.91,0,0,1,265.5,267a208.19,208.19,0,0,0,56-30.5l1,1a413.37,413.37,0,0,1-40,36.5q-12.79,12.3-24.5,25.5c-.69.83-.52,1.5.5,2a231.71,231.71,0,0,0,43.5-33,2.49,2.49,0,0,1,0,3,35.84,35.84,0,0,0-4,7l-23,27a18.2,18.2,0,0,0-4,9,282.55,282.55,0,0,1,41-39,78.45,78.45,0,0,0,14.5-25,35.32,35.32,0,0,1-.5,17,63.09,63.09,0,0,0-4,12q-3.9,3.48-3.5,8Q349,272,352,237.5a7.92,7.92,0,0,1,2,4,68.23,68.23,0,0,1,0,14,170.77,170.77,0,0,1,14-17A.91.91,0,0,1,368.5,239.5Z" transform="translate(-14.5 -22.01)"/><path class="cls-15" d="M156.5,307.5a479.19,479.19,0,0,1,12,50,135.3,135.3,0,0,1-23.5-28q-1.55-6-2.5-12a29.09,29.09,0,0,0-1-9,11.57,11.57,0,0,1,2-5,3.08,3.08,0,0,1,1,3h3c1,.64,2,1.31,3,2Q151.81,297.16,156.5,307.5Z" transform="translate(-14.5 -22.01)"/><path class="cls-16" d="M345.5,278.5a124.45,124.45,0,0,0-3,15.5,3.39,3.39,0,0,0,1,2.5,7,7,0,0,0-2,4q-5.65,14.7-10.5,30a153,153,0,0,1-22.5,25q2.4-23.69,7-47a25.41,25.41,0,0,1,5-7c.67,2.33,1.33,4.67,2,7a45.06,45.06,0,0,0,10.5-9A167.93,167.93,0,0,0,345.5,278.5Z" transform="translate(-14.5 -22.01)"/><path class="cls-17" d="M156.5,307.5a158.25,158.25,0,0,1,17.5,24,14.24,14.24,0,0,1-.5,13.5q16.73.33,19.5-17.5,1.91,9.45,3.5,19a15.17,15.17,0,0,0,0,8.5,75.47,75.47,0,0,0,16,16.5,13.33,13.33,0,0,0,1-3q2.67,5.85,3.5-1l1,1a6.87,6.87,0,0,0,3-5q.34,6,4,2a4,4,0,0,0,3.5,2,28.82,28.82,0,0,1,7-2,21.15,21.15,0,0,0-1-9,3.5,3.5,0,0,1-2-4,9.2,9.2,0,0,1,1-5,68.35,68.35,0,0,0,2.5-15,21.41,21.41,0,0,0,2.5,9,27.92,27.92,0,0,0,3,15,54,54,0,0,0,2.5,10,46.61,46.61,0,0,0,11.5-19,19.28,19.28,0,0,0,6-10,43.05,43.05,0,0,1,1,13q-1.61,6.19-3,12.5l1,2.5a30.61,30.61,0,0,0,16-23,75,75,0,0,1,4-11q4.26,13.28,18,14a40.4,40.4,0,0,1-.5-14,113.51,113.51,0,0,1,17.5-23q-4.61,23.33-7,47a66,66,0,0,0-3.5,14q-1.17,14.52-2.5,29-1,4.78-2,10a18.37,18.37,0,0,0-9-2,659.93,659.93,0,0,0-78-6,92.48,92.48,0,0,0-36.5,5,3.31,3.31,0,0,0-1.5-2,246.36,246.36,0,0,0-7-46A479.19,479.19,0,0,0,156.5,307.5Z" transform="translate(-14.5 -22.01)"/><path class="cls-18" d="M280.5,331.5a75,75,0,0,0-4,11,148.71,148.71,0,0,1,3-19A16.91,16.91,0,0,1,280.5,331.5Z" transform="translate(-14.5 -22.01)"/><path class="cls-19" d="M212.5,335.5a5.5,5.5,0,0,1-1.5-3,161.37,161.37,0,0,0-.5,18,67.28,67.28,0,0,1,0-23A17.84,17.84,0,0,1,212.5,335.5Z" transform="translate(-14.5 -22.01)"/><path class="cls-20" d="M262.5,350.5a43.05,43.05,0,0,0-1-13,19.28,19.28,0,0,1-6,10,131.69,131.69,0,0,0,5-17,32,32,0,0,0,2.5,4A43.49,43.49,0,0,1,262.5,350.5Z" transform="translate(-14.5 -22.01)"/><path class="cls-21" d="M238.5,341.5a21.41,21.41,0,0,1-2.5-9,68.35,68.35,0,0,1-2.5,15,103.65,103.65,0,0,1,2-18,3.58,3.58,0,0,1,1.5,1Q237.83,336,238.5,341.5Z" transform="translate(-14.5 -22.01)"/><path class="cls-22" d="M212.5,335.5a132.75,132.75,0,0,0,14,29.5c1,.59,1.65.26,2-1q1.91-6,4-11.5a3.5,3.5,0,0,0,2,4,21.15,21.15,0,0,1,1,9,28.82,28.82,0,0,0-7,2,4,4,0,0,1-3.5-2q-3.66,4-4-2a6.87,6.87,0,0,1-3,5l-1-1q-.83,6.86-3.5,1a13.33,13.33,0,0,1-1,3,75.47,75.47,0,0,1-16-16.5,15.17,15.17,0,0,1,0-8.5,73.34,73.34,0,0,0,7.5,13,56.42,56.42,0,0,0,8,6l1.5-1a55.29,55.29,0,0,1-3-14,161.37,161.37,0,0,1,.5-18A5.5,5.5,0,0,0,212.5,335.5Z" transform="translate(-14.5 -22.01)"/><path class="cls-23" d="M238.5,341.5a70.47,70.47,0,0,1,3,15A27.92,27.92,0,0,1,238.5,341.5Z" transform="translate(-14.5 -22.01)"/><path class="cls-24" d="M291.5,406.5q-18.48-1.23-37-1-39.56-.57-79,2v-4a3.31,3.31,0,0,1,1.5,2,92.48,92.48,0,0,1,36.5-5A659.93,659.93,0,0,1,291.5,406.5Z" transform="translate(-14.5 -22.01)"/><path class="cls-25" d="M302.5,398.5v12q-24.25-2.13-48-5,18.53-.22,37,1a18.37,18.37,0,0,1,9,2Q301.51,403.28,302.5,398.5Z" transform="translate(-14.5 -22.01)"/><path class="cls-26" d="M254.5,405.5q23.75,2.88,48,5a22,22,0,0,1,9,8.5q8.73,5.49,17,11.5a323.58,323.58,0,0,1-53-3.5A759.37,759.37,0,0,0,146,432.5a9.88,9.88,0,0,1-4.5-1q17-12,34-24Q214.94,404.94,254.5,405.5Z" transform="translate(-14.5 -22.01)"/><path class="cls-27" d="M328.5,430.5a7.77,7.77,0,0,1,5,4,771.44,771.44,0,0,0-198,1,19,19,0,0,1,6-4,9.88,9.88,0,0,0,4.5,1A759.37,759.37,0,0,1,275.5,427,323.58,323.58,0,0,0,328.5,430.5Z" transform="translate(-14.5 -22.01)"/><path class="cls-28" d="M333.5,434.5l72,44a205.28,205.28,0,0,0,28,19,194.08,194.08,0,0,1,3,31,520.84,520.84,0,0,1-131,50,457.83,457.83,0,0,1-87,5,53.59,53.59,0,0,0-16-2,138.25,138.25,0,0,0-25-4,270.41,270.41,0,0,1-47-12,319.9,319.9,0,0,0-33-11,740.19,740.19,0,0,1-70-27,76.88,76.88,0,0,1,10-35.5q31.62-18.3,64-35a14.8,14.8,0,0,0,3-3.5q15.25-9.37,31-18A771.44,771.44,0,0,1,333.5,434.5Z" transform="translate(-14.5 -22.01)"/><path class="cls-29" d="M104.5,453.5a14.8,14.8,0,0,1-3,3.5q-32.39,16.69-64,35a76.88,76.88,0,0,0-10,35.5l-12-5-1-2q4.56-9.82,8.5-20A63.84,63.84,0,0,1,46.5,482Q76.26,468.88,104.5,453.5Z" transform="translate(-14.5 -22.01)"/><path class="cls-30" d="M405.5,478.5a12.46,12.46,0,0,1,9,5q8.88,4.69,18,8.5a25.52,25.52,0,0,1,6.5,5.5,51.29,51.29,0,0,1,7.5,25.5,73.14,73.14,0,0,1-10,5.5,194.08,194.08,0,0,0-3-31A205.28,205.28,0,0,1,405.5,478.5Z" transform="translate(-14.5 -22.01)"/><path class="cls-31" d="M97.5,554.5a319.9,319.9,0,0,1,33,11A191.62,191.62,0,0,1,97.5,554.5Z" transform="translate(-14.5 -22.01)"/><path class="cls-32" d="M177.5,577.5a138.25,138.25,0,0,1,25,4A108.58,108.58,0,0,1,177.5,577.5Z" transform="translate(-14.5 -22.01)"/><path class="cls-33" d="M202.5,581.5a53.59,53.59,0,0,1,16,2A65.72,65.72,0,0,1,202.5,581.5Z" transform="translate(-14.5 -22.01)"/><path class="cls-34" d="M305.5,578.5a215.53,215.53,0,0,1-38,5.5,401.88,401.88,0,0,1-49-.5A457.83,457.83,0,0,0,305.5,578.5Z" transform="translate(-14.5 -22.01)"/></svg>