<svg id="Capa_1" data-name="Capa 1" xmlns="http://www.w3.org/2000/svg" viewBox="0 0 614 552.2"><defs><style>.cls-1{fill:#4f505d;}.cls-1,.cls-2,.cls-3,.cls-4,.cls-5,.cls-6,.cls-7,.cls-8,.cls-9{fill-rule:evenodd;}.cls-2{fill:#464954;}.cls-3{fill:#eabea7;}.cls-4{fill:#ebc0a7;}.cls-5{fill:#f2d3bc;}.cls-6{fill:#e8b69e;}.cls-7{fill:#484a55;}.cls-8{fill:#e9b7a2;}.cls-9{fill:#8097c7;}</style></defs><title>Cara T</title><path class="cls-1" d="M444.5,215.5a28.68,28.68,0,0,0-7.5,14,333.54,333.54,0,0,0-4.5,44,145,145,0,0,1-11,20q-1.54,3-3,6a221.22,221.22,0,0,0-17,32,.91.91,0,0,0-.5-1,29.78,29.78,0,0,1-4.5,6,12.66,12.66,0,0,1,.5-10,73.2,73.2,0,0,1,5.5-9l-1-1q-6.58,7.32-13.5,14A75.66,75.66,0,0,1,374.5,317a2.49,2.49,0,0,0-3,0q-3,6.6-5.5,13.5-3,4.83-7.5,1.5a132,132,0,0,0-10-9.5q-5.76,4.49-12,8.5a7.15,7.15,0,0,1-8.5-2.5l-4-10A47.08,47.08,0,0,1,313.5,331a4.23,4.23,0,0,1-4,0,63.17,63.17,0,0,1-8.5-14.5,88.94,88.94,0,0,1-13.5,14,95.68,95.68,0,0,1-2.5-11,57.76,57.76,0,0,1-8.5,14,125.64,125.64,0,0,0-14-16,40,40,0,0,1-4,10.5,4.23,4.23,0,0,1-4,0,100.09,100.09,0,0,1-10-6.5,9.83,9.83,0,0,0-1,6q-9.66-11.64-18-24a59.63,59.63,0,0,0-6.5-13,79.87,79.87,0,0,1-5.5-18q-2.24-24.93-2.5-50a12.76,12.76,0,0,0-7.5-8,6.23,6.23,0,0,1-3.5-6,277.27,277.27,0,0,1-7-76A56.37,56.37,0,0,1,210.5,93a56,56,0,0,1,24.66-21.2,54.28,54.28,0,0,1,19.2-4.36c5.62-2.06,10.15-4,13.31-5.46A188.67,188.67,0,0,0,293.5,48c5.48-3.57,6.95-5,11.31-6.92A52.17,52.17,0,0,1,319.5,37q47.51-4.5,88,20A82.14,82.14,0,0,1,441,104.5,320.48,320.48,0,0,1,451.5,175a377.9,377.9,0,0,1-4.5,38.5A9.65,9.65,0,0,0,444.5,215.5Z" transform="translate(-17.5 -36.3)"/><path class="cls-2" d="M270.48,66.27q20.5,3.26,29.5,22a113.2,113.2,0,0,1,9,38l-17-23q1.17,11.45,2.5,23a184,184,0,0,1-2.5,22,321.45,321.45,0,0,0-8-38,46.46,46.46,0,0,0-6.5-9.5q-11.55-8.13-19.5,3.5-2.24,20.07-5,40a225.7,225.7,0,0,0-13.5-32,75.23,75.23,0,0,1-.5-32,8.48,8.48,0,0,1,4.5-6,29.51,29.51,0,0,1,27-8Z" transform="translate(-17.5 -36.3)"/><path class="cls-3" d="M203.5,214.5a12.76,12.76,0,0,1,7.5,8q.27,25.07,2.5,50-.47,1.86-1.5,0l-16-34a42.29,42.29,0,0,1,0-13A48.83,48.83,0,0,1,203.5,214.5Z" transform="translate(-17.5 -36.3)"/><path class="cls-4" d="M444.5,215.5q8.38,10,5.5,23a143.34,143.34,0,0,1-17.5,35,333.54,333.54,0,0,1,4.5-44A28.68,28.68,0,0,1,444.5,215.5Z" transform="translate(-17.5 -36.3)"/><path class="cls-5" d="M421.5,293.5a200.87,200.87,0,0,1-9.5,45l-6.5,11a46.52,46.52,0,0,0-.71,6.09c-.59,11.13,2.64,23.55,4,28.68a43,43,0,0,1,.74,7.23,6.93,6.93,0,0,1-1,4,29.43,29.43,0,0,0-11.5,12A115.86,115.86,0,0,1,329.5,439a99.75,99.75,0,0,1-20,0q-17.61-5.7-35-12A111.22,111.22,0,0,1,240,395.5q-1.65-2.83-4-2a92.54,92.54,0,0,0,1.5-15,112.14,112.14,0,0,0,5-26,31.28,31.28,0,0,0,.5-8,75.94,75.94,0,0,1-12.5-28,5,5,0,0,1,.5-3l3,4a169.45,169.45,0,0,0,14,28,55.68,55.68,0,0,0,15.5,6.5q46,.35,92,1.5a63,63,0,0,0,19-3,103.47,103.47,0,0,0,23,.5,58,58,0,0,0,9.5-15.5q5.63-18.12,11.5-36Q420,296.53,421.5,293.5Z" transform="translate(-17.5 -36.3)"/><path class="cls-6" d="M418.5,299.5q-5.88,17.88-11.5,36a58.21,58.21,0,0,1-9.5,15.5,103.47,103.47,0,0,1-23-.5,63,63,0,0,1-19,3q-46-1.15-92-1.5a55.68,55.68,0,0,1-15.5-6.5,169.45,169.45,0,0,1-14-28l-3-4a5,5,0,0,0-.5,3,114.69,114.69,0,0,1-5-13q8.34,12.36,18,24a48.76,48.76,0,0,0,7.5,17,113.81,113.81,0,0,1,25.5-.5,128,128,0,0,0,33,5.5q27-1,54-1.5a101.22,101.22,0,0,0,19.5-4.5q4.32,1.29,8.5,3a20.86,20.86,0,0,0,10-15A221.22,221.22,0,0,1,418.5,299.5Z" transform="translate(-17.5 -36.3)"/><path class="cls-7" d="M401.5,331.5a20.86,20.86,0,0,1-10,15q-4.19-1.71-8.5-3a101.22,101.22,0,0,1-19.5,4.5q-27,.51-54,1.5a128,128,0,0,1-33-5.5,113.81,113.81,0,0,0-25.5.5,48.76,48.76,0,0,1-7.5-17,9.83,9.83,0,0,1,1-6,100.09,100.09,0,0,0,10,6.5,4.23,4.23,0,0,0,4,0,40,40,0,0,0,4-10.5,125.64,125.64,0,0,1,14,16,57.76,57.76,0,0,0,8.5-14,95.68,95.68,0,0,0,2.5,11,89.37,89.37,0,0,0,13.5-14,63.39,63.39,0,0,0,8.5,14.5,4.23,4.23,0,0,0,4,0A47.08,47.08,0,0,0,324,318.5l4,10a7.15,7.15,0,0,0,8.5,2.5q6.24-4,12-8.5a132,132,0,0,1,10,9.5q4.51,3.33,7.5-1.5,2.46-6.9,5.5-13.5a2.49,2.49,0,0,1,3,0A75.66,75.66,0,0,0,388,330.5q6.92-6.67,13.5-14l1,1a73.2,73.2,0,0,0-5.5,9,12.66,12.66,0,0,0-.5,10,29.78,29.78,0,0,0,4.5-6A.91.91,0,0,1,401.5,331.5Z" transform="translate(-17.5 -36.3)"/><path class="cls-8" d="M237.5,378.5a92.54,92.54,0,0,1-1.5,15q2.35-.84,4,2A111.22,111.22,0,0,0,274.5,427q17.38,6.3,35,12a99.75,99.75,0,0,0,20,0A115.86,115.86,0,0,0,397,407.5a29.43,29.43,0,0,1,11.5-12q-23.46,40-70,46.5-53.81,9.25-92.5-28.5a79.63,79.63,0,0,1-9-12,15.48,15.48,0,0,1-2.5-7A77.39,77.39,0,0,1,237.5,378.5Z" transform="translate(-17.5 -36.3)"/><path class="cls-9" d="M409.5,391.5q73.81,20.08,147,42.5,38.34,15,75,32.5Q563.57,504,496.5,543q-44.5-.24-89-1l-83,46.5q-42.78-17.73-86-35.5l-33-31q-43-3.27-86-7-46.2-22.89-93-44a30.78,30.78,0,0,1-9-5.5q49.29-23.13,101-41.5a421.43,421.43,0,0,0,47-10q34.59-9.53,69-19.5a15.48,15.48,0,0,0,2.5,7,79.63,79.63,0,0,0,9,12q38.7,37.75,92.5,28.5,46.54-6.48,70-46.5A6.93,6.93,0,0,0,409.5,391.5Z" transform="translate(-17.5 -36.3)"/></svg>