<svg id="Capa_1" data-name="Capa 1" xmlns="http://www.w3.org/2000/svg" viewBox="0 0 415.19 704"><defs><style>.cls-1{fill:#f9d6bc;}.cls-1,.cls-10,.cls-11,.cls-12,.cls-13,.cls-14,.cls-15,.cls-16,.cls-17,.cls-2,.cls-3,.cls-4,.cls-5,.cls-6,.cls-7,.cls-8,.cls-9{fill-rule:evenodd;}.cls-2{fill:#f0c2a8;}.cls-3{fill:#f0c1a7;}.cls-4{fill:#afa198;}.cls-5{fill:#efaf94;}.cls-6{fill:#eead92;}.cls-7{fill:#f5c5ab;}.cls-8{fill:#eeae93;}.cls-9{fill:#f4c1a6;}.cls-10{fill:#f4c3a8;}.cls-11{fill:#f0c6ad;}.cls-12{fill:#efae93;}.cls-13{fill:#806d65;}.cls-14{fill:#796d67;}.cls-15{fill:#f6f7f7;}.cls-16{fill:#edeeee;}.cls-17{fill:#dedfdf;}</style></defs><title>H VT</title><path class="cls-1" d="M170.5,27.5h117a72.88,72.88,0,0,0-4.5,49A29.46,29.46,0,0,0,302.5,91a88.28,88.28,0,0,0,26,13.5,36.13,36.13,0,0,1,7,4,85.83,85.83,0,0,0,24,22.5,241.46,241.46,0,0,0,28,8,100.94,100.94,0,0,0,24,12q10.83,7.16,22,13.5.25,176-.5,352a24.79,24.79,0,0,0-1.5-7,70.58,70.58,0,0,0-4-34q-6.13-12-12.19-24.54-3.45-7.2-6.81-14.46.5-3,1-6-6.58-27.51-11-55.5l-1-2.5c-.67,2.81-1.33,5.47-2,8a45,45,0,0,0-3-14,3.09,3.09,0,0,0-1,3,121.71,121.71,0,0,0-25.5,30q-6.45,18.78-11,38-7.61,37.77-16,75a147.47,147.47,0,0,0-1.5,21,804.42,804.42,0,0,1,4,82q-28.33.88-57,3-14.47,1.61-29,3a38,38,0,0,1-3.85.72c-1.12.15-2.17.24-3.15.28q-15.48,1-31,1h-5q-43.51-3.64-87-8a64.56,64.56,0,0,0-16-1,2.87,2.87,0,0,1-3-1c-.7-5.38-1.59-13.55-1.92-23.52-.49-15,.78-18.34,1.07-34.32.37-20.22-1.53-22.38-1.4-45.75.07-12.16.58-10.51,1-26.73,1.16-46.47-3.07-57.53-5.09-62.17-2.28-5.25-5.68-10.41-12.48-20.74A308.52,308.52,0,0,0,67.5,373a5.05,5.05,0,0,0-1.45-.49,5.36,5.36,0,0,0-1.55,0v-3a4.6,4.6,0,0,0-2-5,39.8,39.8,0,0,0-2,10q-4.8,23.75-11,47l-2,7q-4.95,11.78-9,24c-.36,1-.92,2.55-1.63,4.43S35.7,460,35.5,460.5c-.73,1.87-1.76,4.75-3,9l-3,10a247.16,247.16,0,0,0-10,45q-1.5-179.25-1-359a431.76,431.76,0,0,1,55-29.5,63.68,63.68,0,0,0,21-5.5,303.54,303.54,0,0,0,28-22.5,2.44,2.44,0,0,0-2-.5,50.28,50.28,0,0,1,12-6,89.66,89.66,0,0,0,10-2.5,11.45,11.45,0,0,1,2-2.5,95.6,95.6,0,0,0,27.5-19,52.53,52.53,0,0,0,4-37A45,45,0,0,1,170.5,27.5Z" transform="translate(-18.38 -27.5)"/><path class="cls-2" d="M170.5,27.5a45,45,0,0,0,5.5,13,52.53,52.53,0,0,1-4,37,95.6,95.6,0,0,1-27.5,19,11.45,11.45,0,0,0-2,2.5,89.66,89.66,0,0,1-10,2.5q8.15-5.37,16-11.5,25.42-24,18-58.5v-4Z" transform="translate(-18.38 -27.5)"/><path class="cls-3" d="M287.5,27.5h2a94.17,94.17,0,0,0-2,34,16.41,16.41,0,0,0,5,10,212.24,212.24,0,0,0,36,33,88.28,88.28,0,0,1-26-13.5A29.46,29.46,0,0,1,283,76.5,72.88,72.88,0,0,1,287.5,27.5Z" transform="translate(-18.38 -27.5)"/><path class="cls-1" d="M335.5,108.5a336.53,336.53,0,0,0,39,17l6,3,8,3c11.14,4.22,13.93,5.43,19,7,2.56.79,6.5,1.93,11.5,3a137,137,0,0,0,14.5,7v16q-11.17-6.34-22-13.5a100.94,100.94,0,0,1-24-12,241.46,241.46,0,0,1-28-8A85.83,85.83,0,0,1,335.5,108.5Z" transform="translate(-18.38 -27.5)"/><path class="cls-4" d="M88.5,123.5l-6,3" transform="translate(-18.38 -27.5)"/><path class="cls-1" d="M120.5,107.5a2.44,2.44,0,0,1,2,.5,303.54,303.54,0,0,1-28,22.5,63.68,63.68,0,0,1-21,5.5,431.76,431.76,0,0,0-55,29.5v-10q32-13.87,64-29l6-3A357.55,357.55,0,0,1,120.5,107.5Z" transform="translate(-18.38 -27.5)"/><path class="cls-5" d="M120.5,171.5a1.83,1.83,0,0,1,2,1,389.65,389.65,0,0,1,26.5,59,77.67,77.67,0,0,1-14.5,46,9.87,9.87,0,0,1-5,2.5q-16.06.22-32,2-22.74,5.81-45,13a15.44,15.44,0,0,0-7.5,5.5q-.44,9.13-.5,18a32.19,32.19,0,0,1-2.5-19,22.9,22.9,0,0,1,7.5-8.5,118.24,118.24,0,0,1,38-11q22-2.19,44-3a44.57,44.57,0,0,0,9.5-17.5,128.5,128.5,0,0,0,5-27Q134,201.89,120.5,171.5Z" transform="translate(-18.38 -27.5)"/><path class="cls-6" d="M242.5,198.5a18.9,18.9,0,0,0-3,12.5q1.4,41.24,1,82.5-2.34,36.09-6.5,72a510.18,510.18,0,0,1,3-59q1.31-51.74-1-103a90.2,90.2,0,0,1,16-23l.5,1A73.79,73.79,0,0,0,242.5,198.5Z" transform="translate(-18.38 -27.5)"/><path class="cls-7" d="M242.5,198.5q-1,47.72-2,95,.41-41.26-1-82.5A18.9,18.9,0,0,1,242.5,198.5Z" transform="translate(-18.38 -27.5)"/><path class="cls-8" d="M218.5,326.5a127.56,127.56,0,0,1-.5,16,18.24,18.24,0,0,0-1.5-6q-1.75-19.49-3.5-39-.7-48,0-96a104.89,104.89,0,0,0-12.5-20c.5-1,1.17-1.19,2-.5A164.84,164.84,0,0,1,218,203.5q-.94,34.73-1.5,69.5Q216.35,299.9,218.5,326.5Z" transform="translate(-18.38 -27.5)"/><path class="cls-6" d="M334.5,171.5a1.83,1.83,0,0,1,2,1q-11.34,24.67-22.5,49-2.1,7.58-4.5,15,4.41,17.81,10.5,35a18.76,18.76,0,0,0,4.5,5.5,491.35,491.35,0,0,1,62,7,147.16,147.16,0,0,1,22,9q8.43,7.39,5.5,18.5a22.67,22.67,0,0,1-2,7,118.65,118.65,0,0,0,0-16,15.79,15.79,0,0,0-5.5-6q-19.44-6.54-39-12.5-21.92-3.6-44-5a26,26,0,0,1-7.5-9.5q-4.87-14.37-9-29a16.17,16.17,0,0,1,0-8A370.6,370.6,0,0,1,334.5,171.5Z" transform="translate(-18.38 -27.5)"/><path class="cls-9" d="M218.5,326.5a207.94,207.94,0,0,1,1,45,310.59,310.59,0,0,1-3-35,18.24,18.24,0,0,1,1.5,6A127.56,127.56,0,0,0,218.5,326.5Z" transform="translate(-18.38 -27.5)"/><path class="cls-10" d="M395.5,380.5v4a116.44,116.44,0,0,1-2.5-13c-.93,1.36-1.77,2.69-2.5,4a19.26,19.26,0,0,1,1-6,3.08,3.08,0,0,1,1-3A45,45,0,0,1,395.5,380.5Z" transform="translate(-18.38 -27.5)"/><path class="cls-10" d="M64.5,372.5a5,5,0,0,1,3,.5q46.22,43.61,39,107c-3.43,30.15-.63,43.93-.85,75.66-.16,22.83.39,42.77,1.11,59L90.5,613.5c-.6,0-1.27,0-9.65.15l-9.21.17c.2-1.21.51-3.07.86-5.32,3.07-19.64,4.19-35.21,4.76-44.72,2.06-34,2-68.89,4.55-84,1.76-10.28,2.54-14.13,2.54-14.13,1.67-8.56,1.86-8.32,2.15-11.17a77.76,77.76,0,0,0-.26-14.89q-.4-5.07-1.24-10.11-7.34-19.78-15.5-39c-.67-2.33-1.33-4.67-2-7A52.87,52.87,0,0,1,64.5,372.5Z" transform="translate(-18.38 -27.5)"/><path class="cls-10" d="M391.5,369.5a19.26,19.26,0,0,0-1,6,2.23,2.23,0,0,0-1.5,1l-5.5,24c-.67,2-1.33,4-2,6a31.35,31.35,0,0,1-1.08,3.54c-.3.78-.61,1.51-.93,2.18q-.71,2.56-1.42,5.12a112.4,112.4,0,0,0-5.18,19.15c-.67,3.8-1.1,7.4-1.36,10.75q.08,34.5.16,69,1.59,15.68,3.16,31.36,2.83,16.46,5.65,32.9l3,13,1,3c.72,2.12,1.41,4.46,2,7a75.47,75.47,0,0,1,1.65,10.26c-12.39,1-25.29,1.64-38.65,1.74-2.69,0-5.35,0-8,0a804.42,804.42,0,0,0-4-82,147.47,147.47,0,0,1,1.5-21q8.4-37.23,16-75,4.54-19.22,11-38A121.71,121.71,0,0,1,391.5,369.5Z" transform="translate(-18.38 -27.5)"/><path class="cls-10" d="M64.53,372.67a14.71,14.71,0,0,0,0-1.74,15.91,15.91,0,0,0-.57-3.2c-.45-1.17-.79-1.39-1-1.39s-.68.43-1.54,4c-.42,1.74-.7,3.19-.87,4.18a39.8,39.8,0,0,1,2-10l1.61,1.59c.36.86.72,1.81,1,2.84a32.64,32.64,0,0,1,1,4Z" transform="translate(-18.38 -27.5)"/><path class="cls-10" d="M390.5,375.5a138.65,138.65,0,0,1-7,25l5.5-24A2.23,2.23,0,0,1,390.5,375.5Z" transform="translate(-18.38 -27.5)"/><path class="cls-11" d="M408.5,436.5a260.29,260.29,0,0,1-13-52v-4c.67-2.53,1.33-5.19,2-8l1,2.5q4.42,28,11,55.5Q409,433.52,408.5,436.5Z" transform="translate(-18.38 -27.5)"/><path class="cls-5" d="M208.5,388.5a1.83,1.83,0,0,1,2,1,219.33,219.33,0,0,0-34.5,71Q171.17,477,154.5,472A215,215,0,0,1,125,452.5c-.69-.83-.52-1.5.5-2q7.71,5,15,10.5a19.16,19.16,0,0,1,10.5,5.5,35,35,0,0,0,16.5,1.5,18.76,18.76,0,0,0,4.5-5.5,232.29,232.29,0,0,1,13-36Q196.4,407.17,208.5,388.5Z" transform="translate(-18.38 -27.5)"/><path class="cls-12" d="M238.5,389.5c1.29-1.15,2.46-.81,3.5,1a394.73,394.73,0,0,1,27,46,114.21,114.21,0,0,1,7,23q4.2,13,17.5,8.5a224.49,224.49,0,0,0,30-17.5c1,.5,1.19,1.17.5,2A139.23,139.23,0,0,1,292.5,472q-13.29,4.49-17.5-8.5-4-12-8-24A264.3,264.3,0,0,0,238.5,389.5Z" transform="translate(-18.38 -27.5)"/><path class="cls-13" d="M388.5,616.5h-9a18.24,18.24,0,0,1,6-1.5q-18,.42-36,.5,17.75-1.56,36-2Z" transform="translate(-18.38 -27.5)"/><path class="cls-14" d="M71.5,613.5q8.46-.07,19,0c.53,0,6,.26,16.93.78a17.5,17.5,0,0,1,2.07.22,56.78,56.78,0,0,1-15,1h-24Z" transform="translate(-18.38 -27.5)"/><path class="cls-14" d="M70.5,615.5h24v1a144.43,144.43,0,0,0-24,1h-1Z" transform="translate(-18.38 -27.5)"/><path class="cls-14" d="M109.5,614.5a64.56,64.56,0,0,1,16,1,36.61,36.61,0,0,0-12,1h-19v-1A56.78,56.78,0,0,0,109.5,614.5Z" transform="translate(-18.38 -27.5)"/><path class="cls-14" d="M388.5,616.5q-19.11.24-39,1-33.62,1.32-65,4a8.4,8.4,0,0,1-7.05-1.74c1.34-.28,2.72-.55,4.15-.8,1-.17,1.95-.32,2.9-.46,11.73-.92,21.27-1.47,27.74-1.79,8.3-.42,9.63-.38,29.26-1.21,14.47-.61,21.7-.92,21.9-.94,4.34-.42,24.41-2.54,24.75-.8,0,.09,0,.27,0,.79A13.06,13.06,0,0,0,388.5,616.5Z" transform="translate(-18.38 -27.5)"/><path class="cls-15" d="M94.5,616.5h17c5.21.3,9.58.61,12.84.85,7.88.58,11.91.89,16.46,1.54,5.94.85,5.26,1.12,9.7,1.61,5.44.6,6.95.28,14,1,1.68.17,4.23.46,7.34.94,4.24.65,5.86,1.08,9.1,1.49a71.89,71.89,0,0,0,8.56.57,84,84,0,0,1,13.37.72,99.5,99.5,0,0,0,14.63,1.28h1l27-1q7-.75,14-2,12.5-1.08,25-2,32.75-1.69,65-4,15-.16,30-1h8a13.46,13.46,0,0,1,0,5,33.53,33.53,0,0,0-7.5-1q-14.19,2-28.5,3-21-1.75-42-1.5-34.42,5.73-69,10.5a28,28,0,0,1-9-1.5l-49-1a144,144,0,0,0-29-3,118.34,118.34,0,0,0-36-6q-23.49-.75-47-.5v-3A144.43,144.43,0,0,1,94.5,616.5Z" transform="translate(-18.38 -27.5)"/><path class="cls-16" d="M387.5,616.5h1a27.91,27.91,0,0,0,3,10,88,88,0,0,1,2.16,8.77c.35,1.81.62,3.56.84,5.23.81,2,1.61,4.14,2.39,6.29,2.23,6.12,4.07,12,5.61,17.71l3,9c.67,2.33,1.33,4.67,2,7s1.08,4.73,1.6,7.13q1.86,8.58,3.4,16.87a108.71,108.71,0,0,1,3,22.61c0,1.49,0,2.95,0,4.39h-199q1.56-30,2.5-60-10-14.78-4,2,.25,7.75.5,15.5-1.59,21.32-4,42.5l-171.95-.08q.47-3.64,1-7.37.91-6.4,2-12.55a44,44,0,0,1,1.26-5.94,43.3,43.3,0,0,1,2.74-7.06,19.6,19.6,0,0,1,.4-3.76,17.63,17.63,0,0,1,.6-2.24l2-7c.35-2.07.77-4.22,1.27-6.42A115,115,0,0,1,55.5,663.5a83.76,83.76,0,0,1,2.66-9.16c.58-1.62,1.19-3.17,1.8-4.63.81-3.67,1.8-7.55,3-11.62,1.12-3.77,2.32-7.3,3.54-10.59a104,104,0,0,0,3-10h1v3q23.5-.25,47,.5a118.34,118.34,0,0,1,36,6,144,144,0,0,1,29,3l49,1a28,28,0,0,0,9,1.5q34.58-4.77,69-10.5,21-.25,42,1.5,14.31-1,28.5-3a33.53,33.53,0,0,1,7.5,1A13.46,13.46,0,0,0,387.5,616.5Z" transform="translate(-18.38 -27.5)"/><path class="cls-14" d="M349.5,617.5q-32.25,2.29-65,4v-1Q316.93,618,349.5,617.5Z" transform="translate(-18.38 -27.5)"/><path class="cls-14" d="M284.5,618.5a18.24,18.24,0,0,1-6,1.5,18.63,18.63,0,0,0,6,.5v1q-12.51.91-25,2a24.31,24.31,0,0,0-11,0v-1c.6,0,1.62-.06,2.87-.21a29.92,29.92,0,0,0,4.13-.79C257.34,621,264.34,620.15,284.5,618.5Z" transform="translate(-18.38 -27.5)"/><path class="cls-14" d="M113.5,616.5a36.61,36.61,0,0,1,12-1q43.49,4.37,87,8h5a139.7,139.7,0,0,0,31,0,24.31,24.31,0,0,1,11,0q-6.94,1.25-14,2-13.47,1.08-27,1h-1q-6.8-.4-13.7-.9-7.22-.51-14.3-1.1a134.47,134.47,0,0,1-16.79-1.63c-3.34-.54-4.69-.89-8.21-1.37-7-1-12.37-.75-14-1Q132.31,617.74,113.5,616.5Z" transform="translate(-18.38 -27.5)"/><path class="cls-14" d="M248.5,622.5v1a139.7,139.7,0,0,1-31,0Q233,623.53,248.5,622.5Z" transform="translate(-18.38 -27.5)"/><path class="cls-17" d="M216.5,731.5h-5q2.4-21.19,4-42.5-.25-7.75-.5-15.5-6.06-16.77,4-2Q218.06,701.47,216.5,731.5Z" transform="translate(-18.38 -27.5)"/></svg>