<svg id="Capa_1" data-name="Capa 1" xmlns="http://www.w3.org/2000/svg" viewBox="0 0 415.12 705.25"><defs><style>.cls-1{fill:#453d34;}.cls-1,.cls-2,.cls-3,.cls-4,.cls-5,.cls-6,.cls-7{fill-rule:evenodd;}.cls-2{fill:#f9d6bc;}.cls-3{fill:#463d34;}.cls-4{fill:#f9f9f9;}.cls-5{fill:#91796c;}.cls-6{fill:#927a6c;}.cls-7{fill:#957d6f;}</style></defs><title>M F</title><path class="cls-1" d="M167.5,22.5v1l15,22a23.61,23.61,0,0,1,.72,3,25.56,25.56,0,0,1,.28,7c-1.12,0-2.71,0-4.63,0-7-.28-15.54-.61-24.19-4.86-2.92-1.43-14.1-7.33-19.68-20.09a37.64,37.64,0,0,1-2.5-8Z" transform="translate(-14.38 -22.5)"/><path class="cls-2" d="M166.11,22.5l54.39,1v182c0,32.81,1.57,57,3.06,73.52a81.71,81.71,0,0,1-17.09-1.09c-33.31-5.71-53.41-30.93-61.16-40.66-6-7.55-25.88-33.17-26.33-68.43a95,95,0,0,1,.37-9.68c9.21-3.41,28.94-12.23,43.56-32.73C178.18,105,179.76,82.2,180.48,71.66a119.69,119.69,0,0,0,0-16.16h3a25.64,25.64,0,0,0-1-10Z" transform="translate(-14.38 -22.5)"/><path class="cls-2" d="M217.82,23.34q15.19.39,31.45.17,14.71-.21,28.56-.93a127.2,127.2,0,0,1-7.21,10.56A130.75,130.75,0,0,1,260,45.5a40.48,40.48,0,0,0-.5,9h3q.5,10,1,20c.76,15.23,3.88,34.26,15.41,51.57C291.68,145.22,310.48,154,321,157.8c-2.11,14.3-4.16,26.26-5.77,35.2-2.7,14.89-3.8,19.14-6.12,24.42a79.16,79.16,0,0,1-15.6,22.8c-1.46,1.52-7.75,6.8-20.34,17.35-1.36,1.14-4,3.33-7.69,5.93-3.15,2.22-5.89,3.89-7.9,5-6,3.46-14.57,8.29-26,9.74-.88.11-1.6.18-2.07.22l-6.95,0q-2.31-35.47-3.75-72.24C216.34,142.77,216.19,81.71,217.82,23.34Z" transform="translate(-14.38 -22.5)"/><path class="cls-3" d="M276.5,22.5q15.4,1,31,2-7,20.55-27,29.5a144,144,0,0,1-17,.5h-4a40.48,40.48,0,0,1,.5-9,89.35,89.35,0,0,0,15.5-20A2.87,2.87,0,0,0,276.5,22.5Z" transform="translate(-14.38 -22.5)"/><path class="cls-4" d="M348.5,167.5q1.86,41.07,3.14,82.94.47,15.58.86,31.06a85.08,85.08,0,0,1,8.59,19.55q.82,2.81,1.41,5.45c3.46,11.71,9,36.79.63,66a114.37,114.37,0,0,1-15.63,33c-19.42-.83-48.93-1.76-85.17-1.61-24,.1-37.77.63-70.69,1.31-22.87.47-55.75,1-96,1.31a225.54,225.54,0,0,1-14.1-105,138.32,138.32,0,0,0,9.5-40c3.57-43.71-15.23-80.28-1.25-90.25.6-.43,5.32-2.35,14.76-6.2,7.28-3,13.23-5.27,17-6.73a131.77,131.77,0,0,0,6.59,44.12c2.85,8.62,7.26,22.23,18.86,36.06a106,106,0,0,0,45.5,32,71.65,71.65,0,0,0,37,8c.41,0,1.15-.11,2.07-.22,12.89-1.62,22.64-7.52,28.32-11,1.3-.8,3.27-2.06,5.61-3.74a130.61,130.61,0,0,0,17.08-14.2,126.75,126.75,0,0,0,16.54-20c6.86-10.36,13-19.7,15.28-33,.85-5.09,5.16-34.73,5.1-36.8a1.91,1.91,0,0,1,1.5-2A269,269,0,0,1,348.5,167.5Z" transform="translate(-14.38 -22.5)"/><path class="cls-2" d="M78.5,172.5l11.25-1.25c1.75,39.92,2,71.08,1.41,87.34a120,120,0,0,1-2.71,22.2,116.41,116.41,0,0,1-7,21.58q-.7-2.6-1.5-5.25-.69-2.36-1.41-4.62Q64,331,52.5,370.5c-1.59,4.22-3.7,9.94-6.08,16.75,0,0-5.28,15.11-10.5,32.5-9.35,31.12-18,68.42-19.42,74.75l-1,5q-1.5-129.25-1-259l6-21Q33.28,176.24,78.5,172.5Z" transform="translate(-14.38 -22.5)"/><path class="cls-2" d="M363.5,173.5c6.35,2.23,9.56,3.2,13.36,4.23,10.72,2.91,14.44,2.68,21.09,7.09,12.44,8.26,18.58,21.6,21.05,27.68a188,188,0,0,1,10,33q1,129.5,0,259-7.29-26.28-13-53-8.72-26.38-16.5-53a95.58,95.58,0,0,0-6-18q-2.21-7.62-5-15-8.34-29.5-19-58c-.37-1.88-.79-3.43-1.13-4.57a32.12,32.12,0,0,0-2.15-5.73,26,26,0,0,0-2.22-3.7c-.41,1.39-.8,2.85-1.16,4.38-.57,2.39-1,4.67-1.31,6.81a46.89,46.89,0,0,1-3.69-5.21c-6.28-10.3-7-20.46-7.63-30.87-1-17.09-1.51-25.64-1.4-29.37.47-14.76.4-37.62-2.12-72.5C353.41,169.79,359.18,172,363.5,173.5Z" transform="translate(-14.38 -22.5)"/><path class="cls-5" d="M128.5,178.5a1.62,1.62,0,0,1,2-1q15,1.16,30,2.5a45,45,0,0,1,10,3Q149.64,180.27,128.5,178.5Z" transform="translate(-14.38 -22.5)"/><path class="cls-6" d="M291.5,179.5a71.86,71.86,0,0,1,12,.5q-15.12,1.56-30,4.5l-1-1A121.39,121.39,0,0,1,291.5,179.5Z" transform="translate(-14.38 -22.5)"/><path class="cls-2" d="M162.5,402.5h100q22.5.3,45,1l40,2q-7.12,60.48-14,121a64,64,0,0,0,5.5,24c5.08,11.48,9.13,20.59,9.65,21.66,2.92,6,6.72,13.57,11.35,22.34C283.58,621,187.11,637,91.71,603.16Q82.91,600,74.5,596.5a116.45,116.45,0,0,0,20.5-26c5-8.63,11.86-20.51,13.5-37,1.29-13-.87-27.73-1.81-34.76-.49-3.6-.92-6.5-1.19-8.24l-2-14q-2.4-25.63-6-51-1-10-2-20Q129.23,404.23,162.5,402.5Z" transform="translate(-14.38 -22.5)"/><path class="cls-7" d="M215.57,576.79l3.77,1.34.94.33a14.22,14.22,0,0,0,12-5.28Q226,584.42,215.57,576.79Z" transform="translate(-14.38 -22.5)"/><path class="cls-4" d="M356.5,593.5a4.54,4.54,0,0,1,2,.15,4.43,4.43,0,0,1,1.54.85A337.49,337.49,0,0,1,375.46,626c4.09,9.54,6.69,16.87,9,23.5,6.93,19.58,6.32,21.78,13.86,45,1,2.95,3,9.14,4.93,17.67,1.09,4.81,1.79,8.79,2.21,11.38v4q-189,1-377-2c.15-2.66.44-6.52,1.08-11.13a145.41,145.41,0,0,1,5.09-22.53Q39.92,673.9,45.5,656.5a310.83,310.83,0,0,1,29-60,3.08,3.08,0,0,1,3-1,145.69,145.69,0,0,0,19,3.5,954.61,954.61,0,0,0,147,4.5l62.41-4.84C334.36,595.78,355,593.69,356.5,593.5Z" transform="translate(-14.38 -22.5)"/></svg>