<svg id="Capa_1" data-name="Capa 1" xmlns="http://www.w3.org/2000/svg" viewBox="0 0 808.57 447.65"><defs><style>.cls-1{fill:#f8d5bb;}.cls-1,.cls-10,.cls-11,.cls-2,.cls-3,.cls-4,.cls-5,.cls-6,.cls-7,.cls-8,.cls-9{fill-rule:evenodd;}.cls-2{fill:#fbe6d5;}.cls-3{fill:#fbe5d5;}.cls-4{fill:#fbe5d4;}.cls-5{fill:#f9d6bc;}.cls-6{fill:#eeb89f;}.cls-7{fill:#f5c4a9;}.cls-8{fill:#f3c0a6;}.cls-9{fill:#efb99f;}.cls-10{fill:#f4c2a7;}.cls-11{fill:#f4c2a8;}</style></defs><title>Mano P</title><path class="cls-1" d="M681.5,236.5a87,87,0,0,1-38-8c-1.22,2.34-.56,4.18,2,5.5a50.87,50.87,0,0,1,17,8.5,164.23,164.23,0,0,1-30-7.5,243.85,243.85,0,0,0-84,5,219.79,219.79,0,0,0-45,27.5,137.41,137.41,0,0,0,9-10.5q-1.08-11.7-2.5-23.5a304.53,304.53,0,0,1-8.22-33.19c-1.28-6.79-.64-5.46-4.28-31.81-2-14.19-2.29-15.84-2.69-21.1-.79-10.5-.26-14.32-1.31-22.9a113.46,113.46,0,0,0-4-19,64.57,64.57,0,0,1-1-33q7.61-19.3,27-12.5A34.54,34.54,0,0,1,525,80.5q1.59,15.47,2,31,7.37,33.81,17,67,2.67,20,5,40a26.4,26.4,0,0,0,7.5,14.5q15,4.78,12-10.5-2.38-27.23-4-54.5.86-25.26,2-50.5,1.2-28.75.5-58a69.7,69.7,0,0,1,3.5-16q3.75-11,15.5-11,18.63,2.13,20,21,1.79,39,3,78a168.23,168.23,0,0,1,1,60q-.6,17.91-.5,35.5a47.47,47.47,0,0,0,21,2,9.55,9.55,0,0,0,4.5-6.5q12.3-40.89,27-81a288.2,288.2,0,0,0,11-54A35.49,35.49,0,0,1,689.5,65Q706.8,63.26,711,80.5a209.46,209.46,0,0,1,0,29q-8.73,36.15-14,73Q688.17,209.23,681.5,236.5Z" transform="translate(-4.91 -32.5)"/><path class="cls-2" d="M581.5,38.5a40.49,40.49,0,0,1,17.5,5,103.12,103.12,0,0,1-3.5,18,7.81,7.81,0,0,1-8.5-1A53.62,53.62,0,0,1,581.5,38.5Z" transform="translate(-4.91 -32.5)"/><path class="cls-3" d="M507.5,62.5a11.12,11.12,0,0,1,11,6,89.55,89.55,0,0,0-8,16h-3Z" transform="translate(-4.91 -32.5)"/><path class="cls-4" d="M687.5,71.5h8a18.09,18.09,0,0,1-6.5,12q1.54,10.2-8.5,9,.71-8.49,1.5-17A11.11,11.11,0,0,1,687.5,71.5Z" transform="translate(-4.91 -32.5)"/><path class="cls-5" d="M503.5,267.5a54.79,54.79,0,0,1-11,10.5,137.37,137.37,0,0,0,26-14,209.68,209.68,0,0,1,26-11q38.13-6.94,76.5-12.5a72,72,0,0,1,25.5,8.5,154.69,154.69,0,0,0,27,4.5,11.28,11.28,0,0,0-4-7h3q6.94,3.88,6,12a32.45,32.45,0,0,0-4,15l4.5,36a92.92,92.92,0,0,0,4.5,12,74.47,74.47,0,0,1-3,30,5.81,5.81,0,0,0,2,4,115.21,115.21,0,0,0,8.5-12,39.82,39.82,0,0,0,20.5-17,190.14,190.14,0,0,1,45-44.5q24.22-15.24,51-6,9.82,8.76,3.5,20.5A25.57,25.57,0,0,1,793.5,311,184.07,184.07,0,0,0,758,347.5q-13.87,24.25-27,49A164.91,164.91,0,0,1,701.5,428q-25.83,19.15-51,39a524.73,524.73,0,0,1-78,6,97.77,97.77,0,0,1-42,1,32.3,32.3,0,0,1-15.5-8.5,44.23,44.23,0,0,0-3-15,299.42,299.42,0,0,1-33.5-75q-2.14-13.74-5-27-4.06-21.92-7-44c.76-2.24,1.6-4.57,2.5-7L482.5,286a8,8,0,0,0-5,2q-5.55,4.75-11,9.5-8-26.7-17.5-53-12.87-27.13-24-55a57.79,57.79,0,0,1-2-30q6.11-10.92,18.5-8.5a20.36,20.36,0,0,1,8.5,6.5q21.18,44.37,44,88l7,21A2.85,2.85,0,0,0,503.5,267.5Z" transform="translate(-4.91 -32.5)"/><path class="cls-6" d="M681.5,236.5v2a73.89,73.89,0,0,0-2.5,12,6.52,6.52,0,0,0-6.5-4h-3a36.13,36.13,0,0,0-7-4,50.87,50.87,0,0,0-17-8.5c-2.56-1.32-3.22-3.16-2-5.5A87,87,0,0,0,681.5,236.5Z" transform="translate(-4.91 -32.5)"/><path class="cls-2" d="M662.5,242.5a36.13,36.13,0,0,1,7,4,11.28,11.28,0,0,1,4,7,154.69,154.69,0,0,1-27-4.5,72,72,0,0,0-25.5-8.5q-38.37,5.55-76.5,12.5a209.68,209.68,0,0,0-26,11,137.37,137.37,0,0,1-26,14,54.79,54.79,0,0,0,11-10.5,219.79,219.79,0,0,1,45-27.5,243.85,243.85,0,0,1,84-5A164.23,164.23,0,0,0,662.5,242.5Z" transform="translate(-4.91 -32.5)"/><path class="cls-6" d="M681.5,238.5a104.08,104.08,0,0,1-3,20q.94-8.12-6-12a6.52,6.52,0,0,1,6.5,4A73.89,73.89,0,0,1,681.5,238.5Z" transform="translate(-4.91 -32.5)"/><path class="cls-3" d="M782.5,276.5a111.86,111.86,0,0,1,21,1.5q5,2.72,4,8.5a244,244,0,0,1-38-2.5A31.65,31.65,0,0,0,782.5,276.5Z" transform="translate(-4.91 -32.5)"/><path class="cls-7" d="M466.5,304.5v-7q5.46-4.74,11-9.5a8,8,0,0,1,5-2L469,297.5C468.1,299.93,467.26,302.26,466.5,304.5Z" transform="translate(-4.91 -32.5)"/><path class="cls-8" d="M664.5,286.5a8.39,8.39,0,0,1,4,.5l-28,13-50,15A52,52,0,0,0,564,336.5a16.29,16.29,0,0,1,4-10A56.94,56.94,0,0,1,587.5,313q25.41-7.72,51-15A151.81,151.81,0,0,0,664.5,286.5Z" transform="translate(-4.91 -32.5)"/><path class="cls-9" d="M683.5,321.5a63.8,63.8,0,0,1,7,6.5,51.27,51.27,0,0,0,21-1.5,39.82,39.82,0,0,1-20.5,17,115.21,115.21,0,0,1-8.5,12,5.81,5.81,0,0,1-2-4A74.47,74.47,0,0,0,683.5,321.5Z" transform="translate(-4.91 -32.5)"/><path class="cls-10" d="M567.5,315.5a40.48,40.48,0,0,1,9,.5q-42.9,14.19-85,31a78.78,78.78,0,0,1-15,3Q522.44,333.52,567.5,315.5Z" transform="translate(-4.91 -32.5)"/><path class="cls-7" d="M473.5,348.5q2.85,13.26,5,27A76.71,76.71,0,0,1,473.5,348.5Z" transform="translate(-4.91 -32.5)"/><path class="cls-11" d="M608.5,318.5c1.07.75,1.24,1.75.5,3a175,175,0,0,0-15,32q-2.78,38.55-7,77a120.65,120.65,0,0,1,0-22q2.75-26.44,4-53a61.51,61.51,0,0,1,5-14Q602.29,329.92,608.5,318.5Z" transform="translate(-4.91 -32.5)"/><path class="cls-7" d="M500.5,400.5a5.77,5.77,0,0,1,5.5,2A60.88,60.88,0,0,0,525.5,428a409.54,409.54,0,0,0,41,23q5.34,10.81-7,13a208.85,208.85,0,0,1-38,1,49.67,49.67,0,0,1-6.5-16.5,162.31,162.31,0,0,1-16-30,95.92,95.92,0,0,0-3.5-13A6.42,6.42,0,0,1,500.5,400.5Z" transform="translate(-4.91 -32.5)"/><path class="cls-1" d="M121.39,186.84q-5.26-36.84-14-73a209.46,209.46,0,0,1,0-29q4.2-17.24,21.5-15.5a35.61,35.61,0,0,1,16.5,22.5,287.88,287.88,0,0,0,11,54q14.7,40.11,27,81a9.47,9.47,0,0,0,4.5,6.5,47.18,47.18,0,0,0,21-2q.09-17.58-.5-35.5a168.24,168.24,0,0,1,1-60q1.22-39,3-78,1.37-18.86,20-21,11.75,0,15.5,11a69.7,69.7,0,0,1,3.5,16q-.7,29.25.5,58,1.14,25.24,2,50.5-1.62,27.28-4,54.5-3,15.3,12,10.5a26.49,26.49,0,0,0,7.5-14.5q2.33-20,5-40,9.63-33.19,17-67,.41-15.54,2-31a34.54,34.54,0,0,1,9.5-20.5q19.39-6.8,27,12.5a64.57,64.57,0,0,1-1,33,112.45,112.45,0,0,0-4,19c-1.05,8.58-.52,12.41-1.31,22.91-.4,5.26-.73,6.91-2.69,21.09-3.65,26.36-3,25-4.28,31.82a304.36,304.36,0,0,1-8.22,33.18q-1.42,11.82-2.5,23.5a133.06,133.06,0,0,0,9,10.5,220.68,220.68,0,0,0-45-27.5,244.13,244.13,0,0,0-84-5,164.23,164.23,0,0,1-30,7.5,51,51,0,0,1,17-8.5c2.56-1.32,3.22-3.15,2-5.5a86.89,86.89,0,0,1-38,8Q130.22,213.57,121.39,186.84Z" transform="translate(-4.91 -32.5)"/><path class="cls-2" d="M231.39,64.84a7.8,7.8,0,0,1-8.5,1,102.2,102.2,0,0,1-3.5-18,40.77,40.77,0,0,1,17.5-5A53.7,53.7,0,0,1,231.39,64.84Z" transform="translate(-4.91 -32.5)"/><path class="cls-3" d="M310.89,88.84h-3a90.57,90.57,0,0,0-8-16,11.12,11.12,0,0,1,11-6Z" transform="translate(-4.91 -32.5)"/><path class="cls-4" d="M136.39,79.84q.8,8.52,1.5,17-10,1.22-8.5-9a18.09,18.09,0,0,1-6.5-12h8A11.21,11.21,0,0,1,136.39,79.84Z" transform="translate(-4.91 -32.5)"/><path class="cls-5" d="M317.39,270.84q3.5-10.51,7-21,22.82-43.62,44-88a20.36,20.36,0,0,1,8.5-6.5q12.39-2.42,18.5,8.5a57.88,57.88,0,0,1-2,30q-11.13,27.89-24,55-9.52,26.29-17.5,53-5.46-4.72-11-9.5a8.12,8.12,0,0,0-5-2l13.5,11.5q1.35,3.65,2.5,7-2.94,22.1-7,44-2.86,13.28-5,27a299.1,299.1,0,0,1-33.5,75,44.23,44.23,0,0,0-3,15,32.26,32.26,0,0,1-15.5,8.5,97.77,97.77,0,0,1-42-1,524.73,524.73,0,0,1-78-6q-25.17-19.84-51-39a164.6,164.6,0,0,1-29.5-31.5q-13.12-24.73-27-49a184.34,184.34,0,0,0-35.5-36.5,25.5,25.5,0,0,1-17.5-14.5q-6.33-11.73,3.5-20.5,26.78-9.22,51,6a190.33,190.33,0,0,1,45,44.5,39.77,39.77,0,0,0,20.5,17,113.13,113.13,0,0,0,8.5,12,5.83,5.83,0,0,0,2-4,74.47,74.47,0,0,1-3-30,91.83,91.83,0,0,0,4.5-12l4.5-36a32.64,32.64,0,0,0-4-15q-.94-8.1,6-12h3a11.31,11.31,0,0,0-4,7,152.83,152.83,0,0,0,27-4.5,72.21,72.21,0,0,1,25.5-8.5q38.37,5.57,76.5,12.5a211.21,211.21,0,0,1,26,11,136.51,136.51,0,0,0,26,14,54.52,54.52,0,0,1-11-10.5A2.83,2.83,0,0,0,317.39,270.84Z" transform="translate(-4.91 -32.5)"/><path class="cls-6" d="M174.89,232.84c1.22,2.35.56,4.18-2,5.5a51,51,0,0,0-17,8.5,35.83,35.83,0,0,0-7,4h-3a6.54,6.54,0,0,0-6.5,4,74.34,74.34,0,0,0-2.5-12v-2A86.89,86.89,0,0,0,174.89,232.84Z" transform="translate(-4.91 -32.5)"/><path class="cls-2" d="M185.89,239.34a244.13,244.13,0,0,1,84,5,220.68,220.68,0,0,1,45,27.5,54.52,54.52,0,0,0,11,10.5,136.51,136.51,0,0,1-26-14,211.21,211.21,0,0,0-26-11q-38.13-6.94-76.5-12.5a72.21,72.21,0,0,0-25.5,8.5,152.83,152.83,0,0,1-27,4.5,11.31,11.31,0,0,1,4-7,35.83,35.83,0,0,1,7-4A164.23,164.23,0,0,0,185.89,239.34Z" transform="translate(-4.91 -32.5)"/><path class="cls-6" d="M139.39,254.84a6.54,6.54,0,0,1,6.5-4q-6.94,3.9-6,12a104,104,0,0,1-3-20A74.34,74.34,0,0,1,139.39,254.84Z" transform="translate(-4.91 -32.5)"/><path class="cls-3" d="M48.89,288.34a242.86,242.86,0,0,1-38,2.5q-1-5.77,4-8.5a111.86,111.86,0,0,1,21-1.5A31.58,31.58,0,0,0,48.89,288.34Z" transform="translate(-4.91 -32.5)"/><path class="cls-7" d="M349.39,301.84l-13.5-11.5a8.12,8.12,0,0,1,5,2q5.55,4.77,11,9.5v7Q350.74,305.48,349.39,301.84Z" transform="translate(-4.91 -32.5)"/><path class="cls-8" d="M179.89,302.34q25.59,7.28,51,15a57.22,57.22,0,0,1,19.5,13.5,16.35,16.35,0,0,1,4,10,52.14,52.14,0,0,0-26.5-21.5l-50-15-28-13a8.5,8.5,0,0,1,4-.5A151,151,0,0,0,179.89,302.34Z" transform="translate(-4.91 -32.5)"/><path class="cls-9" d="M137.89,355.84a5.83,5.83,0,0,1-2,4,113.13,113.13,0,0,1-8.5-12,39.77,39.77,0,0,1-20.5-17,51.27,51.27,0,0,0,21,1.5,63.88,63.88,0,0,1,7-6.5A74.47,74.47,0,0,0,137.89,355.84Z" transform="translate(-4.91 -32.5)"/><path class="cls-10" d="M341.89,354.34a78.78,78.78,0,0,1-15-3q-42.09-16.8-85-31a41.71,41.71,0,0,1,9-.5Q295.94,337.86,341.89,354.34Z" transform="translate(-4.91 -32.5)"/><path class="cls-7" d="M339.89,379.84q2.14-13.72,5-27A76.93,76.93,0,0,1,339.89,379.84Z" transform="translate(-4.91 -32.5)"/><path class="cls-11" d="M222.39,345.84a62.16,62.16,0,0,1,5,14q1.25,26.57,4,53a122.47,122.47,0,0,1,0,22q-4.23-38.44-7-77a175.67,175.67,0,0,0-15-32,2,2,0,0,1,.5-3Q216.1,334.27,222.39,345.84Z" transform="translate(-4.91 -32.5)"/><path class="cls-7" d="M322.89,409.84a94.86,94.86,0,0,0-3.5,13,161.68,161.68,0,0,1-16,30,49.89,49.89,0,0,1-6.5,16.5,208,208,0,0,1-38-1q-12.34-2.19-7-13a407.57,407.57,0,0,0,41-23,60.88,60.88,0,0,0,19.5-25.5,5.79,5.79,0,0,1,5.5-2A6.44,6.44,0,0,1,322.89,409.84Z" transform="translate(-4.91 -32.5)"/></svg>