<svg id="Capa_1" data-name="Capa 1" xmlns="http://www.w3.org/2000/svg" viewBox="0 0 366 875.52"><defs><style>.cls-1{fill:#f9d6bc;}.cls-1,.cls-10,.cls-11,.cls-12,.cls-13,.cls-14,.cls-15,.cls-16,.cls-17,.cls-18,.cls-19,.cls-2,.cls-20,.cls-21,.cls-22,.cls-23,.cls-24,.cls-25,.cls-26,.cls-27,.cls-28,.cls-29,.cls-3,.cls-30,.cls-31,.cls-32,.cls-33,.cls-34,.cls-35,.cls-36,.cls-37,.cls-38,.cls-39,.cls-4,.cls-40,.cls-41,.cls-42,.cls-43,.cls-44,.cls-45,.cls-46,.cls-47,.cls-48,.cls-49,.cls-5,.cls-50,.cls-51,.cls-52,.cls-53,.cls-54,.cls-55,.cls-56,.cls-57,.cls-58,.cls-59,.cls-6,.cls-7,.cls-8,.cls-9{fill-rule:evenodd;}.cls-2{fill:#eeb096;}.cls-3{fill:#f6e6da;}.cls-4{fill:#f3bea3;}.cls-5{fill:#f2b99e;}.cls-6{fill:#f2e2d6;}.cls-7{fill:#efb095;}.cls-8{fill:#efae93;}.cls-9{fill:#f3c2a7;}.cls-10{fill:#eead92;}.cls-11{fill:#f0c1a6;}.cls-12{fill:#ebb69d;}.cls-13{fill:#f0b297;}.cls-14{fill:#f2bba0;}.cls-15{fill:#f4e5da;}.cls-16{fill:#f4c0a6;}.cls-17{fill:#ecb69d;}.cls-18{fill:#e9dad0;}.cls-19{fill:#efae94;}.cls-20{fill:#efaf94;}.cls-21{fill:#edeeee;}.cls-22{fill:#a3948c;}.cls-23{fill:#dddede;}.cls-24{fill:#f5e3d7;}.cls-25{fill:#e3d5cb;}.cls-26{fill:#cda48f;}.cls-27{fill:#7d6a61;}.cls-28{fill:#efbaa0;}.cls-29{fill:#f0baa0;}.cls-30{fill:#f9e9dd;}.cls-31{fill:#ae9181;}.cls-32{fill:#eac1a8;}.cls-33{fill:#e6baa2;}.cls-34{fill:#bfa18f;}.cls-35{fill:#928680;}.cls-36{fill:#eebfa6;}.cls-37{fill:#93847c;}.cls-38{fill:#eec0a6;}.cls-39{fill:#f6e5d9;}.cls-40{fill:#ecddd2;}.cls-41{fill:#f4c3a8;}.cls-42{fill:#f1b59a;}.cls-43{fill:#f5c5aa;}.cls-44{fill:#f4c2a8;}.cls-45{fill:#d7c3b6;}.cls-46{fill:#f1b89e;}.cls-47{fill:#ddb29b;}.cls-48{fill:#f0ded2;}.cls-49{fill:#fcece0;}.cls-50{fill:#fcece1;}.cls-51{fill:#a79182;}.cls-52{fill:#a68f80;}.cls-53{fill:#a48e7f;}.cls-54{fill:#b19786;}.cls-55{fill:#af9686;}.cls-56{fill:#a28a7b;}.cls-57{fill:#daad96;}.cls-58{fill:#d1b19c;}.cls-59{fill:#d9b59e;}</style></defs><title>hombre completo frente</title><path class="cls-1" d="M202.5,9.5q26,4.25,32.5,30a87.3,87.3,0,0,1-.5,21q9.52.8,6.5,10a62.37,62.37,0,0,0-5,17l-5,2a37,37,0,0,0-4.5,15q-9.66,9.41-20,18.5a38.23,38.23,0,0,1-21,0q-9.75-8.5-19-17.5a29.32,29.32,0,0,0-6-16.5,8.36,8.36,0,0,1-5.5-2.5,98.49,98.49,0,0,0-5-15,25.13,25.13,0,0,1,0-10,7,7,0,0,1,2.5-2h5a75.94,75.94,0,0,1-1-15q-.85-21.55,18-31a49.74,49.74,0,0,1,28-4Z" transform="translate(-12.5 -8.98)"/><path class="cls-1" d="M225.5,110.5v7q-.8,9.24,7,15.5,10.25,7.37,21,14,25.41,11.2,50,24L314,181.5a52,52,0,0,0,9.5,14,43.39,43.39,0,0,1,3,18.5,266.59,266.59,0,0,0-.5,34.5,511.29,511.29,0,0,1,9.5,51l17,35,6,29,3,23c.2,1.67,1,8.43,1.19,10.14.45,3.79.67,5.69.81,6.86.45,3.75,1.1,9.13,2,16l2.1,19.9a57.43,57.43,0,0,0,6.4,20.1,42.29,42.29,0,0,1,0,13,29.42,29.42,0,0,0-2.5,14q-2.73,7.47-5.5,15l-9,14a4.5,4.5,0,0,1-5.5,0,4.33,4.33,0,0,1,0-5q2.69-2.88,6-2a4.18,4.18,0,0,1-1.5-5,29.78,29.78,0,0,1,4.5-6,65.08,65.08,0,0,1,5-13,6.88,6.88,0,0,0-2-3,2.87,2.87,0,0,0-1-3,3,3,0,0,0-2-2,1.83,1.83,0,0,0-1-2,101,101,0,0,1-5.5,17,45.05,45.05,0,0,1,.5-14q4.69-6.15-3-6.5-3.64,11.06-6.5,22.5-4.81,7.78-9,0a125.65,125.65,0,0,1,3.5-52,14.76,14.76,0,0,0,1-5.5,23.42,23.42,0,0,0-.83-7,21.65,21.65,0,0,0-1.91-4.5,37.57,37.57,0,0,1-3.76-13q-1.8-13.29-4.5-26-2.67-20.47-5-41-1.83-10.06,6-16.5a7.2,7.2,0,0,0-5.5,3.5,23.22,23.22,0,0,0-3.5,11.5q3.4,22.28,7,44.5.87,5.76,2,11.5c-.17,1.17-.33,2.33-.5,3.5A317.74,317.74,0,0,1,298.5,328c.17-.5.33-1,.5-1.5a1.66,1.66,0,0,0,2.5.5l-4.5-4.5q-8.26-26.58-18.5-52a1.83,1.83,0,0,0-1-2,3.09,3.09,0,0,0-1,3,65.86,65.86,0,0,0-11.5,12,416.79,416.79,0,0,0-11,43,47.57,47.57,0,0,0-15.5,15l.5,1A55.73,55.73,0,0,1,251.5,330c1-.59,1.65-.26,2,1a136.53,136.53,0,0,0-2,46.5q-.25,6-.5,12a4.24,4.24,0,0,0-1.5,2q-27.27,1.42-54.5,5-23.9-1.77-47.5-5a70.39,70.39,0,0,0-11.5-13,503.87,503.87,0,0,1,1-53,126.2,126.2,0,0,1,21.5,20,63.31,63.31,0,0,0-21-21q1.81-30.87-20.5-52-1.53-9.74-3.5,0v3a4.45,4.45,0,0,0-3,2.5q-6.36,17.07-11.5,34.5A61.94,61.94,0,0,1,82.5,328a34.11,34.11,0,0,0,12-8c.83-.69,1.5-.52,2,.5a70.84,70.84,0,0,0-5.5,23,113.86,113.86,0,0,0-10,25,475.89,475.89,0,0,0-23,45,163.23,163.23,0,0,1,4-25,280.53,280.53,0,0,0,3.5-31,35.27,35.27,0,0,0-3.5-18q-1-1.8-1.5,0a67.75,67.75,0,0,1,2.5,28q-3.6,27.62-8.5,55a37.47,37.47,0,0,0-4,13.5q3.84,15.62,6.5,31.5a110,110,0,0,1,0,21,18.24,18.24,0,0,1-1.5,6v-4q-6.49-.5-6,6h5q-2.91,3.81-6.5,0a163.51,163.51,0,0,1-7-24c-2.23-1.48-4.07-1.15-5.5,1a10,10,0,0,0-7,9,2.76,2.76,0,0,0-2,3q1.79,4.83,4,9.5a11.76,11.76,0,0,1-1,2.5,9.83,9.83,0,0,1,6.5,7,3.22,3.22,0,0,1-1.5,4l1,1c1-.69,2-1.36,3-2a3.31,3.31,0,0,1,1.5,2c.33-.67.67-1.33,1-2a8.72,8.72,0,0,1,3.5,5,5.19,5.19,0,0,1-5,4.5,4.44,4.44,0,0,1-5.5-1.5,74.33,74.33,0,0,1-14.5-29,39.42,39.42,0,0,0-2.5-13,42.29,42.29,0,0,1,0-13,81.26,81.26,0,0,0,10.5-39q3.62-25.62,5-51a41.08,41.08,0,0,0,.5,9q2.72-20.06,6-40,7.11-14.73,15-29a16.87,16.87,0,0,0,1.5-13q6.42-25.81,11.5-52,.39-21,0-42a44.34,44.34,0,0,1,3.5-11,45.16,45.16,0,0,0-.5,7A83.92,83.92,0,0,1,86.5,173q36.21-18.42,72-38a20.86,20.86,0,0,0,8-16.5v-2a18.24,18.24,0,0,0,1.5-6L187.5,126a63.93,63.93,0,0,0,16,0A172.85,172.85,0,0,0,225.5,110.5Z" transform="translate(-12.5 -8.98)"/><path class="cls-2" d="M226.5,104.5c-.33,2-.67,4-1,6a172.85,172.85,0,0,1-22,15.5,63.93,63.93,0,0,1-16,0L168,110.5a18.24,18.24,0,0,1-1.5,6v-11q9.24,9,19,17.5a38.23,38.23,0,0,0,21,0Q216.83,113.91,226.5,104.5Z" transform="translate(-12.5 -8.98)"/><path class="cls-3" d="M225.5,117.5a58.9,58.9,0,0,0,18,20.5,240.65,240.65,0,0,0,48,21q24.81,10.56,32,36.5a52,52,0,0,1-9.5-14L303.5,171q-24.58-12.8-50-24-10.75-6.63-21-14Q224.7,126.73,225.5,117.5Z" transform="translate(-12.5 -8.98)"/><path class="cls-4" d="M141.5,156.5a17.32,17.32,0,0,1,6-1q19.44,2.33,39,3.5a34.49,34.49,0,0,1,6,5.5c-.5,1-1.17,1.19-2,.5l-5-5A307,307,0,0,1,141.5,156.5Z" transform="translate(-12.5 -8.98)"/><path class="cls-5" d="M238.5,155.5a60.39,60.39,0,0,1,11,.5,173.67,173.67,0,0,1-44,3A175.09,175.09,0,0,0,238.5,155.5Z" transform="translate(-12.5 -8.98)"/><path class="cls-6" d="M166.5,118.5a20.86,20.86,0,0,1-8,16.5q-35.79,19.58-72,38A83.92,83.92,0,0,0,70,199.5a45.16,45.16,0,0,1,.5-7,43,43,0,0,1,13-22.5q34.22-15.6,68-33A36.92,36.92,0,0,0,166.5,118.5Z" transform="translate(-12.5 -8.98)"/><path class="cls-7" d="M189.5,218.5a3.31,3.31,0,0,1,1.5,2,36.69,36.69,0,0,1-2,19l-3.5,3.5a122.13,122.13,0,0,1-53,11A24.92,24.92,0,0,1,118,242.5a53.65,53.65,0,0,0-8.5-16.5,4.56,4.56,0,0,1,4.5,2.5q3.81,15.81,18.5,22.5a109.65,109.65,0,0,0,53-10,16.7,16.7,0,0,0,3.5-9.5A84.25,84.25,0,0,0,189.5,218.5Z" transform="translate(-12.5 -8.98)"/><path class="cls-8" d="M199.5,223.5a88.68,88.68,0,0,1,3.5,15l3.5,3.5a102.26,102.26,0,0,0,51,9q14.91-5,18.5-20.5l3-4a59.94,59.94,0,0,1-7,18,20.92,20.92,0,0,1-13.5,9.5,102.66,102.66,0,0,1-55-12A32.18,32.18,0,0,1,199.5,223.5Z" transform="translate(-12.5 -8.98)"/><path class="cls-9" d="M276.5,271.5a53.85,53.85,0,0,0-2,10q-2.94,6.9-6,14c-.67,2.67-1.33,5.33-2,8a262.33,262.33,0,0,0,1,50q1,6,2,12,1.77,6.33,3,13a74.17,74.17,0,0,0,1,12,216.06,216.06,0,0,1-24,1,4.24,4.24,0,0,1,1.5-2q.25-6,.5-12a136.53,136.53,0,0,1,2-46.5c-.35-1.26-1-1.59-2-1A55.73,55.73,0,0,0,239,342.5l-.5-1a47.57,47.57,0,0,1,15.5-15,416.79,416.79,0,0,1,11-43A65.86,65.86,0,0,1,276.5,271.5Z" transform="translate(-12.5 -8.98)"/><path class="cls-10" d="M284.5,224.5a4.73,4.73,0,0,1,5-.5A33.2,33.2,0,0,1,305,235.5q25.44,40.74,19,88a149,149,0,0,0-21-88A28.29,28.29,0,0,0,284.5,224.5Z" transform="translate(-12.5 -8.98)"/><path class="cls-11" d="M147.5,391.5h-28v-3a482.87,482.87,0,0,0,3.5-56,143.12,143.12,0,0,0,3-31q-6.09-15.28-11-31a3.31,3.31,0,0,1-1.5,2q2-9.74,3.5,0,22.31,21.13,20.5,52a63.31,63.31,0,0,1,21,21,126.2,126.2,0,0,0-21.5-20,503.87,503.87,0,0,0-1,53A70.39,70.39,0,0,1,147.5,391.5Z" transform="translate(-12.5 -8.98)"/><path class="cls-12" d="M278.5,270.5a34.22,34.22,0,0,1,1,10c-.67-1.87-1.33-3.87-2-6a50,50,0,0,1-3,7,53.85,53.85,0,0,1,2-10,3.08,3.08,0,0,1,1-3A1.83,1.83,0,0,1,278.5,270.5Z" transform="translate(-12.5 -8.98)"/><path class="cls-13" d="M100.5,223.5a18.36,18.36,0,0,1,6,.5A30.34,30.34,0,0,0,90,232.5q-27.23,41.42-23,91a7.92,7.92,0,0,1-2-4,93.19,93.19,0,0,1-1-22,179.66,179.66,0,0,1,21-62A48.51,48.51,0,0,1,100.5,223.5Z" transform="translate(-12.5 -8.98)"/><path class="cls-14" d="M177.5,271.5a13,13,0,0,1,5,.5q-14.73,7.11-29,15a20.91,20.91,0,0,1-11,1.5A170.1,170.1,0,0,0,177.5,271.5Z" transform="translate(-12.5 -8.98)"/><path class="cls-14" d="M202.5,271.5a14.12,14.12,0,0,1,9-.5q11,6,22,12a150.15,150.15,0,0,0,16,5.5,27.48,27.48,0,0,1-14-2.5l-24-13A30.64,30.64,0,0,0,202.5,271.5Z" transform="translate(-12.5 -8.98)"/><path class="cls-15" d="M55.5,297.5a16.87,16.87,0,0,1-1.5,13q-7.89,14.26-15,29-3.28,20-6,40a41.08,41.08,0,0,1-.5-9,92.65,92.65,0,0,1,3.5-30,282.47,282.47,0,0,1,17-35Q54.41,301.53,55.5,297.5Z" transform="translate(-12.5 -8.98)"/><path class="cls-16" d="M198.5,303.5a32.25,32.25,0,0,1,4,4.5l33,1a174.16,174.16,0,0,1-33,1A9.71,9.71,0,0,1,198.5,303.5Z" transform="translate(-12.5 -8.98)"/><path class="cls-17" d="M113.5,275.5a442,442,0,0,1-16.5,53,193,193,0,0,1-9,35q-16,30.08-33.5,59,4.89-27.37,8.5-55a67.75,67.75,0,0,0-2.5-28q.53-1.8,1.5,0a35.27,35.27,0,0,1,3.5,18,280.53,280.53,0,0,1-3.5,31,163.23,163.23,0,0,0-4,25,475.89,475.89,0,0,1,23-45,113.86,113.86,0,0,1,10-25,70.84,70.84,0,0,1,5.5-23c-.5-1-1.17-1.19-2-.5a34.11,34.11,0,0,1-12,8A61.94,61.94,0,0,0,99,312.5q5.15-17.43,11.5-34.5A4.45,4.45,0,0,1,113.5,275.5Z" transform="translate(-12.5 -8.98)"/><path class="cls-18" d="M335.5,299.5q8.85,17.21,17,35a7.58,7.58,0,0,1-3-2l-11.5-21A21.63,21.63,0,0,1,335.5,299.5Z" transform="translate(-12.5 -8.98)"/><path class="cls-12" d="M278.5,270.5q10.23,25.42,18.5,52l4.5,4.5a1.66,1.66,0,0,1-2.5-.5c-.17.5-.33,1-.5,1.5A317.74,317.74,0,0,0,330,402.5c.17-1.17.33-2.33.5-3.5q-1.12-5.75-2-11.5a1.62,1.62,0,0,0,1-2q2.7,12.71,4.5,26a99.47,99.47,0,0,1,4.5,13h-1a192.28,192.28,0,0,0-22.5-38,120.83,120.83,0,0,1-20-64,91.8,91.8,0,0,1-15.5-42A34.22,34.22,0,0,0,278.5,270.5Z" transform="translate(-12.5 -8.98)"/><path class="cls-19" d="M192.5,341.5c1.39,2,1.05,3.82-1,5.5a195.28,195.28,0,0,1-28,0l26-1A6.88,6.88,0,0,0,192.5,341.5Z" transform="translate(-12.5 -8.98)"/><path class="cls-20" d="M198.5,340.5a67.65,67.65,0,0,0,5,5.5l26,1a195.28,195.28,0,0,1-28,0A8.57,8.57,0,0,1,198.5,340.5Z" transform="translate(-12.5 -8.98)"/><path class="cls-19" d="M329.5,385.5a1.62,1.62,0,0,1-1,2q-3.6-22.23-7-44.5a23.22,23.22,0,0,1,3.5-11.5,7.17,7.17,0,0,1,5.5-3.5q-7.83,6.44-6,16.5Q326.84,365,329.5,385.5Z" transform="translate(-12.5 -8.98)"/><path class="cls-21" d="M118.5,392.5q39.06,2.24,78,6a45.14,45.14,0,0,0-3,11q-6.88-.31-2,4.5-3.13,10.32-6.5,20.5a262.25,262.25,0,0,0,2,47,29.46,29.46,0,0,0-12,15,85.77,85.77,0,0,0-7.5,8,11.22,11.22,0,0,0,2.5,2L189.5,485c2.8,0,4.14,1.48,4,4.5a43.2,43.2,0,0,0-2,11l-2,7-3,12-2,6q-23.49.53-47,1a299.24,299.24,0,0,1-38-2,.88.88,0,0,1-1-1q.16-22.51,1-45a69.66,69.66,0,0,1,1.19-8.48c.75-3.67,1.69-6.74,1.81-11.52,0-.85,0-1.55,0-2l3-19c.67-2.33,1.33-4.67,2-7A312.52,312.52,0,0,1,118.5,392.5Z" transform="translate(-12.5 -8.98)"/><path class="cls-22" d="M272.5,378.5q2,10.5,5,21a10.77,10.77,0,0,1-2-6,451.92,451.92,0,0,0-76,5h-3q-38.94-3.76-78-6a4.62,4.62,0,0,1,1-4v3h28q23.61,3.24,47.5,5,27.23-3.57,54.5-5a216.06,216.06,0,0,0,24-1A74.17,74.17,0,0,1,272.5,378.5Z" transform="translate(-12.5 -8.98)"/><path class="cls-21" d="M277.5,399.5c.67,2.67,1.33,5.33,2,8a141.18,141.18,0,0,1,9,39,99.8,99.8,0,0,0,3,22,268.88,268.88,0,0,1,1,54q-44.44,2.75-89,2l-1-3a119.34,119.34,0,0,1-4-23,23.86,23.86,0,0,1,0-8,55.21,55.21,0,0,1,10.5,6l.5-1q-4.32-7.17-13-7a24.48,24.48,0,0,1-3.5-13q-.34-24,1-48,2.77-14.53,5.5-29a451.92,451.92,0,0,1,76-5C276.17,395.5,276.83,397.5,277.5,399.5Z" transform="translate(-12.5 -8.98)"/><path class="cls-23" d="M196.5,398.5h3q-2.72,14.46-5.5,29-1.35,24-1,48a24.48,24.48,0,0,0,3.5,13q8.69-.17,13,7l-.5,1a55.21,55.21,0,0,0-10.5-6,23.86,23.86,0,0,0,0,8,34.94,34.94,0,0,1-2.5-8,2.85,2.85,0,0,0-2.5-1c.14-3-1.2-4.52-4-4.5L170,506.5a11.22,11.22,0,0,1-2.5-2,85.77,85.77,0,0,1,7.5-8,29.46,29.46,0,0,1,12-15,262.25,262.25,0,0,1-2-47q3.36-10.19,6.5-20.5-4.87-4.81,2-4.5A45.14,45.14,0,0,1,196.5,398.5Z" transform="translate(-12.5 -8.98)"/><path class="cls-24" d="M365.5,425.5a19.82,19.82,0,0,0,2,6,18.63,18.63,0,0,0,.5,6q5,14.29,10.5,28.5a82.86,82.86,0,0,1-7,20.5,29.42,29.42,0,0,1,2.5-14,42.29,42.29,0,0,0,0-13q-4.28-10.68-9-21A29,29,0,0,1,365.5,425.5Z" transform="translate(-12.5 -8.98)"/><path class="cls-25" d="M27.5,421.5a81.26,81.26,0,0,1-10.5,39,42.29,42.29,0,0,0,0,13,39.42,39.42,0,0,1,2.5,13,61.87,61.87,0,0,1-7-19.5q5.43-14.13,10.5-28.5Q25.37,429.83,27.5,421.5Z" transform="translate(-12.5 -8.98)"/><path class="cls-26" d="M35.5,473.5a72.14,72.14,0,0,1,3,11,29.35,29.35,0,0,1-3-4.5c-.94-.69-1.6-.53-2,.5a1.6,1.6,0,0,0-1,1.5,32.83,32.83,0,0,0,3,7.5q4.34,5.37-1,2l-1,1.5A41.12,41.12,0,0,0,44,508.5a2.44,2.44,0,0,0,.5-2,5,5,0,0,1,0,6,8.72,8.72,0,0,0-3.5-5c-.33.67-.67,1.33-1,2a3.31,3.31,0,0,0-1.5-2,50.29,50.29,0,0,0-6-12,101,101,0,0,1-4-13A10,10,0,0,1,35.5,473.5Z" transform="translate(-12.5 -8.98)"/><path class="cls-27" d="M33.5,480.5a33.73,33.73,0,0,1,2,9,32.83,32.83,0,0,1-3-7.5A1.6,1.6,0,0,1,33.5,480.5Z" transform="translate(-12.5 -8.98)"/><path class="cls-28" d="M363.5,481.5a6.88,6.88,0,0,1,2,3,65.08,65.08,0,0,0-5,13,29.78,29.78,0,0,0-4.5,6,4.18,4.18,0,0,0,1.5,5q-3.31-.88-6,2,4.41-10.15,9.5-20A45.93,45.93,0,0,0,363.5,481.5Z" transform="translate(-12.5 -8.98)"/><path class="cls-29" d="M28.5,482.5a101,101,0,0,0,4,13,50.29,50.29,0,0,1,6,12c-1,.64-2,1.31-3,2l-1-1a3.22,3.22,0,0,0,1.5-4,9.83,9.83,0,0,0-6.5-7,11.76,11.76,0,0,0,1-2.5q-2.2-4.67-4-9.5A2.76,2.76,0,0,1,28.5,482.5Z" transform="translate(-12.5 -8.98)"/><path class="cls-30" d="M55.5,494.5a1.62,1.62,0,0,1-1,2h-5q-.49-6.5,6-6Z" transform="translate(-12.5 -8.98)"/><path class="cls-31" d="M360.5,476.5a86.57,86.57,0,0,1-4.5,16,15.27,15.27,0,0,0-3.5,3,112.14,112.14,0,0,1,.5-15,5.5,5.5,0,0,1,1.5-3,45.05,45.05,0,0,0-.5,14,101,101,0,0,0,5.5-17A1.83,1.83,0,0,1,360.5,476.5Z" transform="translate(-12.5 -8.98)"/><path class="cls-32" d="M38.5,484.5a36.5,36.5,0,0,0,6,22,2.44,2.44,0,0,1-.5,2A41.12,41.12,0,0,1,33.5,493l1-1.5q5.32,3.38,1-2a33.73,33.73,0,0,0-2-9c.4-1,1.06-1.19,2-.5A29.35,29.35,0,0,0,38.5,484.5Z" transform="translate(-12.5 -8.98)"/><path class="cls-33" d="M360.5,476.5a3,3,0,0,1,2,2,81.76,81.76,0,0,1-8.5,23,28.62,28.62,0,0,1-7.5,8,32.81,32.81,0,0,1,6-14,15.27,15.27,0,0,1,3.5-3A86.57,86.57,0,0,0,360.5,476.5Z" transform="translate(-12.5 -8.98)"/><path class="cls-34" d="M362.5,478.5a2.87,2.87,0,0,1,1,3,45.93,45.93,0,0,1-2.5,9q-5.08,9.84-9.5,20a4.33,4.33,0,0,0,0,5q-5.26-.46-5-6a28.62,28.62,0,0,0,7.5-8A81.76,81.76,0,0,0,362.5,478.5Z" transform="translate(-12.5 -8.98)"/><path class="cls-35" d="M203.5,524.5q44.57.75,89-2a2.87,2.87,0,0,1-3,1l-1,1q-40.94,2.7-82,2a4.52,4.52,0,0,1-1.23-.41A4.63,4.63,0,0,1,203.5,524.5Z" transform="translate(-12.5 -8.98)"/><path class="cls-36" d="M290,529a34.38,34.38,0,0,0-3.49-.48,35.12,35.12,0,0,0-8.14.32A43,43,0,0,0,271,530.5a36.16,36.16,0,0,0-10.5-2,66.79,66.79,0,0,1-16.5,2q-18.17-2.14-36.5-3v3a4.62,4.62,0,0,1-1-4,480.53,480.53,0,0,0,49.08-.38c13.1-.77,25.43-2,36.92-3.62Q291.24,525.74,290,529Z" transform="translate(-12.5 -8.98)"/><path class="cls-37" d="M99.5,524.5a299.24,299.24,0,0,0,38,2q23.5-.48,47-1a27.1,27.1,0,0,0-3,8v-6q-24,0-48,1a175.74,175.74,0,0,1-27.5-2,5.67,5.67,0,0,0-4.5,2v7Q100.41,530.16,99.5,524.5Z" transform="translate(-12.5 -8.98)"/><path class="cls-38" d="M181.5,530.5a628.16,628.16,0,0,1-77-1,1.62,1.62,0,0,0-2-1h-1a5.67,5.67,0,0,1,4.5-2,175.74,175.74,0,0,0,27.5,2q24-1.05,48-1Z" transform="translate(-12.5 -8.98)"/><path class="cls-1" d="M286.5,528.5q-1.19,34.54-4,69a17.56,17.56,0,0,0,1,6q-.25,14.5.5,29,4.39,23.41,7.5,47,1,6.51,1.49,13c0,.39.63,8.37.51,16-.24,15.68-3.56,30.92-5,37a286.92,286.92,0,0,0-3,70,115.18,115.18,0,0,0,1,13,48.84,48.84,0,0,0,3.5,13q5.55,7.77,11.5,15a32.32,32.32,0,0,1,6.5,23,2.85,2.85,0,0,1-2.5,1h-4q-1-7-2.5-14a21.15,21.15,0,0,0,1.5,12.5,11.26,11.26,0,0,1-1,2.5,2.87,2.87,0,0,1-3,1,4.38,4.38,0,0,1-3.5-1q-.5-8-1-16a40,40,0,0,0-1.5,15h-5a4.62,4.62,0,0,0-1-4,125.14,125.14,0,0,0-2-14,106.05,106.05,0,0,0,0,20q-4.54,2.4-8-1a40.48,40.48,0,0,0-.5-9,28.75,28.75,0,0,1-3.5-11,13.14,13.14,0,0,0-1,7,34.22,34.22,0,0,0-10-1,7.09,7.09,0,0,0,1,5,8.52,8.52,0,0,1,8,0,3.09,3.09,0,0,0,1-3,10.75,10.75,0,0,1,3,9,16.45,16.45,0,0,1-12,1.5,76.38,76.38,0,0,1-8-6.5q-.5-17-1-34,.88-20.5.5-41a667,667,0,0,0-21-83,101.24,101.24,0,0,1-1.5-21,13.12,13.12,0,0,0,1.5-5q1.75-23.47,2.5-47a122,122,0,0,0-10.5-46,227.19,227.19,0,0,1-5-31,156.47,156.47,0,0,0-8-23,77.54,77.54,0,0,1-2.5-12v-3q18.33.86,36.5,3a66.79,66.79,0,0,0,16.5-2,36.16,36.16,0,0,1,10.5,2A42.6,42.6,0,0,1,286.5,528.5Z" transform="translate(-12.5 -8.98)"/><path class="cls-1" d="M100,527.56a343.41,343.41,0,0,0,49.9,3.67c11.68,0,22.6-.58,32.65-1.53a177,177,0,0,0-6.06,20.8c-3.56,15.81-6.83,40.68-9,49-.92,3.52-2,7-2,7-1,3.21-1.83,5.52-2,6-1.8,5.1-4.11,18.5-4.34,38.68-.18,16.22,1.14,22.9,1.56,24.9,1.09,5.22,1.57,5,2.39,9.88a71.32,71.32,0,0,1-.19,24.7A48.94,48.94,0,0,1,161,718.5a343,343,0,0,0-19.5,77,3.31,3.31,0,0,0-1.5,2q-.5,20-1,40a30.79,30.79,0,0,0-2.5,10.5,100.54,100.54,0,0,1,2.5,26.5q-7.77,8.75-19.5,7,1.29-9.54,2.5-19a75.18,75.18,0,0,0-4.5,20q-4.5,4-9,0a130.64,130.64,0,0,0,2-13.5c-.33-2.17-.67-4.33-1-6.5a152.4,152.4,0,0,0-2,20q-2.5,4-5,0-.93-7.92-2-16a57.22,57.22,0,0,0-1,15h-7a39.2,39.2,0,0,0,0-14,50.61,50.61,0,0,0-2,14h-3a3.93,3.93,0,0,1-3.5-2,14.18,14.18,0,0,1,.5-9l2-6c.14-.61.35-1.48.67-2.51A32.92,32.92,0,0,1,90,855.5a197.69,197.69,0,0,0,13.5-23q2-12.5,4-25l-6-85c-.82-10.28-1-19.4-.9-27.06a298.29,298.29,0,0,1,2.25-32.38c.31-2.26.92-6.56,1.62-11.15.79-5.16,1.51-9.43,2-12.41a104.35,104.35,0,0,0,3-36c-.85-8.65-3-18.25-3.94-30.36-.09-1.17-.52-7-1.23-15-.22-2.45-.46-5.09-.58-6.33C103.26,546.82,102.27,539,100,527.56Z" transform="translate(-12.5 -8.98)"/><path class="cls-39" d="M286.5,528.5h2a1.52,1.52,0,0,1,1.1.14c1.58.94.4,5.46-.1,7.86-.72,3.47.12,1.77-.25,16.51-.1,4-.3,9.61-.75,16.49l-3,23q-1,5.5-2,11a17.56,17.56,0,0,1-1-6Q285.32,563,286.5,528.5Z" transform="translate(-12.5 -8.98)"/><path class="cls-40" d="M100,527.56c.48,0,1,.06,1.55.13s1.06.17,1.52.27q1.76,19,3.84,38.54,2,18.87,4.24,37.26l-1.66-.26q-3.3-20.79-6-43Q101.48,543.68,100,527.56Z" transform="translate(-12.5 -8.98)"/><path class="cls-41" d="M276.5,597.5a2.85,2.85,0,0,1,2.5,1q1.88,19.49,2,39a36.6,36.6,0,0,1-9.5,13q-.39-3.56,3.5-6a33,33,0,0,0,3-7A219.13,219.13,0,0,0,276.5,597.5Z" transform="translate(-12.5 -8.98)"/><path class="cls-42" d="M138.5,648.5a101.59,101.59,0,0,0,7.5-9,79.68,79.68,0,0,0,4-14Q151.4,640.71,138.5,648.5Z" transform="translate(-12.5 -8.98)"/><path class="cls-43" d="M138.5,648.5q1.62,10.85-10,15.5-8.34,2.37-13.5-4.5a18.36,18.36,0,0,1-.5-6,25.92,25.92,0,0,1,9,3.5,12,12,0,0,0,12-4l-2-1A8.72,8.72,0,0,1,138.5,648.5Z" transform="translate(-12.5 -8.98)"/><path class="cls-44" d="M242.5,634.5a40.67,40.67,0,0,0,14,18.5l-2,1a23.52,23.52,0,0,0,6,2.5,29.65,29.65,0,0,1,14-4q.39,6.86-6,9.5-14.33,2.91-20-10.5l1-2A30.23,30.23,0,0,1,242.5,634.5Z" transform="translate(-12.5 -8.98)"/><path class="cls-45" d="M160.5,625.5q-.66,6-.87,12a159.64,159.64,0,0,0,.37,18c1.73,20.87,7.78,27.27,5,42.18a49.27,49.27,0,0,1-1.47,5.82,179.77,179.77,0,0,0-.5-19,130.41,130.41,0,0,1-4-17,398.26,398.26,0,0,1,0-40A3.31,3.31,0,0,1,160.5,625.5Z" transform="translate(-12.5 -8.98)"/><path class="cls-45" d="M233.5,642.5q-.75,23.52-2.5,47a13.12,13.12,0,0,1-1.5,5A443,443,0,0,1,233.5,642.5Z" transform="translate(-12.5 -8.98)"/><path class="cls-13" d="M150.5,658.5a3.2,3.2,0,0,1,.5,4,224.78,224.78,0,0,0-11,36q-.84,26,0,52a79,79,0,0,1-2-10q-1-21,0-42A253.75,253.75,0,0,1,150.5,658.5Z" transform="translate(-12.5 -8.98)"/><path class="cls-46" d="M243.5,673.5a131,131,0,0,1,10.5,31,463.55,463.55,0,0,1-2,49,25.61,25.61,0,0,1-1.5-8.5,219.36,219.36,0,0,0,1.5-40.5Q248.51,688.77,243.5,673.5Z" transform="translate(-12.5 -8.98)"/><path class="cls-47" d="M141.5,795.5a184.21,184.21,0,0,0,0,38,118,118,0,0,1-3,14.5,140.71,140.71,0,0,1,1.5,27.5,10.78,10.78,0,0,1-8.5,6.5,24.72,24.72,0,0,1-12-.5q11.73,1.75,19.5-7a100.54,100.54,0,0,0-2.5-26.5,30.79,30.79,0,0,1,2.5-10.5q.5-20,1-40A3.31,3.31,0,0,1,141.5,795.5Z" transform="translate(-12.5 -8.98)"/><path class="cls-48" d="M286.5,828.5l15,28q-6-7.23-11.5-15A48.84,48.84,0,0,1,286.5,828.5Z" transform="translate(-12.5 -8.98)"/><path class="cls-49" d="M269.5,868.5v1a3.09,3.09,0,0,1-1,3,8.52,8.52,0,0,0-8,0,7.09,7.09,0,0,1-1-5A34.22,34.22,0,0,1,269.5,868.5Z" transform="translate(-12.5 -8.98)"/><path class="cls-50" d="M124.5,868.5h8v4a24.64,24.64,0,0,0-9.5,1A4.24,4.24,0,0,1,124.5,868.5Z" transform="translate(-12.5 -8.98)"/><path class="cls-51" d="M108.5,882.5h-1a152.4,152.4,0,0,1,2-20c.33,2.17.67,4.33,1,6.5A130.64,130.64,0,0,1,108.5,882.5Z" transform="translate(-12.5 -8.98)"/><path class="cls-52" d="M119.5,881.5l-2,1a75.18,75.18,0,0,1,4.5-20Q120.79,872,119.5,881.5Z" transform="translate(-12.5 -8.98)"/><path class="cls-53" d="M284.5,876.5v6h-2a106.05,106.05,0,0,1,0-20A125.14,125.14,0,0,1,284.5,876.5Z" transform="translate(-12.5 -8.98)"/><path class="cls-54" d="M92.5,881.5v1a6.89,6.89,0,0,1-5-1h3a50.61,50.61,0,0,1,2-14A39.2,39.2,0,0,1,92.5,881.5Z" transform="translate(-12.5 -8.98)"/><path class="cls-55" d="M274.5,881.5h-3a5.75,5.75,0,0,0,1-3,10.75,10.75,0,0,0-3-9v-1a13.14,13.14,0,0,1,1-7,28.75,28.75,0,0,0,3.5,11A40.48,40.48,0,0,1,274.5,881.5Z" transform="translate(-12.5 -8.98)"/><path class="cls-56" d="M305.5,880.5a9.66,9.66,0,0,1-6,1,11.26,11.26,0,0,0,1-2.5,21.15,21.15,0,0,1-1.5-12.5q1.54,7,2.5,14Z" transform="translate(-12.5 -8.98)"/><path class="cls-57" d="M252.5,873.5a76.38,76.38,0,0,0,8,6.5,16.45,16.45,0,0,0,12-1.5,5.75,5.75,0,0,1-1,3,20.84,20.84,0,0,1-17-3A6,6,0,0,1,252.5,873.5Z" transform="translate(-12.5 -8.98)"/><path class="cls-58" d="M296.5,882.5q-5.88.06-12,0v-6a4.62,4.62,0,0,1,1,4h5a40,40,0,0,1,1.5-15q.5,8,1,16A4.38,4.38,0,0,0,296.5,882.5Z" transform="translate(-12.5 -8.98)"/><path class="cls-59" d="M102.5,882.5a13.8,13.8,0,0,1-10,0v-1h7a57.22,57.22,0,0,1,1-15Q101.57,874.57,102.5,882.5Z" transform="translate(-12.5 -8.98)"/></svg>