<svg id="Capa_1" data-name="Capa 1" xmlns="http://www.w3.org/2000/svg" viewBox="0 0 546.34 468.61"><defs><style>.cls-1{fill:#b79f8e;}.cls-1,.cls-10,.cls-11,.cls-12,.cls-13,.cls-14,.cls-15,.cls-2,.cls-3,.cls-4,.cls-5,.cls-6,.cls-7,.cls-8,.cls-9{fill-rule:evenodd;}.cls-2{fill:#f9d6bc;}.cls-3{fill:#d4b7a2;}.cls-4{fill:#f2c2a7;}.cls-5{fill:#fbe3d0;}.cls-6{fill:#f5e0d1;}.cls-7{fill:#f3c2a8;}.cls-8{fill:#f1c1a7;}.cls-9{fill:#f2c2a8;}.cls-10{fill:#f1c1a6;}.cls-11{fill:#f6d6c4;}.cls-12{fill:#eabca3;}.cls-13{fill:#f8dac9;}.cls-14{fill:#f7dbd0;}.cls-15{fill:#f8dbc9;}</style></defs><title>Pies F</title><path class="cls-1" d="M560.5,18.5q-22.5,1.08-45,2A206.74,206.74,0,0,1,560.5,18.5Z" transform="translate(-44.16 -18.07)"/><path class="cls-2" d="M560.5,18.5a21.47,21.47,0,0,1,0,12,166.33,166.33,0,0,0-19,28.5q7.13,12,13,24.5l-1,2a19.79,19.79,0,0,0-11-4.5,26.71,26.71,0,0,1,10,6.5q2.61,5.63,5.5,11,5.32,41.51,11,83a137.57,137.57,0,0,0,18,42,97.67,97.67,0,0,1,.5,14q-.75,10.49-1,21,1.35,23.52,3.5,47a143.53,143.53,0,0,1,0,24q-6.13,18-13.5,35.5,1.86,6.81,4,13.5c.24,1,.49,2,.73,2.95a60.77,60.77,0,0,0-6.24-.37c-2.38,0-3.59,0-4.61.37-1.79.71-2.52,1.94-5,5.37-1,1.29-2.42,3.26-4.34,5.68a2.3,2.3,0,0,1-1,1.39,2.2,2.2,0,0,1-1.22.38c-1-2.81-1.64-5.09-2.05-6.49-2.16-7.43-4.93-14.68-7.13-22.11a5.18,5.18,0,0,0-1.74-2.76,4.78,4.78,0,0,0-2.41-.91,123.52,123.52,0,0,1,11,29.5,51.52,51.52,0,0,0,1,7,69.44,69.44,0,0,0-33,2c-.68-.74-1.35-1.41-2-2a179.44,179.44,0,0,1-2.5-28l-1,1a154.58,154.58,0,0,0,1.5,31q-20.21.12-40.5,1a2.64,2.64,0,0,1-2.5-2q.25-11-.5-22-1.75,12.38-2.5,25-4.86,1.32-9.5,3a19.85,19.85,0,0,1-9.5-4.5l-26-1a6.51,6.51,0,0,1-1-4.5l3-14a7.74,7.74,0,0,0,1-7l-15,9.5-10,16a9.06,9.06,0,0,1-10-3q-11.07-3.19-22-7-22.56-2.34-34.5,16.5a2.23,2.23,0,0,0-1.5-1v-9a39.72,39.72,0,0,1,12.5-11,43.4,43.4,0,0,0,8.5-26q2.07-36,5.5-72a215.23,215.23,0,0,0,18-29q19.71-55.11,37-111a268.11,268.11,0,0,0,4-46,3.31,3.31,0,0,0-1.5-2q1.74-7.44,3-15-3.9-17-7.5-34a68.39,68.39,0,0,1-1-18,7,7,0,0,1,4.5-2.5,396.66,396.66,0,0,1,52-7.5,131,131,0,0,0,32-3,23.83,23.83,0,0,1,9-1Q538,19.59,560.5,18.5Z" transform="translate(-44.16 -18.07)"/><path class="cls-3" d="M506.5,21.5a131,131,0,0,1-32,3A254.83,254.83,0,0,1,506.5,21.5Z" transform="translate(-44.16 -18.07)"/><path class="cls-4" d="M560.5,30.5a120.13,120.13,0,0,0,1.5,25q10.41,32.25,22,64a80.85,80.85,0,0,1,0,18,222,222,0,0,0-4.5,25q1.71,21.5,3.5,43a58.27,58.27,0,0,0,5,14,55,55,0,0,1-.5,18,97.67,97.67,0,0,0-.5-14,137.57,137.57,0,0,1-18-42q-5.68-41.49-11-83-2.88-5.39-5.5-11a26.71,26.71,0,0,0-10-6.5,19.79,19.79,0,0,1,11,4.5l1-2Q548.62,71,541.5,59A166.33,166.33,0,0,1,560.5,30.5Z" transform="translate(-44.16 -18.07)"/><path class="cls-5" d="M488.5,66.5a32.51,32.51,0,0,1,8,.5q-19.42,4.41-39,8A70.24,70.24,0,0,0,434,86.5,26.26,26.26,0,0,1,439.5,75Q464.22,70.8,488.5,66.5Z" transform="translate(-44.16 -18.07)"/><path class="cls-6" d="M423.5,101.5a3.31,3.31,0,0,1,1.5,2,268.11,268.11,0,0,1-4,46q-17.29,55.89-37,111a215.23,215.23,0,0,1-18,29q-3.44,36-5.5,72a43.4,43.4,0,0,1-8.5,26,39.72,39.72,0,0,0-12.5,11,54.15,54.15,0,0,1,14.5-29,20.34,20.34,0,0,0,1.5-6q0-4.1-.13-8.42c-.16-4.73-.46-9.27-.87-13.58a191.8,191.8,0,0,1,3-42l1.14-4,.86-3a82.22,82.22,0,0,1,3.5-12,217.27,217.27,0,0,0,27-56q14-39.54,25-80Q418.66,122.83,423.5,101.5Z" transform="translate(-44.16 -18.07)"/><path class="cls-7" d="M431.5,383.5a2.44,2.44,0,0,0-.5-2q-5.46,17.87-10,36-2.26,19.47-4,39a16.66,16.66,0,0,1-2.5,4,183.77,183.77,0,0,1-28,22.5,22.94,22.94,0,0,1-20,2q-18.37-6.12-24-24.5a44.19,44.19,0,0,1-1.54-7.34,43.6,43.6,0,0,1,.54-13.66,28.66,28.66,0,0,0,2-11,97.76,97.76,0,0,0-4-21,2.23,2.23,0,0,1,1.5,1q11.94-18.84,34.5-16.5,10.94,3.81,22,7a9.06,9.06,0,0,0,10,3l10-16,15-9.5A7.74,7.74,0,0,1,431.5,383.5Z" transform="translate(-44.16 -18.07)"/><path class="cls-8" d="M580.5,378.5a8.71,8.71,0,0,1-.5,8,185.51,185.51,0,0,1-11.5,23,42.09,42.09,0,0,0,1-8,16.15,16.15,0,0,1-2.06.34c-2.25.22-2.62-.22-3.49,0-2.76.66-2.55,6-5.45,6.68a3.33,3.33,0,0,1-1.86-.12c0-.39-.06-1-.06-1.74,0-2.23.42-3.58,1.53-8.46a10.66,10.66,0,0,0,.38-4.93,9.29,9.29,0,0,0-.55-1.69,4,4,0,0,0,2,.35c1.88-.2,3-1.83,5.36-5.09L569.5,381a88.3,88.3,0,0,1,11,.5Z" transform="translate(-44.16 -18.07)"/><path class="cls-9" d="M556.5,391.5a17.49,17.49,0,0,1,1.5,12q-4.18,8.87-7.5,18a61.91,61.91,0,0,1-9,12,48.21,48.21,0,0,0,5-12,105.18,105.18,0,0,1-22-2q-3.4,20.63,16,14a29.27,29.27,0,0,1-20,7.5,73.16,73.16,0,0,1-7-7.5q4.65-12.81,8.5-26a41.08,41.08,0,0,0,.5-9c.65.59,1.32,1.26,2,2a69.57,69.57,0,0,1,33-2A51.52,51.52,0,0,1,556.5,391.5Z" transform="translate(-44.16 -18.07)"/><path class="cls-7" d="M428.5,397.5a6.51,6.51,0,0,0,1,4.5l26,1a19.85,19.85,0,0,0,9.5,4.5q4.63-1.68,9.5-3a372.64,372.64,0,0,0-8,43,40.83,40.83,0,0,1-22,22.5,16.17,16.17,0,0,1-8,0,35.21,35.21,0,0,1-15-8.5q-1.47-3-3-6A376.57,376.57,0,0,1,428.5,397.5Z" transform="translate(-44.16 -18.07)"/><path class="cls-10" d="M477.5,401.5a2.64,2.64,0,0,0,2.5,2q20.29-.88,40.5-1a220.88,220.88,0,0,1-9,32Q504,469,473.5,452a15.92,15.92,0,0,1-5-8.5Q472.43,422.23,477.5,401.5Z" transform="translate(-44.16 -18.07)"/><path class="cls-11" d="M568.5,409.5l-1,2h-9v-3a12.74,12.74,0,0,1,3-6,19.39,19.39,0,0,1,8-1A42.09,42.09,0,0,1,568.5,409.5Z" transform="translate(-44.16 -18.07)"/><path class="cls-12" d="M557,406.36a3.3,3.3,0,0,1,1.54,2.14,14.85,14.85,0,0,1,0,2.12c0,.37,0,.67,0,.88h9a14.92,14.92,0,0,1-9,7,7.14,7.14,0,0,1-5-1,11,11,0,0,1,.9-5.85c.23-.47.63-1.16,1.31-2.56C556.26,408,556.69,407,557,406.36Z" transform="translate(-44.16 -18.07)"/><path class="cls-13" d="M541.5,433.5h-1q-19.39,6.62-16-14a105.18,105.18,0,0,0,22,2A48.21,48.21,0,0,1,541.5,433.5Z" transform="translate(-44.16 -18.07)"/><path class="cls-14" d="M369.5,422.5q39.72-1,30.5,38-16.63,1.65-33.5,2.5a109.82,109.82,0,0,1-17,3.5,178.3,178.3,0,0,1,1.5-31Q356.84,424,369.5,422.5Z" transform="translate(-44.16 -18.07)"/><path class="cls-15" d="M481.5,430.5a59,59,0,0,0,24,3q1.25,20.5-19,17.5-11.85-3.44-8.5-15.5C479.18,433.8,480.34,432.14,481.5,430.5Z" transform="translate(-44.16 -18.07)"/><path class="cls-15" d="M428.5,432.5a39.43,39.43,0,0,0,14.5,3q6.27-.47,12.5-1,3.83,19.2-16,20-8.81.45-11.5-8A35.06,35.06,0,0,1,428.5,432.5Z" transform="translate(-44.16 -18.07)"/><path class="cls-1" d="M119.16,20.76q-22.5-.92-45-2A206.74,206.74,0,0,1,119.16,20.76Z" transform="translate(-44.16 -18.07)"/><path class="cls-2" d="M119.16,20.76a23.83,23.83,0,0,1,9,1,131,131,0,0,0,32,3,396.66,396.66,0,0,1,52,7.5,7,7,0,0,1,4.5,2.5,68.39,68.39,0,0,1-1,18q-3.6,17-7.5,34,1.26,7.56,3,15a3.31,3.31,0,0,0-1.5,2,268.11,268.11,0,0,0,4,46q17.29,55.89,37,111a215.23,215.23,0,0,0,18,29q3.42,35.94,5.5,72a43.42,43.42,0,0,0,8.5,26,39.72,39.72,0,0,1,12.5,11v9a2.23,2.23,0,0,0-1.5,1q-11.94-18.84-34.5-16.5-10.94,3.81-22,7a9.06,9.06,0,0,1-10,3l-10-16-15-9.5a7.71,7.71,0,0,0,1,7l3,14a6.51,6.51,0,0,1-1,4.5l-26,1a20,20,0,0,1-9.5,4.5q-4.64-1.68-9.5-3-.75-12.63-2.5-25-.75,11-.5,22a2.65,2.65,0,0,1-2.5,2q-20.29-.88-40.5-1a154.58,154.58,0,0,0,1.5-31l-1-1a179.44,179.44,0,0,1-2.5,28c-.65.59-1.32,1.26-2,2a69.44,69.44,0,0,0-33-2,51.52,51.52,0,0,0,1-7,123.52,123.52,0,0,1,11-29.5,4.78,4.78,0,0,0-2.41.91A5.21,5.21,0,0,0,85,365.93c-2.19,7.43-5,14.67-7.12,22.11-.41,1.4-1.09,3.68-2,6.49a2.25,2.25,0,0,1-1.23-.38,2.32,2.32,0,0,1-.94-1.39c-1.92-2.42-3.39-4.39-4.34-5.68-2.52-3.43-3.25-4.66-5-5.37-1-.4-2.23-.39-4.61-.37a60.77,60.77,0,0,0-6.24.37c.24-1,.48-2,.73-2.95q2.15-6.69,4-13.5-7.36-17.49-13.5-35.5a143.53,143.53,0,0,1,0-24q2.16-23.47,3.5-47-.25-10.53-1-21a97.67,97.67,0,0,1,.5-14,137.57,137.57,0,0,0,18-42q5.69-41.49,11-83,2.88-5.39,5.5-11a26.71,26.71,0,0,1,10-6.5,19.76,19.76,0,0,0-11,4.5c-.33-.67-.67-1.33-1-2q5.88-12.51,13-24.5a166.33,166.33,0,0,0-19-28.5,21.47,21.47,0,0,1,0-12Q96.66,19.84,119.16,20.76Z" transform="translate(-44.16 -18.07)"/><path class="cls-3" d="M160.16,24.76a131,131,0,0,1-32-3A254.83,254.83,0,0,1,160.16,24.76Z" transform="translate(-44.16 -18.07)"/><path class="cls-4" d="M93.16,59.26q-7.12,12-13,24.5c.33.67.67,1.33,1,2a19.76,19.76,0,0,1,11-4.5,26.71,26.71,0,0,0-10,6.5q-2.61,5.61-5.5,11-5.32,41.51-11,83a137.57,137.57,0,0,1-18,42,97.67,97.67,0,0,0-.5,14,55,55,0,0,1-.5-18,58.27,58.27,0,0,0,5-14q1.8-21.49,3.5-43a221.6,221.6,0,0,0-4.5-25,80.85,80.85,0,0,1,0-18q11.58-31.76,22-64a120.17,120.17,0,0,0,1.5-25A166.33,166.33,0,0,1,93.16,59.26Z" transform="translate(-44.16 -18.07)"/><path class="cls-5" d="M195.16,75.26a26.26,26.26,0,0,1,5.5,11.5,70.05,70.05,0,0,0-23.5-11.5q-19.57-3.58-39-8a32,32,0,0,1,8-.5Q170.43,71.05,195.16,75.26Z" transform="translate(-44.16 -18.07)"/><path class="cls-6" d="M219.66,144.76q11,40.45,25,80a217.27,217.27,0,0,0,27,56,82.22,82.22,0,0,1,3.5,12l.86,3,1.14,4a191.8,191.8,0,0,1,3,42c-.41,4.31-.71,8.85-.87,13.58q-.15,4.32-.13,8.42a20.34,20.34,0,0,0,1.5,6,54.15,54.15,0,0,1,14.5,29,39.72,39.72,0,0,0-12.5-11,43.42,43.42,0,0,1-8.5-26q-2.07-36.06-5.5-72a215.23,215.23,0,0,1-18-29q-19.71-55.11-37-111a268.11,268.11,0,0,1-4-46,3.31,3.31,0,0,1,1.5-2Q216,123.09,219.66,144.76Z" transform="translate(-44.16 -18.07)"/><path class="cls-7" d="M202.16,376.76l15,9.5,10,16a9.06,9.06,0,0,0,10-3q11.07-3.19,22-7,22.56-2.34,34.5,16.5a2.23,2.23,0,0,1,1.5-1,97.16,97.16,0,0,0-4,21,28.7,28.7,0,0,0,2,11,43.6,43.6,0,0,1,.54,13.66,44.19,44.19,0,0,1-1.54,7.34q-5.62,18.38-24,24.5a22.94,22.94,0,0,1-20-2,183.77,183.77,0,0,1-28-22.5,16.66,16.66,0,0,1-2.5-4q-1.72-19.53-4-39-4.53-18.13-10-36a2.44,2.44,0,0,0-.5,2A7.71,7.71,0,0,1,202.16,376.76Z" transform="translate(-44.16 -18.07)"/><path class="cls-8" d="M54.16,381.76a88.3,88.3,0,0,1,11-.5l4.16,5.82c2.33,3.26,3.48,4.89,5.36,5.09a4.11,4.11,0,0,0,2-.35,9,9,0,0,0-.55,1.69,10.66,10.66,0,0,0,.38,4.93c1.11,4.88,1.51,6.23,1.53,8.45,0,.75,0,1.35-.06,1.75a3.33,3.33,0,0,1-1.86.12c-2.9-.72-2.69-6-5.45-6.68-.87-.2-1.24.23-3.49,0a16.48,16.48,0,0,1-2.06-.33,41.39,41.39,0,0,0,1,8,186.21,186.21,0,0,1-11.5-23,8.71,8.71,0,0,1-.5-8Z" transform="translate(-44.16 -18.07)"/><path class="cls-9" d="M77.16,398.76a69.44,69.44,0,0,1,33,2c.68-.74,1.35-1.41,2-2a40.48,40.48,0,0,0,.5,9q3.86,13.19,8.5,26a73.16,73.16,0,0,1-7,7.5,29.27,29.27,0,0,1-20-7.5q19.4,6.62,16-14a105.18,105.18,0,0,1-22,2,48.21,48.21,0,0,0,5,12,61.91,61.91,0,0,1-9-12q-3.31-9.13-7.5-18a17.49,17.49,0,0,1,1.5-12A51.52,51.52,0,0,1,77.16,398.76Z" transform="translate(-44.16 -18.07)"/><path class="cls-7" d="M216.16,455.76q-1.53,3-3,6a35.21,35.21,0,0,1-15,8.5,16.17,16.17,0,0,1-8,0,40.83,40.83,0,0,1-22-22.5,372.64,372.64,0,0,0-8-43q4.86,1.32,9.5,3a20,20,0,0,0,9.5-4.5l26-1a6.51,6.51,0,0,0,1-4.5A376.57,376.57,0,0,1,216.16,455.76Z" transform="translate(-44.16 -18.07)"/><path class="cls-10" d="M166.16,443.76a15.92,15.92,0,0,1-5,8.5q-30.47,17-38-17.5a218.72,218.72,0,0,1-9-32q20.21.12,40.5,1a2.65,2.65,0,0,0,2.5-2Q162.23,422.49,166.16,443.76Z" transform="translate(-44.16 -18.07)"/><path class="cls-11" d="M65.16,401.76a19.39,19.39,0,0,1,8,1,12.74,12.74,0,0,1,3,6v3h-9c-.33-.67-.67-1.33-1-2A41.39,41.39,0,0,1,65.16,401.76Z" transform="translate(-44.16 -18.07)"/><path class="cls-12" d="M79,409.35c.68,1.4,1.08,2.09,1.31,2.56a11,11,0,0,1,.9,5.85,7.15,7.15,0,0,1-5,1,14.92,14.92,0,0,1-9-7h9c0-.21,0-.51,0-.88a14.85,14.85,0,0,1,0-2.12,3.3,3.3,0,0,1,1.54-2.14C78,407.26,78.4,408.21,79,409.35Z" transform="translate(-44.16 -18.07)"/><path class="cls-13" d="M88.16,421.76a105.18,105.18,0,0,0,22-2q3.39,20.61-16,14h-1A48.21,48.21,0,0,1,88.16,421.76Z" transform="translate(-44.16 -18.07)"/><path class="cls-14" d="M283.66,435.76a178.3,178.3,0,0,1,1.5,31,111,111,0,0,1-17-3.5q-16.86-.84-33.5-2.5-9.22-39,30.5-38Q277.84,424.23,283.66,435.76Z" transform="translate(-44.16 -18.07)"/><path class="cls-15" d="M156.66,435.76q3.34,12.06-8.5,15.5-20.25,3-19-17.5a59,59,0,0,0,24-3C154.32,432.4,155.48,434.06,156.66,435.76Z" transform="translate(-44.16 -18.07)"/><path class="cls-15" d="M206.66,446.76q-2.7,8.46-11.5,8-19.82-.79-16-20,6.24.54,12.5,1a39.43,39.43,0,0,0,14.5-3A35.06,35.06,0,0,1,206.66,446.76Z" transform="translate(-44.16 -18.07)"/></svg>